<svg id="Layer_1" data-name="Layer 1" xmlns="http://www.w3.org/2000/svg" viewBox="0 0 134 134"><defs><style>.cls-1{fill:#fff;}.cls-2{fill:#beb3b6;}.cls-3{fill:#8dc742;}.cls-4{fill:#1f646b;}.cls-5{fill:#5b5b5a;}.cls-6{fill:#e0dc37;}</style></defs><title>combine-logo</title><circle class="cls-1" cx="67" cy="67" r="67"/><circle class="cls-2" cx="64.73" cy="56.33" r="9.87"/><circle class="cls-3" cx="25.18" cy="57.18" r="15.4"/><circle class="cls-4" cx="50.19" cy="85.5" r="15.4"/><path class="cls-5" d="M67.4,30.05c8.24.14,16.74-.23,25.26.26,11.5,3.45,1,12.79,10.77,11.32.49-24.33-26.56-11.94-36-17C67.39,25.25,67.4,29.92,67.4,30.05Z" transform="translate(0.17 -0.08)"/><path class="cls-5" d="M65.53,106.9a.51.51,0,0,1-.44-.12c-8.82-.19-32.76,6.71-42.35-6.7C19.3,93,21.47,85.7,20.8,71.9a8.62,8.62,0,0,0,4.18.54c2.31,26.08-13.12,33.64,40.59,31.07C66.28,104.65,66.85,105.78,65.53,106.9Z" transform="translate(0.17 -0.08)"/><circle class="cls-4" cx="52.42" cy="27.28" r="15.4"/><circle class="cls-6" cx="82.47" cy="104.38" r="17.74"/><circle class="cls-3" cx="101.87" cy="62.97" r="22.35"/></svg>