<svg id="Layer_1" data-name="Layer 1" xmlns="http://www.w3.org/2000/svg" viewBox="0 0 425.2 425.2"><defs><style>.cls-1{fill:#231f20;}.cls-2{fill:#6bcdf5;}.cls-3{fill:#54b8e8;}.cls-4{fill:#6acbf4;}.cls-5{fill:#67c9f2;}.cls-6{fill:#3199d5;}.cls-7{fill:#48afe2;}.cls-8{fill:#63c6f1;}.cls-9{fill:#0f6cb6;}.cls-10{fill:#2d95d2;}.cls-11{fill:#5bbeec;}.cls-12{fill:#1a83c6;}.cls-13{fill:#61c4f0;}.cls-14{fill:#4fb3e5;}.cls-15{fill:#77d1f6;}.cls-16{fill:#1378be;}.cls-17{fill:#58bceb;}.cls-18{fill:#0f6fb8;}.cls-19{fill:#63c5f0;}.cls-20{fill:#319ad5;}.cls-21{fill:#5dc0ed;}.cls-22{fill:#89d6f8;}.cls-23{fill:#2992d0;}.cls-24{fill:#1f88ca;}.cls-25{fill:#99dbf8;}.cls-26{fill:#41aae0;}.cls-27{fill:#268ece;}.cls-28{fill:#258ecd;}.cls-29{fill:#5dc1ee;}.cls-30{fill:#a2def9;}.cls-31{fill:#0e66b1;}.cls-32{fill:#a9e0fa;}.cls-33{fill:#1074bb;}.cls-34{fill:#b3e3fa;}.cls-35{fill:#218acb;}.cls-36{fill:#0e68b3;}.cls-37{fill:#1880c4;}.cls-38{fill:#68c9f3;}.cls-39{fill:#1d86c8;}.cls-40{fill:#1171b9;}.cls-41{fill:#2b93d1;}.cls-42{fill:#80d4f7;}.cls-43{fill:#1579bf;}.cls-44{fill:#1071b9;}.cls-45{fill:#177dc2;}.cls-46{fill:#81d4f7;}.cls-47{fill:#5dc0ee;}.cls-48{fill:#369ed8;}.cls-49{fill:#1c86c8;}.cls-50{fill:#49afe2;}.cls-51{fill:#62c5f0;}.cls-52{fill:#1275bc;}.cls-53{fill:#57bbea;}.cls-54{fill:#bae5fa;}.cls-55{fill:#4ab0e3;}.cls-56{fill:#3ba3dc;}.cls-57{fill:#359dd8;}.cls-58{fill:#208aca;}.cls-59{fill:#177cc1;}.cls-60{fill:#43ace1;}.cls-61{fill:#329ad6;}.cls-62{fill:#3fa8df;}.cls-63{fill:#3fa8de;}.cls-64{fill:#1473ba;}.cls-65{fill:#42abe0;}.cls-66{fill:#2f96d3;}.cls-67{fill:#38a0da;}.cls-68{fill:#51b5e6;}.cls-69{fill:#3ba4dc;}.cls-70{fill:#1980c4;}.cls-71{fill:#55b9e9;}.cls-72{fill:#41abe0;}.cls-73{fill:#50b4e5;}.cls-74{fill:#41a8de;}.cls-75{fill:#369fd9;}.cls-76{fill:#2089ca;}.cls-77{fill:#1479bf;}.cls-78{fill:#268fce;}.cls-79{fill:#0f6db7;}.cls-80{fill:#1981c5;}.cls-81{fill:#2c94d1;}.cls-82{fill:#52b6e7;}.cls-83{fill:#5ec1ee;}.cls-84{fill:#359ed8;}.cls-85{fill:#0f6eb7;}.cls-86{fill:#0d6ab4;}.cls-87{fill:#3ea7de;}.cls-88{fill:#1a82c5;}.cls-89{fill:#39a1da;}.cls-90{fill:#1174bb;}.cls-91{fill:#66c8f2;}.cls-92{fill:#1d87c8;}.cls-93{fill:#0a5ba9;}.cls-94{fill:#0857a6;}.cls-95{fill:#6ccdf5;}.cls-96{fill:#88d6f7;}.cls-97{fill:#a8dff9;}.cls-98{fill:#b4e2f9;}.cls-99{fill:#2891cf;}.cls-100{fill:#91d9f8;}.cls-101{fill:#0b5aa8;}.cls-102{fill:#0e62ae;}.cls-103{fill:#0d5fac;}.cls-104{fill:#0e60ad;}.cls-105{fill:#3aa2db;}.cls-106{fill:#3ca4dc;}.cls-107{fill:#7ad2f6;}.cls-108{fill:#87d6f7;}.cls-109{fill:#50b4e6;}.cls-110{fill:#0d66b2;}.cls-111{fill:#a9e0f9;}.cls-112{fill:#a0ddf9;}.cls-113{fill:#96daf8;}.cls-114{fill:#b5e4fa;}</style></defs><title>sbgn</title><path class="cls-1" d="M395.11,274.74c0,2-.54,2.51-2.45,2.37-2.48-.19-5.4.71-7.36-.33s-2.94-3.85-4.29-5.93c-18.38-28.28-37.25-56.25-55.27-84.77-3.91-6.19-7.58-12.52-11.2-18.87-.05-.47-.19-.85-.8-.9.06,1.05-.22,2.07.33,3,1,35,.46,70,.61,105,0,2.76,0,2.76-2.77,2.76-2.22,0-4.45,0-6.67,0-1,0-1.37-.28-1.25-1.25a8.49,8.49,0,0,0,0-1q0-62,0-124c0-1.67.24-2.42,2.14-2.23a40.88,40.88,0,0,0,6.26,0A2.6,2.6,0,0,1,315,150q18.3,27.78,36.66,55.5c10,15.08,20,30.1,29.06,45.76,1.31,2.27,2.58,4.55,3.88,6.83,0,.49.31.73.7,1-.07-1.47.25-2.91-.26-4.3-1.45-34.79-.55-69.59-.83-104.39,0-1.44.42-1.83,1.81-1.77,2.49.11,5,.12,7.48,0,1.41-.07,1.8.47,1.61,1.72a4.14,4.14,0,0,0,0,.61Q395.06,212.83,395.11,274.74Z"/><path class="cls-1" d="M281.35,269.12a2.34,2.34,0,0,1-1.73,2.66,101.06,101.06,0,0,1-43.16,6.2c-12.39-.92-23.66-4.71-33.54-12.35-10.62-8.21-16.8-19.23-19.95-32-3.89-15.85-3.7-31.64,2.33-46.94,8.12-20.61,23.47-33,45-37.55a79.66,79.66,0,0,1,44.88,3.17c2.84,1.05,2.83,1.1,1.77,4-.67,1.82-1.43,3.62-2,5.47-.35,1.09-.75,1.11-1.72.69-16.44-7.07-33.16-7.18-49.76-1.08-14.39,5.28-23.91,15.81-28.51,30.34-5,16-4.69,32,1.68,47.57,6.5,15.87,18.83,25,35.52,28.11a76.46,76.46,0,0,0,35.16-1.52c3.15-.88,3.12-1,3.12-4.21,0-12.59,0-25.18,0-37.77,0-1.64-.33-2.15-2.06-2.13-8.49.1-17,0-25.48.1-1.74,0-2.18-.49-2.06-2.13a54.54,54.54,0,0,0,0-5.86c0-1,.1-1.43,1.27-1.43q18.91.06,37.82,0c1.57,0,1.32.88,1.32,1.8v27.68C281.32,250.94,281.29,260,281.35,269.12Z"/><path class="cls-2" d="M63.74,205.2l1.22,0c.79.35,1.65,0,2.44.23a3,3,0,0,1,1.37,1.44,20,20,0,0,0,13.72,9.52c8.56,1.58,17.23-1.1,22.55-9.53,4.64-7.37,4-16.41-1.6-23.37A20.86,20.86,0,0,0,94,176.86c-2.78-1-2.78-1-2.37-4.06,0-.69-.12-1.43.4-2a5.66,5.66,0,0,0,2.8,1.79A29.37,29.37,0,0,1,105,178.4a3.71,3.71,0,0,1,1.06,1.88,3.75,3.75,0,0,1,.15.55,10.89,10.89,0,0,0,.47,1.87,11.67,11.67,0,0,0,1,2.44c.07.16.14.33.2.49a8.88,8.88,0,0,0,1.2,2.28c.17.28.32.57.5.85s.28.39.4.59.33.54.52.8l.6.82a5.71,5.71,0,0,1,1.09,1.65,25.23,25.23,0,0,1-21,28.32c-11,1.89-22.57-3.73-27.14-13.31C63.78,206.88,63.13,206.14,63.74,205.2Z"/><path class="cls-3" d="M41.45,211.38c-2.06-1.23-3.41-3.14-4.84-5,.29-2-.43-4-.68-5.93A43.2,43.2,0,0,1,38.35,181c5.69-16.51,17.2-27.21,33.81-32.52,1.1-.36,2.27-.17,3.31-.7,2.25.15,4.56.12,6.46,1.65-.13,1.54-1.44,1.45-2.4,1.6A44.72,44.72,0,0,0,66.65,155C54.19,161,45.83,170.46,41.82,183.69A43.55,43.55,0,0,0,41.54,208C41.83,209.08,42.48,210.27,41.45,211.38Z"/><path class="cls-4" d="M56.86,203.13l3.64,1.66a4.42,4.42,0,0,1,1.11,1.65c5.08,10.83,13.63,16.36,25.6,16.34,11.36,0,19.43-5.56,24.54-15.46a23.86,23.86,0,0,0,2.42-12.53c.42-.54.89-.33,1.36-.08.7.52,1.26,1.21,2,1.68a2.15,2.15,0,0,1,.76,1,29.73,29.73,0,0,1-3.44,12.94c-5.72,10.5-15,15.56-26.67,16.83-3,.33-5.88-.58-8.78-1.15-1.18-.24-2.31-.79-3.56-.53l-5.66-2.77a75.72,75.72,0,0,1-7.27-6.94,26,26,0,0,1-6.17-11.62A1.14,1.14,0,0,1,56.86,203.13Z"/><path class="cls-5" d="M75.85,225.43c.4-1,1.12-.64,1.85-.48,2.81.62,5.58,1.67,8.46,1.6,10.59-.25,19.43-4.36,26-12.78,3.73-4.84,5.1-10.68,5.83-16.66.49-.28.92,0,1.36.12.61.3,1.23.57,1.85.84a1.81,1.81,0,0,1,1.13,2.28c-1.72,11.4-7.46,20.14-17.48,25.92A35,35,0,0,1,84.5,231a8.07,8.07,0,0,0-2.15.45A32.25,32.25,0,0,0,75.85,225.43Z"/><path class="cls-6" d="M110.72,191l-.45-.79a28.37,28.37,0,0,1,5-8.95c.57-.65,1.12-1.31,1.63-2a2.49,2.49,0,0,1,.44-.42c4.74-4.13,10-7.11,16.38-7.94a39.5,39.5,0,0,1,11.79.47c.31-.22.19-.49.06-.76s-.51-.81-.78-1.2-.61-.82-.93-1.21a1.59,1.59,0,0,1-.29-1c-.06-1.65-1.14-2.84-1.92-4.14A63.27,63.27,0,0,0,131,150.4c-.6-.58-1.65-1.06-1.18-2.26,0,0,.11,0,.16,0a.76.76,0,0,1,.18.09c1.66.85,3.67.54,5.27,1.61,1.53,1.85,2.95,3.8,4.54,5.61,4.65,5.28,7.68,11.49,10.34,17.9a54.86,54.86,0,0,1,3.94,17.84c.13,2,.91,3.93.69,6-1.07,10.06-2.78,20-7.6,29a4.11,4.11,0,0,1-1.9,2.26,1.3,1.3,0,0,1-.65,0,2.71,2.71,0,0,1-1.51-2,1.19,1.19,0,0,1,.24-.62c2.63-3.66,3.93-7.93,5.24-12.14a58.23,58.23,0,0,0,1.68-27.25c-.34-2-.53-4-.83-5.91-.15-.48-.26-1-.41-1.47a11.2,11.2,0,0,1-.23-1.41,9.38,9.38,0,0,0-.3-1.07c-.13-.46-.33-.89-.48-1.34A1.67,1.67,0,0,0,147,174c-10.27-2.71-19.64-1.19-27.75,6a26.59,26.59,0,0,0-6.4,9C112.38,189.86,112.17,191.07,110.72,191Z"/><path class="cls-7" d="M51.88,153c3.61-2.41,7.7-3.49,11.86-4.39,1.47-.32,3-.52,4.44-.77.44,1.48-.88,1.7-1.67,2-4.93,1.7-9.07,4.72-13,7.94A49.8,49.8,0,0,0,35.94,187.5c-.8,4-.69,8-.81,12,0,.88.48,2.43-1.47,2.08a23.6,23.6,0,0,1-3.07-9.37,58.87,58.87,0,0,1,4.6-17.86c3.67-7.94,8.6-14.88,15.59-20.25C51.2,153.8,51.69,153.53,51.88,153Z"/><path class="cls-2" d="M114.31,194.66c.85,2.39.44,4.79-.07,7.13A27.63,27.63,0,0,1,91.85,223c-9.86,1.51-18.36-1.15-25.38-8.12a22,22,0,0,1-6-10.11l3.24.41a22.24,22.24,0,0,0,10.37,12.07,25.26,25.26,0,0,0,29.28-2.59c6.92-5.93,9-13.68,8.48-22.41a.57.57,0,0,1,.46-.14,3.25,3.25,0,0,1,1,.75c.25.23.48.47.7.71a1.88,1.88,0,0,1,.42.63A.43.43,0,0,1,114.31,194.66Z"/><path class="cls-8" d="M82.35,231.44c.26-1.12,1.11-1.25,2-1.12a31,31,0,0,0,16.09-2.53,34.11,34.11,0,0,0,19.46-20.09,53.29,53.29,0,0,0,2-8c.22-1.06-.82-.89-1.12-1.41a2.67,2.67,0,0,1-.09-2c1.63-6.57,5.52-11.24,12-13.24a16.68,16.68,0,0,1,16.78,3.53,1.24,1.24,0,0,1,.23.32,2.85,2.85,0,0,1-.45,2.82.65.65,0,0,1-.58.17c-4.2-4.38-9.28-5.85-15-4.08-5.52,1.68-8.82,5.56-10.14,11.22-.37,1.57.44,2.32,1.21,3.27A34.44,34.44,0,0,1,117,219.11c-7.78,9.6-18.05,14.13-30.29,14.5a26,26,0,0,0-2.8.3A8.2,8.2,0,0,1,82.35,231.44Z"/><path class="cls-9" d="M124.91,277.15a16.56,16.56,0,0,1-7.38-.07c-.38-.4-1.4.13-1.35-.83,0-.72.75-.91,1.3-1.12a90.11,90.11,0,0,0,16.25-8.07,84.06,84.06,0,0,0,25.1-24.23c.68-1,1.41-2,2.08-3,.35-.52.68-1.28,1.56-.73a20.51,20.51,0,0,1-1.63,8.92c-.74-.16-.88.51-1.17.9a90.21,90.21,0,0,1-33.33,27C125.82,276.19,124.79,276.05,124.91,277.15Z"/><path class="cls-10" d="M145,228.24c.39-.36.92-.64,1.15-1.08a72.32,72.32,0,0,0,5.05-12.45,84.18,84.18,0,0,0,2.47-14c1.15-9.08-.7-17.58-3.58-26a61.89,61.89,0,0,0-7.72-15.21c-1.89-2.75-4.16-5.24-6.24-7.85-.41-.53-1.26-.91-.72-1.82,1.17.61,2.52.85,3.58,1.71a66.83,66.83,0,0,1,14.66,26.18,65.81,65.81,0,0,1,1.75,29.13.57.57,0,0,0,.14.37c-1.05,2.63-.84,5.38-.82,8.11-1,5-3.18,9.45-5.55,13.86-.6,1.1-1.06,2.55-2.79,2.48-.68-.36-.89-1.09-1.3-1.67A1.46,1.46,0,0,1,145,228.24Z"/><path class="cls-11" d="M47.94,215.76a5.43,5.43,0,0,1-2.87-1.65c-.93-3.64-2.41-7.13-3-10.88a42.5,42.5,0,0,1,5.24-28.55c7.06-12.09,17.72-19.24,31.4-22a60.83,60.83,0,0,1,8.84-.75l1.29,1.44c-.06,1.66-1.37,1.37-2.35,1.44A54.93,54.93,0,0,0,75,156.62a44,44,0,0,0-15.76,8.29c-1.09.88-2.43,1.48-3.16,2.76a36.16,36.16,0,0,0-6.87,9.24,41.89,41.89,0,0,0-4.68,14.86c-1,7.46.66,14.51,3.41,21.38C48.27,214,48.76,214.89,47.94,215.76Z"/><path class="cls-12" d="M36.62,254.52A8.93,8.93,0,0,1,35,251.25c-.42-.91.1-1.09.83-1a3.3,3.3,0,0,1,1.73,1,74.43,74.43,0,0,0,33.68,16.54,50,50,0,0,0,8.15,1.16,86.35,86.35,0,0,0,14.65.05,75.13,75.13,0,0,0,14.38-2.65c4.08-1.1,7.86-3.07,11.93-4.19a3.76,3.76,0,0,1,2.72.24c.49,1-.52,1.07-1,1.35-3.63,2.1-7.63,3.35-11.56,4.72C105.81,270.09,101,271.29,96,271c1,.43,2.54-.81,3.35.83l-8.08,0a2.45,2.45,0,0,0-1.38-.22c-11.72,1.1-22.87-1.31-33.59-5.78a75.51,75.51,0,0,1-17.63-10.1A5,5,0,0,0,36.62,254.52Z"/><path class="cls-13" d="M84,233.91c.3-1.32,1.38-.82,2.14-.83a39.71,39.71,0,0,0,18.18-4.3c10.88-5.64,17.39-14.51,19.73-26.49.13-.65.28-1.3.42-1.95a1.39,1.39,0,0,1,.87-.45,1.91,1.91,0,0,1,1.75.77c.55,1.49,0,2.93-.32,4.35a37,37,0,0,1-5.89,13.39c-.7,1-1.38,2-2,3a6.36,6.36,0,0,1-2.28,1.58,22.93,22.93,0,0,0-6.85,5.45c-1.17,1-1.8,2.5-3.31,3.09a51.39,51.39,0,0,1-14.85,4.37c-2.14.24-4.32-.09-6.43.48A7.34,7.34,0,0,1,84,233.91Z"/><path class="cls-14" d="M33.66,201.61c1.32-.24,1-1.3.93-2.09a51.36,51.36,0,0,1,2-17.26,52,52,0,0,1,11.21-20c4.12-4.6,9.17-8,14.34-11.22a11.06,11.06,0,0,1,2.94-1.28c1.17-.33,2.51-.57,3.07-1.94a16.76,16.76,0,0,1,7.29,0c-.4,1-1.34.68-2.08.9a53.79,53.79,0,0,0-19.58,10.35,51.77,51.77,0,0,0-12.19,15.3c-2.88,5.26-4.18,11.09-5,17a34,34,0,0,0,.72,13.69c.18.65.13,1.23-.73,1.33A18.47,18.47,0,0,1,33.66,201.61Z"/><path class="cls-15" d="M91.62,172.8c-.45,2.16.68,3,2.62,3.61,9.31,3.06,15.67,12.66,14.32,22.24a21.26,21.26,0,0,1-20.71,18.69c-7.44.3-13.32-2.58-18.11-8a27.32,27.32,0,0,1-2.37-3.72c.46-.44,1.12,0,1.6-.36h.43c1.33,1.41,2.36,3.06,3.76,4.43,7.76,7.6,20.71,7.52,28.06-.5,9.54-10.41,5.31-25.71-7.27-30.59-1-.38-2.13-.41-2.86-1.35a2.8,2.8,0,0,1,.12-1.57C91.32,174.7,91,173.68,91.62,172.8Z"/><path class="cls-16" d="M160.77,228.21a6.14,6.14,0,0,1,.85,2.83c-1.45.84-1.91,2.41-2.64,3.73a80.38,80.38,0,0,1-34.59,32.9,90.73,90.73,0,0,1-12.91,5.21,22.58,22.58,0,0,1-5.32,1.1,4.93,4.93,0,0,1-2-.86c-.56-1.41.58-1.62,1.42-1.85q3.48-1,7-2c5.82-1.76,11.13-4.61,16.39-7.56a5.77,5.77,0,0,0,1.1-.87,4.44,4.44,0,0,1,.7-.53,36.69,36.69,0,0,0,4.62-2.49,9.25,9.25,0,0,0,1.36-.79c.34-.26.66-.55,1-.81a11.19,11.19,0,0,0,1.36-1.22,12.45,12.45,0,0,0,2-2,32.11,32.11,0,0,1,2.17-2.76,3,3,0,0,1,.47-.32c1.63-.8,2.6-2.32,3.78-3.59A66.77,66.77,0,0,0,158.48,230a7.33,7.33,0,0,1,1.19-1.87C160.06,227.66,160.47,227.6,160.77,228.21Z"/><path class="cls-17" d="M41.45,211.38c.29-2.36-.93-4.43-1.3-6.67-2.2-13.47.6-25.67,9-36.52,7.21-9.28,16.72-14.83,28.09-17.41,1.57-.36,3.39.12,4.67-1.32a12,12,0,0,1,3.63,1.24c-.06,1.26-1.06,1.23-1.89,1.29a47.82,47.82,0,0,0-15.38,3.83,45.23,45.23,0,0,0-19.53,16.36,41.14,41.14,0,0,0-6.95,18.73,43.13,43.13,0,0,0,2.09,19.85c.27.73,1,1.79-.51,2.17A4.28,4.28,0,0,1,41.45,211.38Z"/><path class="cls-18" d="M162.47,239.12c-1.74,1-2.38,3-3.46,4.5a87,87,0,0,1-41.48,32c-1.72.63-.77,1,0,1.43a12.1,12.1,0,0,1-4.45-.82c-1.36-1.21-.12-1.55.7-1.86,2.26-.86,4.53-1.7,6.75-2.66a83.24,83.24,0,0,0,38.88-33.31c.75-1.22,1.1-2.8,2.66-3.41C162.93,236.32,162.56,237.73,162.47,239.12Z"/><path class="cls-19" d="M47.59,191.38a24.43,24.43,0,0,0,4.84,8.51,10.81,10.81,0,0,1,.62,3.13,34.42,34.42,0,0,0,6.72,14.24c.64.84,1.8,1.57,1.12,2.94a28.1,28.1,0,0,1-8.56-2.45,7.15,7.15,0,0,0-1.17-2.95,37.57,37.57,0,0,1-4.56-20.89A3.08,3.08,0,0,1,47.59,191.38Z"/><path class="cls-20" d="M76.68,261.34l3.95-2A4,4,0,0,1,83,259a68.42,68.42,0,0,0,21.59-2.39,6,6,0,0,0,1.85-.78,5.59,5.59,0,0,0,1.14-2.75A26.69,26.69,0,0,1,145.73,237c.94.5,2,1,1.51,2.43-.76.65-1.39.09-2-.23a25.76,25.76,0,0,0-11.36-3.07,24,24,0,0,0-14.78,4.41A22.79,22.79,0,0,0,109.39,256a4.6,4.6,0,0,1-.94,2.62,10.61,10.61,0,0,1-3.74,1.44,76.43,76.43,0,0,1-19.34,2.35c-2.42-.06-4.81-.51-7.24-.46A1.73,1.73,0,0,1,76.68,261.34Z"/><path class="cls-21" d="M47.59,191.38a35.48,35.48,0,0,0,4.72,24.22c.31.53,1.77,1.44,0,2.15a12.06,12.06,0,0,1-4.39-2c.17-2.07-1.15-3.68-1.77-5.5-2.88-8.52-3.54-17-.7-25.71.9-2.73,1.64-5.51,3.73-7.64A24.68,24.68,0,0,0,47.59,191.38Z"/><path class="cls-22" d="M71,205.15c.62-.54,1.37-.32,2.07-.39l.28.06c1.46.93,2.11,2.73,3.74,3.48a15.33,15.33,0,0,0,16.13,2.1c5.76-2.38,9.18-7,9.54-13.14s-2.35-11.31-8.1-14.43c-1.17-.63-2.53-.94-3.51-1.93a3.62,3.62,0,0,1,0-1.57c1-.86,1.94-.33,2.84,0,11.82,4.71,15.44,19.72,6.86,29A18.88,18.88,0,0,1,74,209.5,8.48,8.48,0,0,1,71,205.15Z"/><path class="cls-23" d="M155.53,207.19c-.72-1-.44-2.11-.33-3.12a65.79,65.79,0,0,0-15.43-50.8,2.25,2.25,0,0,1-.79-1.76,9.87,9.87,0,0,1,4.7,2.37c-.1,1.06.88,1.45,1.36,2.13a69,69,0,0,1,11.45,25.38,75.44,75.44,0,0,1,1.68,18.22c0,1.48-.48,2.89-.59,4.36S155.75,205.82,155.53,207.19Z"/><path class="cls-24" d="M156.38,219.73a8.15,8.15,0,0,1,1.54,2.43,88.77,88.77,0,0,1-7.25,14.08,12.4,12.4,0,0,1-1.45,1.92c-.51.52-1,1.15-1.88.52a9.5,9.5,0,0,1-.37-1.18c-.21-.34.41-.85-.34-1.13-4.34-1.62-8.69-3.23-13.41-3.14A25,25,0,0,0,121,236.17c-3.77,2.1-7.27,4.43-9.79,8.1a25.05,25.05,0,0,0-4.25,9c-.13.66-.41,1.3-1.24,1.38-.88-.26-1.07-.95-1.08-1.75a29.39,29.39,0,0,1,12.65-17.25A30.62,30.62,0,0,1,132.5,231a25.3,25.3,0,0,1,10.07,1.63c1.3.48,2.55,1.22,4,1.13,1.45.16,2-.92,2.5-1.92a120.94,120.94,0,0,0,5.31-11C154.7,220.08,154.85,218.48,156.38,219.73Z"/><path class="cls-17" d="M43.39,212.93c.6-.36.5-.84.27-1.39-2.7-6.36-3.11-13.09-2.48-19.78a42,42,0,0,1,9.37-22.94,46.74,46.74,0,0,1,14.25-12,48.72,48.72,0,0,1,15.62-5.08c1.7-.27,3.67.41,5.14-1.06a4,4,0,0,1,2,1.24c-.44.81-1.22.7-2,.72a43.87,43.87,0,0,0-27.7,10.4,42.42,42.42,0,0,0-14.57,23.08A40.91,40.91,0,0,0,45,211.53c.31.77,1.08,1.7.07,2.58C44.26,214.07,43.89,213.41,43.39,212.93Z"/><path class="cls-5" d="M60.89,220.2c-1-2.66-3.11-4.58-4.53-7a36,36,0,0,1-4.16-11.78,4.49,4.49,0,0,1,.23-1.55l4.43,3.24a47,47,0,0,0,4.07,9.15c1.93,3.07,4.73,5.23,7.18,7.76a6.89,6.89,0,0,1,2.08,2.62Z"/><path class="cls-25" d="M91.26,179.32v1.62c1.13,1.4,2.89,1.86,4.31,2.84a18.62,18.62,0,0,1,5.39,5.79c2.39,5.69,2,11.09-1.73,16.13a2.78,2.78,0,0,1-.41.43,5,5,0,0,0-1.8,1.78,3,3,0,0,1-.7.59c-5,3.43-10.35,3.75-15.93,1.66a2.78,2.78,0,0,1-.56-.24A19,19,0,0,1,75,206.1a7,7,0,0,0-2-1.3l0,0a7.1,7.1,0,0,1,2.82-.8c.92-.48,1.37.28,1.83.79,4.47,4.89,13,4.72,17.82.56a12,12,0,0,0,2.15-15.41,13.66,13.66,0,0,0-4.82-4.49,4,4,0,0,1-2-1.64c.17-2.7-.4-5.44.36-8.12l.06,1.65a1.68,1.68,0,0,1,.4.85A1.49,1.49,0,0,1,91.26,179.32Z"/><path class="cls-26" d="M51.88,153c.61.9-.35,1.2-.74,1.48A46.86,46.86,0,0,0,40.58,165.9a50.81,50.81,0,0,0-8.83,22.39c-.19,1.34-.07,2.85-1.16,4a29.55,29.55,0,0,1,1.06-14.72,41,41,0,0,1,17.91-23.34C50.29,153.72,51.11,153.38,51.88,153Z"/><path class="cls-27" d="M59.45,258.86a38.49,38.49,0,0,0,8.75,3.23c1.14.89,2.57.69,3.86,1a61.62,61.62,0,0,0,14,1.7,71.53,71.53,0,0,0,24.54-4.22,4.89,4.89,0,0,1,1.55-.42c.48.05.91.16,1.06.7-.27,1.15-1.24,1.53-2.2,1.83a86.6,86.6,0,0,1-18.28,3.8,68.84,68.84,0,0,1-17.46-.67,73.05,73.05,0,0,1-26.87-9.94,73.46,73.46,0,0,1-15-12.49c-.52-.55-.85-1.21-1.33-1.77a5.81,5.81,0,0,1-.1-1.86c1.11-.81,1.57.26,2,.82,6.59,7.76,14.77,13.38,23.91,17.72A9.62,9.62,0,0,0,59.45,258.86Z"/><path class="cls-28" d="M157.58,204a1.45,1.45,0,0,1-.38-1.49,52.79,52.79,0,0,0-.51-17.38,66.44,66.44,0,0,0-4.49-15.36A70.44,70.44,0,0,0,143.58,155c-.32-.42-.87-.85.1-1.15,1.47,1.14,3.36,1.69,4.52,3.24,1.43,3,3.29,5.69,4.69,8.68,4.37,9.29,7.1,18.95,6.91,29.32a16.88,16.88,0,0,0,.21,4.81A9.38,9.38,0,0,1,157.58,204Z"/><path class="cls-29" d="M56.07,167.67c.08-1.47,1.45-1.8,2.3-2.59,6.24-5.8,13.81-8.82,22.05-10.31a52.25,52.25,0,0,1,6.4-.48c.82,0,1.64,0,2.05-.91,1.27,1.13,1.3,2.61,1.16,4.13a2.39,2.39,0,0,1-1.87.59c-5.66-.42-11,.92-16.33,2.63A33.13,33.13,0,0,0,56.07,167.67Z"/><path class="cls-30" d="M90.85,183.77c4,1.84,7.23,4.31,8.61,8.7a12.39,12.39,0,0,1-3,12.8,10.8,10.8,0,0,1-7.87,3.54,37.75,37.75,0,0,1-5.22-.17c-2.63-.4-4.61-2-6.41-3.89-.32-.33-.52-.78-1.07-.79a4.39,4.39,0,0,1,2-.8c1.18-.56,1.69.52,2.38,1,4.06,3,9.85,3,13.48-.12,5.39-4.64,4.83-12.32-1.21-16.57-1-.73-2.3-1.31-1.71-3Z"/><path class="cls-31" d="M158.36,254a39.87,39.87,0,0,1-19.55,19.23c-2,.94-4.16,1.56-6.24,2.33-.59.23-1.24.42-1.49-.39s.37-1.22,1-1.57A115.06,115.06,0,0,0,142,267a76.59,76.59,0,0,0,12.59-11.27,10.19,10.19,0,0,1,2-2C157.18,253.44,157.87,252.9,158.36,254Z"/><path class="cls-32" d="M90.82,184.54c-.09,1.22.71,1.74,1.64,2.28a10.74,10.74,0,0,1,.23,18.68A11.1,11.1,0,0,1,79.17,204c-.39-.37-.69-.81-1.29-.82.62-.77,1.66-.73,2.43-1.22,1-.21,1.61.55,2.29,1,3.18,2.23,8.81,1.21,11.07-2.36,2.43-3.83,1.79-7.83-1.91-10.69-1-.77-2-1.45-1.33-2.93C90.53,186.17,90.19,185.28,90.82,184.54Z"/><path class="cls-33" d="M106.16,274c1.31-1.09,3-.88,4.53-1.36a85.81,85.81,0,0,0,30.54-16.88,78.52,78.52,0,0,0,17.35-21.43c.59-1.05,1.24-2.07,1.76-3.15.42-.88.8-.67,1.28-.12l.33,1.2c-2.27,3-3.74,6.51-5.93,9.57a84.76,84.76,0,0,1-23.57,22.58,82.71,82.71,0,0,1-21.4,9.72,11.35,11.35,0,0,0-2,.93A6,6,0,0,1,106.16,274Z"/><path class="cls-34" d="M90.43,187c-.21,1.12.48,1.69,1.29,2.25,2.89,2,4.51,4.76,3.85,8.25a8.53,8.53,0,0,1-6.88,7.09,8.92,8.92,0,0,1-8.38-2.64l2.43-1.61c.72-.55,1.38-.15,2.07.11,2.53.95,4.74.37,6-1.56,1.43-2.12,1.15-4.13-.9-6.3a2.16,2.16,0,0,1-.76-1.14Z"/><path class="cls-28" d="M32.23,241.55q2.4,2.31,4.79,4.63a68.54,68.54,0,0,0,35.79,18.48A72.8,72.8,0,0,0,89,266.16a75.76,75.76,0,0,0,22.2-4.12,11.1,11.1,0,0,0,1.91-1.1.89.89,0,0,1,.52-.26,2.23,2.23,0,0,1,1.4.53.52.52,0,0,1-.06.82,68.81,68.81,0,0,1-17.26,4.72,72.8,72.8,0,0,1-10.64.84,75.44,75.44,0,0,1-27.57-5.24,77.8,77.8,0,0,1-24-15.34,21.15,21.15,0,0,1-3.24-3.84L32.15,242C32,241.84,32,241.68,32.23,241.55Z"/><path class="cls-35" d="M160,199.93c-.93.36-.8-.3-.8-.83,0-1.95,0-3.9,0-5.85,0-8.91-2.45-17.28-6-25.36a59.52,59.52,0,0,0-4.84-9c-.27-.41-1.32-1-.2-1.73a16.75,16.75,0,0,1,4.47,4.45,74.17,74.17,0,0,1,4.76,10.37c2.11,6.18,3.84,12.43,3.92,19a15.87,15.87,0,0,0,.6,3.71A15.64,15.64,0,0,1,160,199.93Z"/><path class="cls-36" d="M158.36,254c-1.13-.74-1.62.32-2.11.89a83.86,83.86,0,0,1-12.31,11.44,101,101,0,0,1-11.53,7.64c-.43.25-1.13.35-1,1.07s.73.44,1.16.52a21.25,21.25,0,0,1-7.66,1.64l-1.58-.17a6.06,6.06,0,0,1,2.54-1.39,93.44,93.44,0,0,0,28.78-21.26c1.91-2.06,3.53-4.38,5.29-6.57.2-.25.22-.91.78-.48.15.11.08.5.12.76A16.5,16.5,0,0,1,158.36,254Z"/><path class="cls-35" d="M32.24,243.17c1.29.14,1.51,1.43,2.25,2.15a77.08,77.08,0,0,0,27,17.22,74.12,74.12,0,0,0,17.57,4,72.11,72.11,0,0,0,32.84-4,10.19,10.19,0,0,1,3.29-.9,1.15,1.15,0,0,1,1.53-.12.55.55,0,0,1,.09.62,1.47,1.47,0,0,1-.54.38c-4,1.3-7.91,3-12.08,3.86a104.52,104.52,0,0,1-10.7,1.72,3.91,3.91,0,0,1-.68.14c-3.78.09-7.56.08-11.34,0a3.76,3.76,0,0,1-.66-.1A94.12,94.12,0,0,1,67.89,266a72.51,72.51,0,0,1-25.68-12.28A58.69,58.69,0,0,1,33,245.61,5.3,5.3,0,0,1,32.24,243.17Z"/><path class="cls-23" d="M112.28,260.53a71.42,71.42,0,0,1-21,4.66c-7.25.62-14.28-.44-21.32-1.88a2,2,0,0,1-1.73-1.22l5.52,0a9.6,9.6,0,0,1,3.38,0,69.32,69.32,0,0,0,29.83-2.16,11.6,11.6,0,0,1,3.34-.72,3,3,0,0,1,1,.15C111.8,259.6,112.38,259.79,112.28,260.53Z"/><path class="cls-37" d="M36.62,254.52c.3-1.26,1-.38,1.28-.12a48.12,48.12,0,0,0,9.43,6.44c6.51,3.52,13.2,6.64,20.54,8.27,4,.89,8,2,12,2.11,2.88.07,5.83.52,8.73,0,1-.18,2-.5,2.66.7l-3.62,1.25c-17.68.58-33.47-4.92-47.83-15-.49-.34-.88-.86-1.54-.89A7.19,7.19,0,0,1,36.62,254.52Z"/><path class="cls-38" d="M92.85,167.59a12.77,12.77,0,0,1,2-4.85c2.85.12,5.32,1.48,7.85,2.56a10.12,10.12,0,0,1,4.47,2.87,2.37,2.37,0,0,1,0,.92,23.4,23.4,0,0,1-.58,3c-.3.77-.13,1.66-.64,2.37a.65.65,0,0,1-.58.15,34.69,34.69,0,0,0-11.25-5.51C93.44,168.89,92.41,168.82,92.85,167.59Z"/><path class="cls-21" d="M85.12,236.41c.13-.92.81-.95,1.51-.92a40.8,40.8,0,0,0,18.68-4.17,5.55,5.55,0,0,1,1.36-.26c.37.51.09,1-.13,1.42-.78,1.17-1.16,2.59-2.22,3.6-1.63,1.28-3.66,1.58-5.57,2.14a34.53,34.53,0,0,1-9.08,1.47,4.84,4.84,0,0,0-3.31,1.12Z"/><path class="cls-39" d="M162,194.69c-.78.32-.59-.26-.75-.69-.82-2.36-.34-4.82-.68-7.23a73.62,73.62,0,0,0-7.37-23.24c-.3-.57-1.09-1.13-.48-2a37.59,37.59,0,0,1,10,20.59A28.11,28.11,0,0,1,162,194.69Z"/><path class="cls-40" d="M162.07,235a98,98,0,0,1-9.85,14.17,89.33,89.33,0,0,1-12.8,12.17A88.8,88.8,0,0,1,114,274.85c-.64.22-1.63.28-.91,1.41a4.73,4.73,0,0,1-2.45-.7c-.45-1.45.71-1.45,1.55-1.72a87.89,87.89,0,0,0,18.33-8.2A84.46,84.46,0,0,0,149,250.52a78.58,78.58,0,0,0,10.73-14.75c.52-.93.67-2.48,2.36-2.31Z"/><path class="cls-41" d="M59.45,258.86c-2.35,0-4.19-1.34-6.12-2.35A72,72,0,0,1,35.45,243c-1.12-1.14-1.77-2.72-3.27-3.5-.25,0-.25-.29-.39-.41L31.74,238a.79.79,0,0,1-.13-.38c.05-.63-.38-1.49.35-1.84s1.34.37,1.8.94a65.15,65.15,0,0,0,9.14,9.35c2.84,2.38,6,4.31,8.91,6.56.91.71,1.61,1.62,2.56,2.26Z"/><path class="cls-42" d="M91.26,178.11c0-.27,0-.54,0-.81,7.8,1.36,14.17,8.24,15.4,16a19.57,19.57,0,0,1-16.84,22.27c-7.88,1-14.36-1.87-19.36-8a4.87,4.87,0,0,1-1.07-2.36l1.21,0a18.64,18.64,0,0,0,11.26,8.57c10.92,3,21.63-3.73,23.41-14.65,1.47-8.94-3.61-17-12.12-19.95C92.48,178.91,91.71,178.8,91.26,178.11Z"/><path class="cls-43" d="M84,274.61a14.23,14.23,0,0,1-4,1.24c-1.46-.57-3-.22-4.53-.43a87.79,87.79,0,0,1-29.44-10c-.7-.38-1.19-1.11-2.07-1.18a16.34,16.34,0,0,1-3.62-4.07c-.39-.81,0-1,.71-.84a5.5,5.5,0,0,1,1.76,1A80.19,80.19,0,0,0,76.49,272.8a56.44,56.44,0,0,0,5.82.54C83,273.37,84.29,273.06,84,274.61Z"/><path class="cls-44" d="M162.07,233.46c-1.26.52-1.58,1.82-2.16,2.83a83.56,83.56,0,0,1-48.09,38.06c-.59.19-1.14.46-1.19,1.21a2,2,0,0,1-1.58-.52c0-1,.8-1.13,1.52-1.33a78.48,78.48,0,0,0,19.7-8.5,84.4,84.4,0,0,0,22.85-20.34A91.57,91.57,0,0,0,160.66,233c.29-.52.44-1.23,1.29-.75Z"/><path class="cls-45" d="M84,274.61c-.16-.86-.83-.71-1.42-.74a79.84,79.84,0,0,1-21.42-4A81.15,81.15,0,0,1,42,260.48c-1.07-.7-1.07-.71-1.77-.31a10.11,10.11,0,0,1-2-2.89c.42-1.23,1-.23,1.31,0A77.83,77.83,0,0,0,71,271.2a56,56,0,0,0,14.37,1.48c.76-.05,1.64-.32,2.27.45A12.2,12.2,0,0,1,84,274.61Z"/><path class="cls-19" d="M107,168.38a36.44,36.44,0,0,0-9.94-4.72c-.76-.26-1.49-.61-2.23-.92a12.05,12.05,0,0,1,2.81-4.51,71,71,0,0,1,8.92,3.74c1.21.68,2.55,1.26,3.11,2.72C109.21,166.21,108.69,167.71,107,168.38Z"/><path class="cls-46" d="M91.26,178.11c7.66,2,12.54,6.83,14.26,14.5a17.29,17.29,0,0,1-3.25,14.65,18.46,18.46,0,0,1-15.83,7.58,18.93,18.93,0,0,1-14.69-7.18,3.24,3.24,0,0,1-1.14-2.48,1.1,1.1,0,0,1,.36,0A20.62,20.62,0,0,0,82,213.36c11.59,3.39,23.23-6,23-16.94-.19-7.76-3.91-13.13-10.84-16.42a5.65,5.65,0,0,0-2.91-.68Z"/><path class="cls-47" d="M109.45,164.78c-2.7-2.85-6.4-3.83-9.86-5.23-.75-.3-1.55-.5-1.93-1.32.7-1.55,2-2.53,3.24-3.64a45,45,0,0,1,10.5,5c.84.53,1.74,1.14,1.25,2.42C111.79,163.17,111.24,164.69,109.45,164.78Z"/><path class="cls-2" d="M92.85,167.59c.15,1.18,1.25.92,1.91,1.09,3.63.94,6.78,2.84,10,4.67a1.29,1.29,0,0,1,.68,1.16c1,1.37.31,3.06.87,4.51a2.46,2.46,0,0,1-.11,1,1,1,0,0,1-.43.51c-.9-2.33-3.08-3.39-4.94-4.62a21.52,21.52,0,0,0-7.13-3.13c-1.09-.24-1.87-.72-1.65-2A6.79,6.79,0,0,1,92.85,167.59Z"/><path class="cls-48" d="M130.13,148.19c-.37,1,.56,1.22,1,1.64,4.05,3.95,8,8,10.89,12.88l2,3.28c.28.46.32.88-.17,1.23a.44.44,0,0,1-.46.12,5.94,5.94,0,0,1-1.37-1.13,5.78,5.78,0,0,0-1.33-1.08,13.09,13.09,0,0,1-1.88-1.34c-.48-.41-1.07-.72-1.22-1.42a3.79,3.79,0,0,0-1.17-2.47,69,69,0,0,0-10.2-10.45c-.65-.56-1.74-.93-1.31-2.17a.94.94,0,0,1,.83.1A10.53,10.53,0,0,1,130.13,148.19Z"/><path class="cls-10" d="M110.68,259.72c-3.15.3-6.06,1.57-9.13,2.22a84.61,84.61,0,0,1-20.94,1.37,50,50,0,0,1-6.89-1.2l3-.77c3.64-.29,7.23.54,10.87.42a71.69,71.69,0,0,0,21.09-3.65c.63-.29,1,.21,1.49.46S110.89,259.15,110.68,259.72Z"/><path class="cls-49" d="M79.11,269.42a66.46,66.46,0,0,1-21.37-5.23A70.1,70.1,0,0,1,36.93,251.4c-.45-.41-1.17-1.68-1.92-.15a6.55,6.55,0,0,1-1.25-3.17c.73-.82.76-.86,1.83,0,2.12,1.75,4.12,3.62,6.33,5.28a73.28,73.28,0,0,0,31.36,13.66,3,3,0,0,1,.92.39,21,21,0,0,0,3.32.66C78.31,268.18,79.17,268.28,79.11,269.42Z"/><path class="cls-50" d="M109,149.41a13.4,13.4,0,0,1,4.85-1.56,60.67,60.67,0,0,1,11.52,8.35c1.4,1.36,1.45,1.76,0,2.6a9.28,9.28,0,0,0-2.4.35,5.22,5.22,0,0,1-2.8-.11c.15-1.66-1.07-2.25-2.2-3.07a53.15,53.15,0,0,0-7.72-4.75C109.66,150.89,108.49,150.71,109,149.41Z"/><path class="cls-51" d="M71.83,160.73c4.56-2.72,9.59-3.33,14.78-3.23,1.14,0,2.28,0,3.42,0-.63,4.09-3.75,6.13-7.53,4.79A28.49,28.49,0,0,0,71.83,160.73Z"/><path class="cls-48" d="M47.12,242.75l1.69,4.45c-1.29.22-2.16-.64-3-1.33a57.37,57.37,0,0,1-9-8.88c-1.54-2-3.61-3.57-4.67-6a7.69,7.69,0,0,1,.87-3.61c1-.17,1.38.67,1.81,1.3,2.18,3.15,4.66,6.07,7.06,9a24.38,24.38,0,0,0,3.6,3.21A5,5,0,0,1,47.12,242.75Z"/><path class="cls-52" d="M43.88,264.24c.53-.75.89-.09,1.32.14,7,3.73,14.21,7,22,8.82,4,.93,7.93,1.93,12.06,1.87.57,0,.95.08.66.78a11.33,11.33,0,0,1-4.07.79c-6.75-.42-13.14-2.41-19.49-4.59-2.76-.95-5-2.92-7.78-3.78A18.89,18.89,0,0,1,43.88,264.24Z"/><path class="cls-17" d="M86.36,240.81c-.07-1.51.86-1.72,2.09-1.7,5.16.11,10-1.3,14.86-2.9a3.92,3.92,0,0,0,1-.7c.6.85,0,1.66-.1,2.48a3.58,3.58,0,0,1-1.09,2,42.15,42.15,0,0,1-10.77,2.49,47.56,47.56,0,0,0-5.57.79A4.7,4.7,0,0,1,86.36,240.81Z"/><path class="cls-53" d="M112.28,161.94c.49-1.3-.63-1.59-1.36-2.05a49.48,49.48,0,0,0-8.62-4.29c-.58-.23-1.15-.37-1.4-1a10.22,10.22,0,0,1,3.3-2.65,66.08,66.08,0,0,1,10,5.22c1,.67,2.36,1.21,2.21,2.83C115.2,161,114.13,162.28,112.28,161.94Z"/><path class="cls-54" d="M89.2,191.44a5.24,5.24,0,0,1-.53,9.79,5.07,5.07,0,0,1-4.26-.35,3.14,3.14,0,0,0-1.67-.55C85.82,198,87.52,194.74,89.2,191.44Z"/><path class="cls-55" d="M86.43,250l.41-3.23a4.49,4.49,0,0,1,3.19-1,43.51,43.51,0,0,0,10.28-1.58,2.83,2.83,0,0,1,2.33,0,2.41,2.41,0,0,1,.51,1.72c0,1-.28,1.94-1.34,2.22C96.78,249.57,91.72,250.83,86.43,250Z"/><path class="cls-56" d="M47.12,242.75c-5.28-3.3-8.64-8.38-12.28-13.21-.56-.73-.87-1.68-1.78-2.11a7.1,7.1,0,0,1,1.13-2.86c.79-.25,1.13.36,1.41.84a69.5,69.5,0,0,0,10.34,13,2.94,2.94,0,0,0,.4.74Z"/><path class="cls-57" d="M107,256.09c-1.44,1.58-3.52,1.5-5.34,1.92a68.89,68.89,0,0,1-17.89,1.75c-1.09,0-2.09-.44-3.16-.47L82,258.13a3.44,3.44,0,0,1,2.55-1c7.12.48,14-.77,20.92-2.42A1.31,1.31,0,0,1,107,256.09Z"/><path class="cls-58" d="M73.85,267.81c-2.33-.81-4.76-1.23-7.14-1.84a75.59,75.59,0,0,1-25.52-12.52c-1.73-1.25-3.17-2.9-4.83-4.25-.72-.59-1.27-1.85-2.6-1.12a4.93,4.93,0,0,1-.78-2.47c.51-.47.71.09,1,.32a74.5,74.5,0,0,0,39,20.65,31.87,31.87,0,0,0,6.74.83,1.22,1.22,0,0,1,1.09.4c-.9,1.41-2.23.6-3.33.55A21.63,21.63,0,0,1,73.85,267.81Z"/><path class="cls-59" d="M160.77,228.21c-1.46-.19-1.46,1.23-1.81,1.92A65.47,65.47,0,0,1,146.62,248c-.9.89-1.53,2-2.85,2.42-.48-.85.15-1.45.46-2.13a20,20,0,0,1,1-2,3.16,3.16,0,0,1,.42-.4,60.16,60.16,0,0,0,9.73-13.49c1-1.76,1.91-3.54,2.76-5.37.28-.61.43-1.51,1.49-1.24A5,5,0,0,1,160.77,228.21Z"/><path class="cls-60" d="M86.43,250a3.37,3.37,0,0,1,2.13-.4c4.24.26,8.29-.93,12.39-1.69,1.08-.2,1.87-.71,1.65-2,.6,0,.72.48.86.93a6.83,6.83,0,0,1,.08,1.75,2.32,2.32,0,0,1-2,2.39c-3.34.79-6.66,1.83-10.13,1.64-2-.11-3.85.66-5.8.22A9.27,9.27,0,0,1,86.43,250Z"/><path class="cls-50" d="M37.41,220.06a3.23,3.23,0,0,1,2.47-.31c.75.21,1.52.34,1.95,1.15a43.28,43.28,0,0,0,5.35,7.68,1.21,1.21,0,0,1,.38,1.26L46.4,234a63.24,63.24,0,0,1-8.57-11.73C37.47,221.57,36.85,220.92,37.41,220.06Z"/><path class="cls-61" d="M32.19,231c2.08,2.38,4.14,4.79,6.24,7.14,3.06,3.42,6.27,6.76,10.38,9A9.82,9.82,0,0,1,50.34,250c-.76.66-1.39.15-2-.29-5.06-3.8-10.45-7.25-13.87-12.83a7.7,7.7,0,0,0-2.71-2.64A6.62,6.62,0,0,1,32.19,231Z"/><path class="cls-12" d="M147.48,238.72c1.7-.45,2.26-2,3-3.28,1.81-3,3.51-6.13,5.18-9.24.73-1.36.61-3.18,2.25-4a6.9,6.9,0,0,1,1.29,2.42,103.28,103.28,0,0,1-8.78,15.31c-.55.76-1.06,1.55-1.68,2.25s-1,1.2-1.85.6a2.1,2.1,0,0,1-.28-1.47,4.81,4.81,0,0,1,.61-1.71C147.29,239.27,147.24,239,147.48,238.72Z"/><path class="cls-28" d="M156.38,219.73c-.94-.5-1.2.22-1.41.84-1.32,3.92-3.38,7.48-5.22,11.15a21.27,21.27,0,0,1-1.37,2.21c-.59.91-1.16.59-1.71-.06l-.2-.17a4.81,4.81,0,0,1-.4-1.79.68.68,0,0,1,.21-.47c1.65-.32,2-1.84,2.67-3a62.38,62.38,0,0,0,4.89-11.36,3.48,3.48,0,0,1,.87-1.77C154.75,217,156,218.2,156.38,219.73Z"/><path class="cls-45" d="M130.49,261c-.89,1.39-2.44,1.87-3.75,2.6a79.3,79.3,0,0,1-20.9,8.18c-.82.19-1.62.28-1.67,1.36a8.5,8.5,0,0,1-2.82-.88c-.25-.27-.89-.13-.82-.7a.89.89,0,0,1,.84-.75,77.72,77.72,0,0,0,14.83-4.29c2.85-1.06,5.92-1.82,8.2-4.08a3.15,3.15,0,0,1,.74-.51,15.81,15.81,0,0,1,1.66-.49c.53-.14,1.08-.22,1.6-.4a10.14,10.14,0,0,1,1.34-.35A.83.83,0,0,1,130.49,261Z"/><path class="cls-62" d="M85.58,252.86a10.12,10.12,0,0,1,4.51-.81c4,.29,7.68-.9,11.48-1.64a1.62,1.62,0,0,0,1.42-2c1.06.15.87,1.14,1.2,1.78a3,3,0,0,1,0,1.4,2.9,2.9,0,0,1-2.35,1.68,68.16,68.16,0,0,1-14.36,1.86c-.92,0-1.91.15-2.66-.62Z"/><path class="cls-63" d="M45.94,238.72a49.27,49.27,0,0,1-9.85-11.6,7.35,7.35,0,0,0-1.9-2.55,4.19,4.19,0,0,1,1.08-2.07c1.21-.52,1.51.51,1.93,1.2a66,66,0,0,0,5.69,8A4.84,4.84,0,0,0,44.11,233C46.55,234.37,46.39,236.48,45.94,238.72Z"/><path class="cls-64" d="M48.58,268.27a4.7,4.7,0,0,1,3.42,1c6.06,3.52,12.82,5,19.55,6.42,1.43.31,3,.06,4.3,1l-1.85.1a8.26,8.26,0,0,1-3.5,0A39.25,39.25,0,0,1,48.58,268.27Z"/><path class="cls-65" d="M45.94,238.72c0-.34,0-.67,0-1a4,4,0,0,0-1.62-3.82c-3.2-2.72-5.44-6.33-7.59-9.94-.37-.62-.54-1.41-1.46-1.46.53-1,.84-2.15,2.14-2.44,1.42,3.65,3.83,6.66,6.12,9.77,1,1.35,2.74,2.19,2.87,4.15l-.06,5.14Z"/><path class="cls-66" d="M31.79,234.27c.88-.44,1.25.19,1.82.71,1.73,1.61,2.87,3.67,4.33,5.47,3.16,3.9,7.65,6.05,11.26,9.31.25.23.75.19,1.14.27.94,2,2.85,3.12,4,4.87-3.92-2.87-8.13-5.32-11.85-8.46a58.75,58.75,0,0,1-9.44-9.8c-.23-.31-.57-.78-1-.5-.65.45-.2,1.25-.37,1.87C31.19,236.76,31.61,235.52,31.79,234.27Z"/><path class="cls-67" d="M105.81,254.88c-3.35,1.49-7,1.69-10.51,2.45-3.71.8-7.43.14-11.14.39a17.86,17.86,0,0,0-2.16.41L83.82,256a5.16,5.16,0,0,1,3.31-.56,50.73,50.73,0,0,0,14.36-1.62,12.21,12.21,0,0,0,2.82-1,.72.72,0,0,1,.68,0,2.29,2.29,0,0,0,.81,1.61c.12.09.17.18.13.26S105.85,254.88,105.81,254.88Z"/><path class="cls-68" d="M102.52,244.37a71.12,71.12,0,0,1-15.68,2.43c0-.81,0-1.62,0-2.42,1.21-1,2.71-.75,4.07-.86a76.25,76.25,0,0,0,9.51-1.66c.77-.17,1.57-.47,2.32.09A1.8,1.8,0,0,1,102.52,244.37Z"/><path class="cls-69" d="M104.6,252.84c0,.95-.72,1.07-1.49,1.3A58.94,58.94,0,0,1,83.82,256l1-1.56a71.05,71.05,0,0,0,16.45-1.71c.95-.19,2.25-.17,2.55-1.57a.69.69,0,0,1,.73.32C104.81,252,105,252.38,104.6,252.84Z"/><path class="cls-3" d="M116.32,159.88c-1.11-2-3.17-2.78-5-3.83s-3.8-1.91-5.69-2.88c-.57-.29-1.33-.39-1.44-1.23a6.58,6.58,0,0,1,2.36-1.4c3.91,1.25,7.22,3.59,10.59,5.8,1,.64,2.29,1.45,1.44,3.1C117.92,160,117.23,160.52,116.32,159.88Z"/><path class="cls-70" d="M124.82,262.52a4.24,4.24,0,0,1-2.23,2,83.53,83.53,0,0,1-16.85,5.74c-1.53.32-2.83,1.36-4.6,1.08-.73-.12.14.59.21.94a3.84,3.84,0,0,1-2-.39C98,271,96.44,271.73,95,271c3.19-.46,6.41-.78,9.56-1.43a90.14,90.14,0,0,0,9.57-3.05,98,98,0,0,0,9.1-3.95A1.07,1.07,0,0,1,124.82,262.52Z"/><path class="cls-71" d="M102.58,242a64.14,64.14,0,0,1-15.76,2.43c0-.38,0-.75-.08-1.12.76-1.5,2.29-1.22,3.48-1.26,4.41-.14,8.58-1.32,12.77-2.47a1.44,1.44,0,0,1,.33,1.45A1.54,1.54,0,0,1,102.58,242Z"/><path class="cls-68" d="M47.56,229.84a42.27,42.27,0,0,1-6.31-9c-.31-.64-1-.61-1.37-1.09a12.36,12.36,0,0,1,8.27,4.43C49.93,226.21,48.55,228,47.56,229.84Z"/><path class="cls-72" d="M125.56,158.35c1.46-.65.24-1.16-.16-1.52a51,51,0,0,0-11-8c-.45-.23-.86-.43-.51-1a4.47,4.47,0,0,1,2.44-.43,51.6,51.6,0,0,1,12.73,9.79c.52.55,1.27,1.13.56,2.07-.73.33-1.45-.07-2.18,0C126.71,159.19,125.83,159.37,125.56,158.35Z"/><path class="cls-37" d="M147.05,242.75c.72,0,1-.5,1.36-1a74.77,74.77,0,0,0,9.68-16.51c.2-.5.38-1.06,1.12-.66a1.28,1.28,0,0,1,.46,1.2c-1.62,2.05-2.41,4.55-3.71,6.77-2.9,5-5.87,9.87-10.13,13.84a1.09,1.09,0,0,1-.25-.81,19.07,19.07,0,0,1,.76-2.47C146.51,242.85,146.71,242.65,147.05,242.75Z"/><path class="cls-73" d="M118.35,159.14c.31-1.76-1.18-2.28-2.22-2.88-2.83-1.65-5.4-3.76-8.59-4.77a1.57,1.57,0,0,1-1-1,6.08,6.08,0,0,1,2.48-1.13c.08,1,.92,1.11,1.55,1.38,3.43,1.44,6.25,3.84,9.37,5.77a12,12,0,0,1,1.45,1.28c-.42.69-1.21.3-1.43.92C119.64,159.75,119,159.57,118.35,159.14Z"/><path class="cls-74" d="M129.67,159.07c-1.06-2.18-3-3.62-4.74-5.09a63.49,63.49,0,0,0-7.49-5.43,6.61,6.61,0,0,1-1.11-1.13,23.46,23.46,0,0,1,9.37,0l-.86.06c-1,.84-2.1.49-3.18.54-.51.08-1-.19-1.67.24a63.91,63.91,0,0,1,9.23,7.5,7.41,7.41,0,0,1,1.56,1.84c.33.66.73,1.39-.33,1.83A.81.81,0,0,1,129.67,159.07Z"/><path class="cls-46" d="M69,205.24c-.44.51-1,.29-1.6.36-.8-.12-1.68.27-2.41-.36Z"/><path class="cls-52" d="M70.5,276.73H74A5.88,5.88,0,0,1,70.5,276.73Z"/><path class="cls-66" d="M31.79,239.12l.39.41c0,.67,0,1.34,0,2,0,.16,0,.32-.08.48A5.17,5.17,0,0,1,31.79,239.12Z"/><path class="cls-75" d="M112.28,192.26h-.2l-.21,0a2.44,2.44,0,0,1-1.15-1.26c1.9-1.32,2.09-3.66,3.22-5.45,4.77-7.58,11.56-11.77,20.35-13.16,4.17-.67,8.07.33,12.09.89,1.44.2,2.19.56,2.31,2-.66.59-1.33.35-2.06.1a24.63,24.63,0,0,0-7.83-1.49,26,26,0,0,0-14,3.56,25.47,25.47,0,0,0-11.13,13.17C113.44,191.32,113.38,192.27,112.28,192.26Z"/><path class="cls-44" d="M139.05,163.54l1.91,1.28c-.09,1-.93.84-1.53.82a35.68,35.68,0,0,0-21.84,6.48,30.09,30.09,0,0,0-8.93,9.48c-.51.86-.89,1.94-2.27,1.29-.14-.66-.81-1.18-.52-1.95a38.09,38.09,0,0,1,18.25-15.27,43.57,43.57,0,0,1,12.39-2.62A4.66,4.66,0,0,1,139.05,163.54Z"/><path class="cls-76" d="M144.22,168l.83,1.19c-.29,1.36-1.29.83-2.06.75-8.23-.91-16,.27-22.86,5.19a29.88,29.88,0,0,0-9.31,10.7c-.45.86-.66,1.95-1.77,2.33-1-.5-1.06-1.6-1.57-2.41a1.87,1.87,0,0,1,.65-.42c1.53-1.73,2.34-3.93,3.76-5.73a2.61,2.61,0,0,1,.53-.66c1.6-1.32,2.94-2.92,4.48-4.32a3.43,3.43,0,0,1,.49-.36,34.33,34.33,0,0,1,16.74-6.89A23.22,23.22,0,0,1,144.22,168Z"/><path class="cls-77" d="M106.39,182.89c.58-.22,1.18-.2,1.58-.95,3.07-5.71,7.78-9.62,13.43-12.71,5.14-2.81,10.66-3.68,16.29-4.34,1.09-.13,2.2.83,3.27-.07a2.29,2.29,0,0,1,1.27,1.16c-.29,1.42-1.47.93-2.27.93a39.37,39.37,0,0,0-10.2,1,32.43,32.43,0,0,0-21.2,16.42c-.24.43-.32,1.09-1.07,1A4.61,4.61,0,0,1,106.39,182.89Z"/><path class="cls-78" d="M109.05,188.19a30.86,30.86,0,0,1,18.07-17.29c5.22-1.94,10.61-2,16-1.4.67.07,1.33.33,1.88-.28l.81,1.22c-.24,1.1-1,.72-1.7.62a34.9,34.9,0,0,0-11.58-.09,27.37,27.37,0,0,0-10.75,4.26,3.5,3.5,0,0,1-.49.37,28.24,28.24,0,0,0-10.28,11.75c-.34.7-.36,1.81-1.61,1.67Z"/><path class="cls-79" d="M139.05,163.54c-8.43.11-16.25,2.17-23.12,7.28a35.44,35.44,0,0,0-8.32,8.61c-.45.67-.79,1.43-1.74,1.51,0-.14-.09-.27-.13-.4l.13-.41a35.62,35.62,0,0,1,12.71-12.4,7.2,7.2,0,0,0,1.64-1.47c3.57-2.46,7.71-3.26,11.85-4a37.15,37.15,0,0,1,4.36-.59,1.18,1.18,0,0,1,1.34.71Z"/><path class="cls-80" d="M107.49,185.35c5.26-10.58,13.81-16.64,25.43-18.61a65,65,0,0,1,7.22-.35c.71,0,1.49.25,2.09-.41a2.72,2.72,0,0,1,1.2,1.22c-.61.86-1.5.42-2.21.36a31.77,31.77,0,0,0-24.09,7.32h0a14.87,14.87,0,0,0-4.45,4.45l-.4.4c-1.76,1.75-2.72,4-4,6.06h-.75C107.48,185.64,107.49,185.5,107.49,185.35Z"/><path class="cls-41" d="M109.45,189c1-1.77,1.94-3.62,3.09-5.31,2.31-3.38,4.86-6.54,8.64-8.42-.77,1.93-2.79,2.6-4.05,4h0a32.93,32.93,0,0,0-6.19,9.23c-.21.46-.33,1.08-1.09.87Z"/><path class="cls-81" d="M109.85,189.43c1.59-2.13,2.45-4.69,4.11-6.8a15.76,15.76,0,0,1,3.17-3.3c-.13,1.34-1.29,2-2.06,2.84-2.11,2.39-2.73,5.65-4.8,8.05C109.93,190.06,109.89,189.74,109.85,189.43Z"/><path class="cls-17" d="M119.16,197.51l-1.22-.4-.81-.42a18.79,18.79,0,0,1,5.41-11.6c6.58-6.91,16.45-7.88,24.38-4.55a6.75,6.75,0,0,1,3.13,2.1,12.89,12.89,0,0,1,0,2.24c-1,.79-1.61-.07-2.3-.48a18.15,18.15,0,0,0-18.66-.52,17.36,17.36,0,0,0-8.5,10.58A6.22,6.22,0,0,1,119.16,197.51Z"/><path class="cls-50" d="M114.31,194.66c0-.13,0-.25,0-.38a17,17,0,0,1,5.3-10.38,34.45,34.45,0,0,1,5.47-4.71,22.65,22.65,0,0,1,11.13-3.64,24,24,0,0,1,10,1.24,7.16,7.16,0,0,1,3.36,2.13c.45.3.38.77.4,1.22a.32.32,0,0,1,0,.52c-1.95.17-3.68-.65-5.38-1.36a17.1,17.1,0,0,0-11.41-.57,22.38,22.38,0,0,0-10.88,6.16,24.35,24.35,0,0,0-5.24,8.69c-.23.68,0,2-1.47,1.51Z"/><path class="cls-82" d="M115.5,195.09c.34-.06.68-.15.76-.55.95-4.9,3.79-8.66,7.45-11.8a21.88,21.88,0,0,1,6.94-3.84,30.85,30.85,0,0,1,6.16-1.41,13,13,0,0,1,6.66.79c2.11.88,4.33,1.39,6.43,2.26a2.34,2.34,0,0,1,0,2c-2.61-1-5-2.58-7.84-3-7.46-1-14.08.5-19.38,6.14a18,18,0,0,0-4.69,9,6,6,0,0,1-.86,2A4.32,4.32,0,0,1,115.5,195.09Z"/><path class="cls-83" d="M119.16,197.51c1.64-7.67,5.64-13.41,13.47-15.71a18.1,18.1,0,0,1,16.21,2.7,6.11,6.11,0,0,0,1.07.48c.48.79.88,1.57-.39,2-2.32-1.34-4.43-3-7.12-3.68-8.7-2-17.31,2.26-20.4,10.56-.55,1.46-.69,3-1.23,4.43A2.24,2.24,0,0,1,119.16,197.51Z"/><path class="cls-84" d="M149.52,187c.62-.59.3-1.35.39-2s0-1.61,0-2.42v-2c0-.14,0-.27,0-.4.05.05.13.09.14.14.11,3.19,1.06,6.24,1.48,9.37a58.11,58.11,0,0,1-.88,18.93,60.38,60.38,0,0,1-6,16.76,1.41,1.41,0,0,1-1.26.86c-1.16-.14-1.38-.89-1.24-1.89a55.74,55.74,0,0,0,6.74-21.55,39.37,39.37,0,0,0-.07-12.21,1,1,0,0,1,.24-.74C149.23,188.87,149.37,187.94,149.52,187Z"/><path class="cls-85" d="M102.58,242l.37-.86a1.51,1.51,0,0,1,.54,1.06.4.4,0,0,1,0,.19c0,.21.1.29.19.16a42.06,42.06,0,0,1,3.38-4.51,33.78,33.78,0,0,1,13-9.23c7.26-3,14.7-2.82,22.22-1.35.8.16,1.47.69,2.28.8l.35,0,.47,1.58c.19,1.53-.93,1-1.49.78-4.14-1.48-8.44-1.49-12.75-1.42-10.68.18-18.59,5.33-24.7,13.72-.76,1-1,2.34-1.75,3.4-.41.62-.86,1.58-1.8.5l-.37-.87c0-.52,0-1-.08-1.56Z"/><path class="cls-31" d="M103,242.33c0-.41,0-.82,0-1.24s0-1,0-1.56c.24-.57.49-1.14.73-1.7a36.86,36.86,0,0,1,16.39-11.89,27.2,27.2,0,0,1,8.22-1.87c1.41-.08,2.72-.59,4.15-.67,2.26-.13,4.36.57,6.55.75a3.57,3.57,0,0,0,2.17-.07.7.7,0,0,1,.94.53l1.27,1.59a2.23,2.23,0,0,1,.05.36c-.33,1.41-1.42.76-2.07.58a32.08,32.08,0,0,0-8.57-.79c-12,.1-21.4,5.12-28.32,14.87C104.13,241.74,103.86,242.44,103,242.33Z"/><path class="cls-86" d="M103,242.33a35.23,35.23,0,0,1,28.26-16.55c3.69-.05,7.38-.11,11,1,.49.16.91.23,1.25-.25a3.12,3.12,0,0,1,1.18,1.65c-1.39.87-2.51-.38-3.74-.59a56.6,56.6,0,0,0-10.72-.49c-8.07.17-14.65,3.76-20.51,8.85a26.39,26.39,0,0,0-5.62,7c-.21.38-.24,1-.86,1C102.78,243.51,103.06,242.9,103,242.33Z"/><path class="cls-87" d="M113.89,193.89l-.82-.8c.11-2.85,1.7-5.13,3.05-7.45,2.08-3.58,5.31-6,8.7-8.31a2.36,2.36,0,0,1,.48-.35c.71-.14,1.23-.7,1.92-.9a24.37,24.37,0,0,1,9.84-2.31c4.18-.11,8.33.47,12,2.73l.4.81c-.42.84-1,.65-1.7.34a23.19,23.19,0,0,0-18.95-.29c-6.64,2.74-11.53,7.42-13.92,14.4C114.67,192.5,114.61,193.36,113.89,193.89Z"/><path class="cls-26" d="M113.89,193.89c1.48-7.3,6.14-12.33,12.26-15.86A22.38,22.38,0,0,1,141,175.39c2.45.39,5.07.34,7.17,2,.45.37.89.08,1.32-.12,0,.54,0,1.07,0,1.61A23.75,23.75,0,0,0,138.6,176a23,23,0,0,0-13.71,4,25.59,25.59,0,0,0-9.07,10.37c-.57,1.27-.6,2.75-1.52,3.88Z"/><path class="cls-56" d="M149.09,176.5a37.68,37.68,0,0,0-9.52-2.28,23.84,23.84,0,0,0-9.65,1.33c-1,.35-2,.63-3.08.95-.45.44-1.1.5-1.62.81a.54.54,0,0,1-.8,0c2.91-2.33,6.39-3.05,10-3.66a25.21,25.21,0,0,1,13.31,1.59,3.36,3.36,0,0,0,1,0C148.82,175.69,149,176.09,149.09,176.5Z"/><path class="cls-81" d="M117.13,179.33c1-1.73,2.9-2.5,4.05-4a30.13,30.13,0,0,1,18.45-5,19.78,19.78,0,0,1,7,1.39c-1.36,1-2.72,0-4-.13-6-.62-11.75-.32-17.31,2.59C122.41,175.63,119.9,177.66,117.13,179.33Z"/><path class="cls-88" d="M117.13,174.88c3.06-3.39,7.05-5.13,11.3-6.48,4.93-1.57,10-1.22,15-1.2l.38,0,.41.81c-.84.6-1.7,0-2.48-.07-8.9-1.07-16.77,1.36-23.85,6.69A2.25,2.25,0,0,1,117.13,174.88Z"/><path class="cls-41" d="M146.66,171.65a62.27,62.27,0,0,0-7.51-1.16,29,29,0,0,0-16.12,4,14.31,14.31,0,0,1-1.85.75c2.08-2.16,4.83-3,7.56-3.94a30.65,30.65,0,0,1,16-.64c.42.09.79.12,1.08-.27Z"/><path class="cls-69" d="M124.42,177.31h.8c-1.59,1.77-3.68,3-5.43,4.6a25.5,25.5,0,0,0-6.38,10.45,6.89,6.89,0,0,1-.34.73l-.79-.83c.86-1.73,1.76-3.45,2.58-5.2a19.59,19.59,0,0,1,7.44-8.33C123,178.27,123.4,177.33,124.42,177.31Z"/><path class="cls-5" d="M125.22,200.33h-.8c-1.89-1-2.14-2-1-5.13,3.63-10.42,15.84-14,24.64-6.94a1.75,1.75,0,0,1,.68,1.58c.35.86.15,1.46-.8,1.73a4.44,4.44,0,0,1-1.65-1.12,12.93,12.93,0,0,0-15.58-.68,10.89,10.89,0,0,0-4.47,6.7C125.85,197.76,126.09,199.19,125.22,200.33Z"/><path class="cls-89" d="M147.9,191.48a2.46,2.46,0,0,0,.79-1.63l.39,0c1.39,3.83.77,7.74.54,11.66a56.31,56.31,0,0,1-2.17,11.76,52.37,52.37,0,0,1-4.15,10.4c-.26.49-.52,1-1.16,1l-.75-.39c-.59-.14-1.08-.35-.77-1.11,2.93-4.23,4.4-9.07,5.55-14a48.62,48.62,0,0,0,1.28-16.79A1.17,1.17,0,0,1,147.9,191.48Z"/><path class="cls-90" d="M103,246.8c1.11.57,1.27-.43,1.51-1,2.15-5.4,6.22-9.12,10.85-12.29a26.16,26.16,0,0,1,11.57-4.61,79,79,0,0,1,10-.2,22.19,22.19,0,0,1,7.37,1.48c.38.13,1.07.66,1.21-.34a2.54,2.54,0,0,1,.82,1.62c0,.14,0,.27,0,.41-.86.89-1,.93-2.64.26a28.2,28.2,0,0,0-8.43-1.78,30.33,30.33,0,0,0-15.08,2.72,28.43,28.43,0,0,0-13,11.62,17.84,17.84,0,0,0-2.21,4.27c-.14.52-.29,1.25-1.15,1.13l-.75-1.68C103,247.86,103,247.33,103,246.8Z"/><path class="cls-91" d="M124.82,262.52l-1.62.09h-2.85a1.17,1.17,0,0,1-1.51-.27c-1.31-3.26-.6-6.44,1-9.26a14.42,14.42,0,0,1,9.53-7.47,15.1,15.1,0,0,1,12.31,2.05c.92.62,2.12,1.27,1.76,2.79a8.27,8.27,0,0,1-2,2.75,11.23,11.23,0,0,0-6.44-3.81c-5.91-1.33-12.35,3.7-12.43,9.73,0,1.57.24,2.65,2.08,2.64a.9.9,0,0,1,.66.42Z"/><path class="cls-92" d="M119.13,262.2c.33.38.81.31,1.22.4-5.27,1.88-10.44,4-15.93,5.37-7.77,1.88-15.64,2-23.55,1.84a8.42,8.42,0,0,1-1.76-.39c-1-1.49-2.76-.45-4-1.16-.36-.21-.93,0-1.25-.45,2.29-.23,4.58,1,6.88,0h0a3.3,3.3,0,0,0,2.13.4c2.76,0,5.51,0,8.27,0a3.33,3.33,0,0,0,2.14-.4h0a59.82,59.82,0,0,0,23.06-5.65l.43,0A1.65,1.65,0,0,1,119.13,262.2Z"/><path class="cls-2" d="M147.9,191.48l0,.75a4,4,0,0,1-1.66,2.59,1.07,1.07,0,0,1-.59,0c-1.73-1.34-3.27-2.9-5.49-3.56a8.58,8.58,0,0,0-10.72,7.34,3.66,3.66,0,0,1-.47,2.31,1.68,1.68,0,0,1-1.23.32,1.72,1.72,0,0,1-.87-.44,2.86,2.86,0,0,0-1.62-.41c-.1-6.7,3.31-11.37,9.61-13.09A13.42,13.42,0,0,1,147.9,191.48Z"/><path class="cls-21" d="M126.84,200.74h.81c.68.5,1.34,0,2,0a1.63,1.63,0,0,1,.61.13,1.06,1.06,0,0,1,.46.43c.21,4.12-1.11,7.93-2.74,11.57-1.13,2.52-2,5.3-4.16,7.23-1.78.65-3.45,1.72-5.48,1.31,1.6-3.16,4-5.85,5.37-9.14A37.81,37.81,0,0,0,126.84,200.74Z"/><path class="cls-93" d="M106.2,232.24c.16-.39.32-.79.47-1.18l2.7-3c3.59-2.18,7.08-4.5,11.21-5.68a56.13,56.13,0,0,1,12.46-2,5.42,5.42,0,0,0,1.39-.19,3,3,0,0,1,1.22,0,10.19,10.19,0,0,1,2.26.88c.59.54,1.57.74,1.53,1.8-.5.65-1.18.5-1.85.44a39.21,39.21,0,0,0-19.75,2.89,39.64,39.64,0,0,0-8.61,5.2,9.4,9.4,0,0,1-2.31,1.61C106.22,233.27,105.85,233,106.2,232.24Z"/><path class="cls-94" d="M134.55,220.46c-2.32.89-4.82.65-7.23,1-5.25.85-10.28,2.1-14.67,5.29a4.79,4.79,0,0,1-3.28,1.27,22.61,22.61,0,0,1,6.92-5.52c.68-.4,1.38-.78,2.07-1.16l5.25-1.66a10.82,10.82,0,0,1,3.61-1,16.22,16.22,0,0,1,3,.13c.82.28,1.7.25,2.54.45C133.43,219.64,134.36,219.48,134.55,220.46Z"/><path class="cls-95" d="M125.26,262.17c-3.49-.13-3.12.65-3.31-3.18-.21-4,3.46-8.25,7-9.6A11.16,11.16,0,0,1,140,251c.76.54,1.55,1.11,1.42,2.24a4.59,4.59,0,0,1-2,2c-1-.08-1.65-.81-2.44-1.31a6.79,6.79,0,0,0-7.24-.19,6.22,6.22,0,0,0-3.51,5.66,4.29,4.29,0,0,0,.75,2.44C126.44,262.25,125.83,262.15,125.26,262.17Z"/><path class="cls-83" d="M119.13,262.2l-2.37-.06c0-.12,0-.23-.05-.35a2.81,2.81,0,0,1-.87-2.56c.89-10,7.53-15.84,17.19-16.44a16.14,16.14,0,0,1,10.84,3.79c.56.44,1.24.91.76,1.82-.28.67-.57,1.34-.86,2l-.34,0c-2.43-3.37-5.72-4.57-9.87-4.6a13.56,13.56,0,0,0-7.92,2c-3.26,2.18-6,4.85-6.51,9C118.9,258.66,118.48,260.43,119.13,262.2Z"/><path class="cls-96" d="M126.91,261.79c-.74,0-1.19-.23-1.3-1.14a7.36,7.36,0,0,1,5.51-8.19c3.4-1,5.94.45,8.23,2.73-.51.48-.75,1.25-1.54,1.41-2-1.91-4.23-2.75-6.94-1.73a4.44,4.44,0,0,0-2.35,6.5C128.07,261.84,127.48,261.76,126.91,261.79Z"/><path class="cls-25" d="M128.52,261.37c-.52-.07-1,0-1.25-.73a5.67,5.67,0,0,1,3.25-6.23c3.33-1.21,6.23-.33,7.29,2.19l-.87.67c-1.49-.63-2.77-1.77-4.61-1.43-2.6.48-3.84,2.85-2.58,5.14A1.47,1.47,0,0,1,128.52,261.37Z"/><path class="cls-97" d="M129.75,261c-1.08,0-1.33-.55-1.3-1.51a4.29,4.29,0,0,1,2.89-4c2-.9,4-.19,5.6,1.75a1.71,1.71,0,0,1-1.22.76,2.48,2.48,0,0,1-.91-.36,2.5,2.5,0,0,0-3.11-.07c-1.16.76-1.14,1.81-.76,3l-.45.42Z"/><path class="cls-98" d="M130.94,260.56c-1.5-.74-1-1.81-.33-2.73a3.07,3.07,0,0,1,4-.95,8.42,8.42,0,0,1,1.07,1.15A12.26,12.26,0,0,1,130.94,260.56Z"/><path class="cls-75" d="M147.47,239.53a2.6,2.6,0,0,1-.41,1.61c-1,.63-1.79-.12-2.59-.54-7.9-4.2-15.85-4.26-23.4.53-5.63,3.57-9.64,8.59-10.29,15.62a2.91,2.91,0,0,1-.92,2.16l-1.22-.8a21.53,21.53,0,0,1,3.52-11.25,23,23,0,0,1,8-7.7c5.43-3,11.13-4.36,17.41-3.06a39.54,39.54,0,0,1,9.51,3.42C147.21,239.33,147.34,239.32,147.47,239.53Z"/><path class="cls-99" d="M147.47,239.53h-.4a1.71,1.71,0,0,0-1-1.75c-9.59-5.58-23.07-4-30.85,3.85a25.57,25.57,0,0,0-7.34,12.91,2.48,2.48,0,0,1-.81,1.56l-1.21-1.21c0-.13,0-.27,0-.4,1.32-.95.88-2.58,1.37-3.85a25.34,25.34,0,0,1,10.18-12.85c1.1-.7,1.92-1.92,3.42-1.89a28.91,28.91,0,0,1,17-2.46,32,32,0,0,1,8.15,2.59,3.18,3.18,0,0,1,1.58,1.49c0,.4,0,.81,0,1.21S147.47,239.26,147.47,239.53Z"/><path class="cls-100" d="M96.5,208l.41-.4L98.53,206h0c2.82-2.86,3.74-6.38,3.63-10.27a12.88,12.88,0,0,0-1.61-6.29c-1.8-1.84-3.22-4.05-5.54-5.39-.75-.44-1.49-.85-2.27-1.22s-1.65-.74-1.49-1.88c6.39,1.82,10.27,5.77,11.71,12.17,2,8.65-4,17-12.35,18.72-5,1-10,.63-13.93-3.41,1.35-.32,2.11.92,3.24,1.21C85.75,212.24,91.3,211.93,96.5,208Z"/><path class="cls-100" d="M79.92,209.63c-1.31.22-2.07-1.06-3.24-1.21-1.92-.5-2.46-2.37-3.63-3.62.66,0,1.35-.12,1.85.45A38.71,38.71,0,0,0,79.92,209.63Z"/><path class="cls-12" d="M104.6,252.84l-.38-1.22c.54-3.71,2.46-6.8,4.7-9.65a30.59,30.59,0,0,1,35.87-9.52,3,3,0,0,1,1.87,1.42h0c-.1.86-.57.72-1.14.44a30.11,30.11,0,0,0-12.05-2.78,27.92,27.92,0,0,0-9,1.42A28.51,28.51,0,0,0,108.8,244.8c-1.67,2.49-2.56,5.37-3.81,8.07Z"/><path class="cls-28" d="M147.47,237.51c-6.77-4.42-14.08-4.94-21.74-3.09-1.68.41-3.2,1.33-5,1.47,4.53-3,9.61-3.4,14.82-3.07,3.71.23,7.08,1.72,10.59,2.73C147.69,236,147.43,236.6,147.47,237.51Z"/><path class="cls-100" d="M96.5,208c-3.41,3.52-7.67,4.16-12.21,3.34-1.5-.27-3.26-.29-4.37-1.72,2.23.27,4.29,1.28,6.63,1.26a14.37,14.37,0,0,0,8.48-2.3A6.53,6.53,0,0,1,96.5,208Z"/><path class="cls-100" d="M100.55,189.43c2,2,1.93,4.61,2,7a14.31,14.31,0,0,1-2.72,8.65,1.54,1.54,0,0,1-1.25.86,34.69,34.69,0,0,0,2-3.43,14.73,14.73,0,0,0,.23-12A5.52,5.52,0,0,1,100.55,189.43Z"/><path class="cls-100" d="M98.53,206a1.7,1.7,0,0,1-1.62,1.62A1.7,1.7,0,0,1,98.53,206Z"/><path class="cls-50" d="M146.65,243.16a4,4,0,0,1-.79,2.44,19.42,19.42,0,0,0-18.52-3.72c-3.88,1.1-7.51,3.06-9.8,6.92-1.73,2.92-3.41,5.75-3.69,9.21-.08,1,.49,2-.35,2.9l-.41,0a.9.9,0,0,0-.81-.41l-.82-.79a2,2,0,0,1-.42-1.89c2.33-11.42,9.31-18.77,21.64-19.5A19,19,0,0,1,146.65,243.16Z"/><path class="cls-17" d="M144.63,248.4c-.79-1.82-2.58-2.45-4.14-3.23a16.65,16.65,0,0,0-23.28,9.74c-.7,2.21-1.24,4.52-.5,6.88l-1.56-.06-.44-.41a12.13,12.13,0,0,1,.74-8.23c3.09-7.67,10.21-12,18.48-11.7a18.47,18.47,0,0,1,9.7,2.94c.78.51,1.9.83,1.86,2.12A4,4,0,0,1,144.63,248.4Z"/><path class="cls-82" d="M145.49,246.45c-4.08-3.64-8.83-4.63-14.25-4.44-7.17.25-14.32,6.52-15.91,13.11-.5,2.07-.13,4.16-.62,6.2l-1.21-.41c-.79-7.1,2.39-12.5,7.72-16.64a17.58,17.58,0,0,1,9.35-3.62,20.37,20.37,0,0,1,7.3.35c2.93.84,6.27,1.47,8,4.6l0,.79A2,2,0,0,0,145.49,246.45Z"/><path class="cls-58" d="M116.33,262.16c-.1.94-.93,1.11-1.58,1.35A82.41,82.41,0,0,1,96,268.19a4.06,4.06,0,0,1-2.73-.38c1.11-.9,2.47-.39,3.69-.56a77.73,77.73,0,0,0,18-4.82A7.55,7.55,0,0,1,116.33,262.16Z"/><path class="cls-58" d="M93.27,267.81c-.34.72-1,.81-1.68.81H82.4c-.71,0-1.34-.09-1.67-.81Z"/><path class="cls-62" d="M146.65,243.16c-2.29-.78-4.2-2.34-6.53-3.08-8.37-2.65-15.79-.84-22.14,5a18,18,0,0,0-5.64,10.45c-.24,1.43-1.28,2.69-.88,4.24l-.78,0-.82-.81c.49-4.45,1.42-8.77,4.36-12.33,5.87-7.1,13.16-10.52,22.61-9.28,3.83.5,6.79,2.67,10.23,3.84,0,.54,0,1.08,0,1.61Z"/><path class="cls-86" d="M136.55,162c-3.25.76-6.59,1-9.8,2a22.66,22.66,0,0,0-6.38,2.83,44.81,44.81,0,0,0-10.71,8.43c-.91,1-1.65,2.1-2.5,3.14-.34.42-.5,1.18-1.33.95-.61-1.56-.31-3.21-.42-4.81a2.33,2.33,0,0,1,.33-.14,1,1,0,0,1,.4.43c.15.29.07.65.29.95a39.76,39.76,0,0,1,21.4-14c2.07-.58,4.28-.47,6.29-1.3A2.07,2.07,0,0,1,136.55,162Z"/><path class="cls-101" d="M118.35,159.14a2.46,2.46,0,0,0,1.63-.38l3.14-.07a2.17,2.17,0,0,1,1.73,0c-.11,1-.92,1.19-1.57,1.43a49.16,49.16,0,0,0-14.63,8.81c-1.13,1-1.17.92-1.76,0l.13-.53,2.43-3.6,2.83-2.84c1.53-.33,2.56-1.63,4-2.06Z"/><path class="cls-102" d="M105.83,174.86l-.09-.49a4.24,4.24,0,0,1,.42-2.4,43.24,43.24,0,0,1,17.61-11.72c1.3-.47,2.81-.41,3.89-1.47l2,.29.77.08c.33.2.84,0,1,.52.07,1.19-.92,1.21-1.65,1.37a40.93,40.93,0,0,0-18.93,9.5,26.52,26.52,0,0,0-3.12,3.15C107.27,174.29,106.85,175.09,105.83,174.86Z"/><path class="cls-103" d="M127.66,158.78c.35.67.07,1-.59,1.14a39.73,39.73,0,0,0-19.83,11.68c-.24.26-.48,1-1.08.37.24-1,.48-2,.73-3.06.21.45.41.63.87.19a47.72,47.72,0,0,1,16.42-9.89c.1,0,.17-.18.36-.39l-1.42-.13c.76-.51,1.64-.15,2.44-.34C126.19,158.85,127,158.53,127.66,158.78Z"/><path class="cls-104" d="M106.2,232.24c.14,1,.53.46.88.15a40.34,40.34,0,0,1,14.17-8.09,39.13,39.13,0,0,1,16.61-1.48c.54.06,1,.25,1.51-.17a.42.42,0,0,1,.42-.22,1.14,1.14,0,0,1,.8.94l.8.85c-.36,1.23-1.23.71-2,.57-2.57-.48-5.26-1.33-7.75-.82-3.7.75-7.54.87-11.11,2.33-6.19,2.54-11.74,5.92-15.89,11.3-.21.28-.48.74-.94.23.19-.78.37-1.55.55-2.32C105.05,234.5,105.26,233.15,106.2,232.24Z"/><path class="cls-79" d="M105.83,179.32a60,60,0,0,1,7-7.64,22.77,22.77,0,0,1,7.49-4.88c-1.06,1.65-3,2.22-4.45,3.3a33.85,33.85,0,0,0-8.74,9c-.33.51-.59,1.06-1.31,1.07C105.85,179.86,105.84,179.59,105.83,179.32Z"/><path class="cls-105" d="M136.55,162c-.77-.5-1.42-1.22-2.44-1.23-.73.4-1.09,0-1.34-.62-.21-2.4-2.11-3.69-3.61-5.13a68.17,68.17,0,0,0-6.64-5.59c-.66-.49-1.55-.91-1.34-2l3.66,0a52.76,52.76,0,0,0,4.51,4.22c3,2.29,5.21,5.33,7.61,8.18.51.61,1.78,1.29.81,2.51Z"/><path class="cls-59" d="M146.66,233.87c-11.53-5.31-22.35-4.22-32.47,3.53A27.07,27.07,0,0,0,105,250.25a2.7,2.7,0,0,1-.78,1.37l-.41-.42c0-.37,0-.75-.07-1.13A37.69,37.69,0,0,1,110,239.9a30.44,30.44,0,0,1,12.5-8.42,28.55,28.55,0,0,1,10.41-1.87,27,27,0,0,1,10.62,1.83c.82.36,1.7,1.26,2.75.41C146.92,232.42,146.58,233.19,146.66,233.87Z"/><path class="cls-87" d="M121.18,147.41c2.77,2.39,5.55,4.77,8.31,7.17a20.91,20.91,0,0,1,3.73,4.39c.25.39.52.89-.32,1-.68.53-1.14,0-1.62-.34l-.84-.45c.67-1.11-.25-1.69-.84-2.3a56.63,56.63,0,0,0-8.92-7.5c-.62-.42-1.85-.69-1.64-1.5S120.44,147.56,121.18,147.41Z"/><path class="cls-88" d="M112.68,179.33a6.29,6.29,0,0,1,4.45-4.45A28,28,0,0,1,112.68,179.33Z"/><path class="cls-88" d="M108.23,185.79a11.37,11.37,0,0,1,4-6.06c-1.18,2-2.36,4.07-3.56,6.1C108.68,185.89,108.4,185.81,108.23,185.79Z"/><path class="cls-69" d="M125.22,177.31a2.21,2.21,0,0,1,1.62-.81C126.53,177.23,125.92,177.34,125.22,177.31Z"/><path class="cls-106" d="M140.59,223.37l-.85-.72c-.26-.58.11-1,.36-1.49a51.28,51.28,0,0,0,5.68-20.81c.07-1.14-.15-2.27-.11-3.42a3.25,3.25,0,0,1,.57-2.28c.2-1,1.07-1.62,1.63-2.42.7,2.91.24,5.81.09,8.74a51.2,51.2,0,0,1-3.09,14.61c-.81,2.25-1.81,4.45-2.75,6.66A1.7,1.7,0,0,1,140.59,223.37Z"/><path class="cls-87" d="M146.24,194.65A44.29,44.29,0,0,1,145,209.74c-1.23,4.49-2.32,9.09-5.26,12.91l-.18,0-.19,0-1.72-1.25a49.67,49.67,0,0,0,6.09-24.35,3.08,3.08,0,0,1,.88-1.62,2.21,2.21,0,0,1,1.23-.76Z"/><path class="cls-107" d="M145.85,194.67a1.43,1.43,0,0,1-.8.82,2.19,2.19,0,0,1-1.59-1.14c-1.63-2.52-6.14-2.81-8.48-1.87a7.61,7.61,0,0,0-4.7,7.11c0,.52.25,1.08-.2,1.54h-.4c-.2-.27-.62-.11-.81-.4a9,9,0,0,1,7.66-10.27C140.5,189.81,143.47,191.66,145.85,194.67Z"/><path class="cls-13" d="M128.87,200.74a.87.87,0,0,1,.81.4c-.69-.09-1.46.26-2-.4Z"/><path class="cls-17" d="M127.26,219.27l-3.65.46a38,38,0,0,0,6-13.46c.41-1.68.59-3.41.87-5.12.62-.73,1.57-.43,2.31-.76a3.4,3.4,0,0,1,.64-.09,1.5,1.5,0,0,1,1.17.42c-1,5-1.95,10-4.2,14.63C129.65,216.87,129.2,218.68,127.26,219.27Z"/><path class="cls-108" d="M132.93,200.75c-.73.68-1.63.27-2.45.4l-.4,0a7.77,7.77,0,0,1,3.67-8.69c3.72-1.93,7.64-1.29,10.14,1.68l1.16,1.37-.83,1.16a.36.36,0,0,1-.51,0c-2.14-3.54-5.42-4.53-9.1-2.74a6.73,6.73,0,0,0-3.13,5.3c0,.55.22.88.77,1A1.34,1.34,0,0,1,132.93,200.75Z"/><path class="cls-50" d="M134.55,220.46l-1.68-.71c.73-2.24,1.79-4.34,2.65-6.52,1.73-4.37,2.12-9,3.11-13.54a4.84,4.84,0,0,1,2.59-1.82,1.21,1.21,0,0,1,1.24.11,2.58,2.58,0,0,1,.62,2.06,55.87,55.87,0,0,1-4.17,17.3,12.55,12.55,0,0,1-1.4,2.44c-.43.61-.93,1.19-1.82.78Z"/><path class="cls-72" d="M135.69,220.56c1.74-.49,2.14-2.17,2.7-3.47A44.06,44.06,0,0,0,142,203.9c.17-1.94,1.2-4,.18-6-.16-.26,0-.45.15-.63a3.53,3.53,0,0,1,.57-.45c.28-.16.55-.37.9-.15a2.55,2.55,0,0,0,.39,0,47.39,47.39,0,0,1-5,23.06c-.34.7-.51,1.6-1.53,1.69Z"/><path class="cls-109" d="M139,199.58a52.6,52.6,0,0,1-5,18.81c-.26.54-.49,1.12-1.11,1.36a5.66,5.66,0,0,1-2.48-.37,5.31,5.31,0,0,1,.93-2.61,46.33,46.33,0,0,0,4.19-14.19,3.12,3.12,0,0,1,1.07-2.49C137.33,199.66,138.05,199.11,139,199.58Z"/><path class="cls-71" d="M137,200.34c-1.31,1.25-.88,3-1.19,4.49-1,5.15-2.45,10.12-5.37,14.55l-3.14-.1c2.59-2.79,3.58-6.37,4.77-9.82a26.78,26.78,0,0,0,1.38-6.23,3,3,0,0,1,1.12-2.46,1.88,1.88,0,0,1,1.29-.75A1.15,1.15,0,0,1,137,200.34Z"/><path class="cls-110" d="M131.28,159.6l1.62.34a1.43,1.43,0,0,0,1.21.83c-1,1.46-2.61.82-3.89,1.08a37.79,37.79,0,0,0-22.65,13.44c-.46.57-1,1.08-1.74,1.88v-2.31a56,56,0,0,1,7.73-7.19,41.85,41.85,0,0,1,15.56-7C129.85,160.49,131,160.76,131.28,159.6Z"/><path class="cls-111" d="M135.76,200.34c-.31.44-.79.37-1.23.43l-1.21,0a2.31,2.31,0,0,1-.71-1.41c-.23-2.22,2.13-4.83,4.89-5.39,2-.41,4.52,1.33,5.1,3.53l-.39.44-.82.38c-.75-.21-1.08-1-1.7-1.32a3,3,0,0,0-3.69.22A2.1,2.1,0,0,0,135.76,200.34Z"/><path class="cls-112" d="M142.6,197.46c-.26-.31-.49-.64-.76-.93-2.34-2.41-3.52-2.67-6.14-1.38-1.93.95-2.78,2.92-2.38,5.58a2.55,2.55,0,0,1-.39,0l-.82,0c-1.4-3,.52-6.4,4.21-7.43a6.59,6.59,0,0,1,5.88,1.27c.81.6,1.51,1.41.84,2.57Z"/><path class="cls-113" d="M143,197.14c-.52-2.47-3.44-4.09-6-3.51-3.2.72-5.37,3.17-4.89,7.1-.67,0-1.11-.12-1.23-.95-.38-2.44,1.78-5.69,4.61-6.78,2.52-1,6.69.05,7.86,2a2.73,2.73,0,0,1,.48,1.71Z"/><path class="cls-114" d="M135.76,200.34c-1.72,0-1.32-1.24-1.09-2.14a3,3,0,0,1,2.75-2.3,3.47,3.47,0,0,1,4,2.38l-2.41,1.3-2,.76Z"/></svg>