<svg id="Layer_1" data-name="Layer 1" xmlns="http://www.w3.org/2000/svg" viewBox="0 0 425.2 425.2"><defs><style>.cls-1{fill:#fff;}.cls-2{fill:#1459a6;}.cls-3{fill:#6bcdf5;}.cls-4{fill:#54b8e8;}.cls-5{fill:#6acbf4;}.cls-6{fill:#67c9f2;}.cls-7{fill:#3199d5;}.cls-8{fill:#48afe2;}.cls-9{fill:#63c6f1;}.cls-10{fill:#0f6cb6;}.cls-11{fill:#2d95d2;}.cls-12{fill:#5bbeec;}.cls-13{fill:#1a83c6;}.cls-14{fill:#61c4f0;}.cls-15{fill:#4fb3e5;}.cls-16{fill:#77d1f6;}.cls-17{fill:#1378be;}.cls-18{fill:#58bceb;}.cls-19{fill:#0f6fb8;}.cls-20{fill:#63c5f0;}.cls-21{fill:#319ad5;}.cls-22{fill:#5dc0ed;}.cls-23{fill:#89d6f8;}.cls-24{fill:#2992d0;}.cls-25{fill:#1f88ca;}.cls-26{fill:#99dbf8;}.cls-27{fill:#41aae0;}.cls-28{fill:#268ece;}.cls-29{fill:#258ecd;}.cls-30{fill:#5dc1ee;}.cls-31{fill:#a2def9;}.cls-32{fill:#0e66b1;}.cls-33{fill:#a9e0fa;}.cls-34{fill:#1074bb;}.cls-35{fill:#b3e3fa;}.cls-36{fill:#218acb;}.cls-37{fill:#0e68b3;}.cls-38{fill:#1880c4;}.cls-39{fill:#68c9f3;}.cls-40{fill:#1d86c8;}.cls-41{fill:#1171b9;}.cls-42{fill:#2b93d1;}.cls-43{fill:#80d4f7;}.cls-44{fill:#1579bf;}.cls-45{fill:#1071b9;}.cls-46{fill:#177dc2;}.cls-47{fill:#81d4f7;}.cls-48{fill:#5dc0ee;}.cls-49{fill:#369ed8;}.cls-50{fill:#1c86c8;}.cls-51{fill:#49afe2;}.cls-52{fill:#62c5f0;}.cls-53{fill:#1275bc;}.cls-54{fill:#57bbea;}.cls-55{fill:#bae5fa;}.cls-56{fill:#4ab0e3;}.cls-57{fill:#3ba3dc;}.cls-58{fill:#359dd8;}.cls-59{fill:#208aca;}.cls-60{fill:#177cc1;}.cls-61{fill:#43ace1;}.cls-62{fill:#329ad6;}.cls-63{fill:#3fa8df;}.cls-64{fill:#3fa8de;}.cls-65{fill:#1473ba;}.cls-66{fill:#42abe0;}.cls-67{fill:#2f96d3;}.cls-68{fill:#38a0da;}.cls-69{fill:#51b5e6;}.cls-70{fill:#3ba4dc;}.cls-71{fill:#1980c4;}.cls-72{fill:#55b9e9;}.cls-73{fill:#41abe0;}.cls-74{fill:#50b4e5;}.cls-75{fill:#41a8de;}.cls-76{fill:#369fd9;}.cls-77{fill:#2089ca;}.cls-78{fill:#1479bf;}.cls-79{fill:#268fce;}.cls-80{fill:#0f6db7;}.cls-81{fill:#1981c5;}.cls-82{fill:#2c94d1;}.cls-83{fill:#52b6e7;}.cls-84{fill:#5ec1ee;}.cls-85{fill:#359ed8;}.cls-86{fill:#0f6eb7;}.cls-87{fill:#0d6ab4;}.cls-88{fill:#3ea7de;}.cls-89{fill:#1a82c5;}.cls-90{fill:#39a1da;}.cls-91{fill:#1174bb;}.cls-92{fill:#66c8f2;}.cls-93{fill:#1d87c8;}.cls-94{fill:#0a5ba9;}.cls-95{fill:#0857a6;}.cls-96{fill:#6ccdf5;}.cls-97{fill:#88d6f7;}.cls-98{fill:#a8dff9;}.cls-99{fill:#b4e2f9;}.cls-100{fill:#2891cf;}.cls-101{fill:#91d9f8;}.cls-102{fill:#0b5aa8;}.cls-103{fill:#0e62ae;}.cls-104{fill:#0d5fac;}.cls-105{fill:#0e60ad;}.cls-106{fill:#3aa2db;}.cls-107{fill:#3ca4dc;}.cls-108{fill:#7ad2f6;}.cls-109{fill:#87d6f7;}.cls-110{fill:#50b4e6;}.cls-111{fill:#0d66b2;}.cls-112{fill:#a9e0f9;}.cls-113{fill:#a0ddf9;}.cls-114{fill:#96daf8;}.cls-115{fill:#b5e4fa;}</style></defs><title>sbml</title><circle class="cls-1" cx="212.6" cy="212.6" r="212.6"/><path class="cls-2" d="M203.09,283.53c-7.14,1.57-10.66.23-10.55-8.55.52-41.61.28-83.23.48-124.84,0-3.64-2.27-9.19,5.18-9,5.84.15,11.1-1.08,13.65,7.33,11.32,37.24,23.52,74.22,36.48,114.64,6.13-19.74,11.29-36.51,16.55-53.24,6.67-21.26,13.62-42.43,20.05-63.75,2.31-7.66,8.1-4.25,12.61-4.88,6.15-.87,5.44,3.65,5.45,7.44q.09,63.69.16,127.39c0,3.64,1,7.77-5.22,7.94-6.67.18-6.31-4-6.3-8.39q0-53.49,0-107.14c-4.27.75-3.59,4.72-4.48,7.58q-15.5,49.66-30.93,99.35c-1.33,4.24-1.71,8.92-8.62,8.79-6.39-.12-6.51-4.57-7.6-8.3-10.19-35-23.89-68.87-32.17-104.41-.46-2.35-1-4.62-4.75-5.38Z" transform="translate(0)"/><path class="cls-2" d="M322.76,212.31c0-20.81-.05-41.63.05-62.44,0-3.93-1.42-8.9,5.72-8.76,7.43.14,5.11,5.49,5.13,9.11.19,37.38.46,74.77,0,112.15-.1,8.68,1.81,12,11.14,11.42,13.61-.84,27.32-.25,41-.2,3.32,0,6.86-.63,7.11,4.7.28,6-3.46,5.69-7.46,5.68-18.36,0-36.74-.39-55.08.16-7.75.23-8.12-3.66-8.09-9.37.14-20.82.06-41.63.06-62.45Z" transform="translate(0)"/><path class="cls-3" d="M69.13,204.87l1.35,0c.86.38,1.8,0,2.67.25a3.33,3.33,0,0,1,1.5,1.58,22,22,0,0,0,15,10.44c9.38,1.73,18.88-1.21,24.71-10.46,5.08-8.06,4.35-18-1.76-25.6a22.78,22.78,0,0,0-10.35-7.31c-3.05-1.09-3.05-1.09-2.6-4.45,0-.76-.13-1.57.44-2.23a6.29,6.29,0,0,0,3.07,2,32,32,0,0,1,11.2,6.39,6,6,0,0,1,1.32,2.67,12.71,12.71,0,0,0,.52,2,13,13,0,0,0,1.15,2.68c.08.18.15.36.22.54a9.78,9.78,0,0,0,1.31,2.5c.19.3.36.62.56.92s.3.43.43.65.36.6.57.88l.66.9a6.24,6.24,0,0,1,1.19,1.81c1.78,15.15-8,28.44-23,31-12,2.08-24.73-4.09-29.74-14.58C69.18,206.71,68.46,205.89,69.13,204.87Z" transform="translate(0)"/><path class="cls-4" d="M44.7,211.64c-2.25-1.35-3.73-3.45-5.3-5.45.32-2.23-.47-4.36-.74-6.51a47.16,47.16,0,0,1,2.65-21.31c6.24-18.08,18.85-29.81,37.05-35.64,1.21-.38,2.49-.18,3.63-.76,2.47.16,5,.13,7.08,1.81-.14,1.68-1.57,1.59-2.63,1.75a49.42,49.42,0,0,0-14.11,4.32c-13.66,6.53-22.82,17-27.21,31.44a47.74,47.74,0,0,0-.32,26.6C45.13,209.11,45.83,210.42,44.7,211.64Z" transform="translate(0)"/><path class="cls-5" d="M61.6,202.6l4,1.82a4.77,4.77,0,0,1,1.21,1.81c5.57,11.87,14.94,17.92,28.05,17.91,12.46,0,21.3-6.1,26.9-16.95a26.12,26.12,0,0,0,2.65-13.73c.46-.59,1-.36,1.49-.09.77.57,1.39,1.33,2.21,1.84a2.33,2.33,0,0,1,.83,1,32.52,32.52,0,0,1-3.77,14.17c-6.27,11.51-16.48,17.06-29.23,18.45-3.3.36-6.44-.63-9.62-1.26-1.29-.26-2.53-.87-3.9-.58l-6.21-3a82.89,82.89,0,0,1-8-7.6,28.59,28.59,0,0,1-6.77-12.74A1.28,1.28,0,0,1,61.6,202.6Z" transform="translate(0)"/><path class="cls-6" d="M82.41,227c.43-1.12,1.23-.7,2-.53,3.08.68,6.12,1.84,9.28,1.76,11.61-.28,21.3-4.78,28.43-14,4.1-5.3,5.6-11.71,6.4-18.26.53-.3,1-.05,1.49.14.67.32,1.35.62,2,.91a2,2,0,0,1,1.23,2.5c-1.89,12.5-8.18,22.07-19.15,28.41a38.46,38.46,0,0,1-22.25,5.18,8.92,8.92,0,0,0-2.36.48A35.32,35.32,0,0,0,82.41,227Z" transform="translate(0)"/><path class="cls-7" d="M120.63,189.32l-.5-.88a31.2,31.2,0,0,1,5.43-9.8c.63-.72,1.24-1.44,1.79-2.21a2.37,2.37,0,0,1,.49-.46c5.19-4.53,11-7.79,17.95-8.7a43.07,43.07,0,0,1,12.92.51c.34-.25.21-.54.07-.83-.28-.45-.56-.89-.87-1.32s-.66-.9-1-1.33a1.74,1.74,0,0,1-.32-1.13c-.07-1.8-1.24-3.11-2.1-4.53-3.14-5.23-7.3-9.61-11.66-13.83-.66-.64-1.82-1.17-1.3-2.48,0,0,.12-.05.18,0a.88.88,0,0,1,.2.09c1.81.94,4,.6,5.77,1.77,1.68,2,3.24,4.17,5,6.15,5.09,5.79,8.41,12.59,11.33,19.62a60.37,60.37,0,0,1,4.32,19.55c.14,2.17,1,4.3.76,6.54-1.18,11-3.05,21.87-8.33,31.83a4.54,4.54,0,0,1-2.09,2.47,1.43,1.43,0,0,1-.71,0,3,3,0,0,1-1.66-2.23,1.45,1.45,0,0,1,.26-.67c2.89-4,4.32-8.69,5.75-13.31a63.77,63.77,0,0,0,1.84-29.87c-.37-2.16-.57-4.32-.91-6.47-.17-.53-.29-1.08-.44-1.61a11.66,11.66,0,0,1-.26-1.55,9.85,9.85,0,0,0-.33-1.18c-.14-.5-.36-1-.53-1.46a1.83,1.83,0,0,0-1.31-1.34c-11.25-3-21.52-1.31-30.41,6.54a29.07,29.07,0,0,0-7,9.84C122.44,188.05,122.21,189.38,120.63,189.32Z" transform="translate(0)"/><path class="cls-8" d="M56.14,147.64c4-2.63,8.44-3.81,13-4.8,1.61-.35,3.25-.57,4.88-.85.47,1.63-1,1.87-1.84,2.17-5.4,1.87-9.94,5.17-14.25,8.71-10.37,8.48-16.63,19.45-19.25,32.59-.88,4.39-.75,8.78-.89,13.19,0,1,.53,2.67-1.61,2.28a25.93,25.93,0,0,1-3.36-10.26c.82-6.75,2.16-13.36,5-19.58,4-8.7,9.42-16.31,17.08-22.2C55.4,148.54,55.93,148.24,56.14,147.64Z" transform="translate(0)"/><path class="cls-3" d="M124.56,193.32c.93,2.61.48,5.24-.08,7.81A30.28,30.28,0,0,1,100,224.4c-10.81,1.65-20.12-1.26-27.82-8.91a24.1,24.1,0,0,1-6.54-11.07l3.54.45A24.47,24.47,0,0,0,80.5,218.1a27.71,27.71,0,0,0,32.09-2.84c7.58-6.51,9.87-15,9.3-24.57a.61.61,0,0,1,.5-.14,3.41,3.41,0,0,1,1.1.82l.77.77a2.45,2.45,0,0,1,.46.69A.5.5,0,0,1,124.56,193.32Z" transform="translate(0)"/><path class="cls-9" d="M89.53,233.62c.29-1.22,1.22-1.36,2.23-1.23,6.15.83,12-.45,17.63-2.76a37.32,37.32,0,0,0,21.32-22,57.06,57.06,0,0,0,2.15-8.73c.25-1.16-.89-1-1.22-1.55a2.94,2.94,0,0,1-.1-2.16c1.79-7.2,6.05-12.32,13.19-14.52a18.29,18.29,0,0,1,18.39,3.87,1.58,1.58,0,0,1,.26.36,3.11,3.11,0,0,1-.49,3.09.72.72,0,0,1-.64.18c-4.6-4.8-10.18-6.41-16.5-4.47-6.05,1.85-9.66,6.09-11.11,12.3-.4,1.72.48,2.54,1.33,3.58a37.85,37.85,0,0,1-8.41,20.56C119,230.64,107.77,235.6,94.36,236a28.69,28.69,0,0,0-3.08.32A8.82,8.82,0,0,1,89.53,233.62Z" transform="translate(0)"/><path class="cls-10" d="M136.17,283.71a17.92,17.92,0,0,1-8.08-.07c-.42-.44-1.54.14-1.48-.91,0-.79.82-1,1.42-1.22a99.27,99.27,0,0,0,17.82-8.85,92.34,92.34,0,0,0,27.5-26.55c.75-1.1,1.54-2.17,2.28-3.27.38-.57.74-1.4,1.71-.8a22.62,22.62,0,0,1-1.79,9.78c-.81-.18-1,.56-1.28,1a99,99,0,0,1-36.52,29.59C137.17,282.67,136,282.52,136.17,283.71Z" transform="translate(0)"/><path class="cls-11" d="M158.18,230.12c.43-.39,1-.71,1.27-1.19A78.37,78.37,0,0,0,165,215.29c1.53-5,2.06-10.16,2.71-15.33,1.26-10-.77-19.27-3.92-28.54a68,68,0,0,0-8.46-16.68c-2.07-3-4.55-5.73-6.83-8.6-.46-.57-1.39-1-.8-2,1.29.67,2.76.94,3.93,1.87a73.29,73.29,0,0,1,16.06,28.7,72.08,72.08,0,0,1,1.92,31.92.67.67,0,0,0,.15.41c-1.14,2.88-.92,5.89-.9,8.89-1.05,5.45-3.48,10.36-6.08,15.18-.65,1.21-1.16,2.8-3.05,2.72-.75-.39-1-1.2-1.43-1.83A1.59,1.59,0,0,1,158.18,230.12Z" transform="translate(0)"/><path class="cls-12" d="M51.82,216.44a5.93,5.93,0,0,1-3.14-1.81c-1-4-2.64-7.81-3.26-11.92a46.58,46.58,0,0,1,5.74-31.29c7.74-13.26,19.42-21.09,34.42-24.11a68.22,68.22,0,0,1,9.68-.82l1.41,1.59c-.06,1.81-1.49,1.5-2.57,1.57a60.73,60.73,0,0,0-12.63,2,48.47,48.47,0,0,0-17.28,9.09c-1.19,1-2.66,1.62-3.46,3a40,40,0,0,0-7.53,10.13,45.94,45.94,0,0,0-5.13,16.29c-1.1,8.17.72,15.9,3.73,23.42C52.18,214.51,52.72,215.48,51.82,216.44Z" transform="translate(0)"/><path class="cls-13" d="M39.41,258.92a9.9,9.9,0,0,1-1.76-3.58c-.46-1,.11-1.2.91-1.1a3.57,3.57,0,0,1,1.9,1.07,81.6,81.6,0,0,0,36.9,18.12,55.32,55.32,0,0,0,8.94,1.27,94.65,94.65,0,0,0,16.06.05,81.64,81.64,0,0,0,15.76-2.9c4.46-1.2,8.61-3.37,13.07-4.6a4.21,4.21,0,0,1,3,.27c.53,1.14-.57,1.18-1.09,1.48-4,2.31-8.35,3.67-12.66,5.18-5.17,1.8-10.46,3.12-16,2.83,1.14.46,2.78-.9,3.68.9l-8.86,0a2.75,2.75,0,0,0-1.52-.24c-12.84,1.21-25.06-1.43-36.81-6.33A82.63,82.63,0,0,1,41.64,260.3,5.45,5.45,0,0,0,39.41,258.92Z" transform="translate(0)"/><path class="cls-14" d="M91.28,236.33c.33-1.45,1.51-.9,2.35-.91a43.61,43.61,0,0,0,19.92-4.71c11.93-6.18,19.06-15.91,21.63-29,.14-.72.3-1.43.45-2.15a1.64,1.64,0,0,1,1-.48,2.09,2.09,0,0,1,1.92.84c.6,1.64,0,3.22-.35,4.76a40.37,40.37,0,0,1-6.46,14.68c-.76,1.09-1.51,2.18-2.17,3.33a6.9,6.9,0,0,1-2.5,1.73,25.19,25.19,0,0,0-7.51,6c-1.28,1-2,2.74-3.63,3.38a56.52,56.52,0,0,1-16.28,4.8c-2.34.26-4.73-.1-7,.52A8.21,8.21,0,0,1,91.28,236.33Z" transform="translate(0)"/><path class="cls-15" d="M36.17,200.93c1.45-.26,1.06-1.42,1-2.29a56.2,56.2,0,0,1,2.22-18.91A57,57,0,0,1,51.7,157.82c4.51-5,10-8.75,15.72-12.3a11.91,11.91,0,0,1,3.22-1.4c1.28-.36,2.75-.63,3.37-2.13a18.21,18.21,0,0,1,8,0c-.44,1.07-1.47.75-2.28,1A59,59,0,0,0,58.26,154.3a56.79,56.79,0,0,0-13.37,16.76c-3.16,5.77-4.58,12.16-5.48,18.66a37.43,37.43,0,0,0,.8,15c.19.71.13,1.34-.81,1.46A20.63,20.63,0,0,1,36.17,200.93Z" transform="translate(0)"/><path class="cls-16" d="M99.69,169.36c-.49,2.37.75,3.26,2.87,4,10.21,3.35,17.18,13.87,15.7,24.36a23.32,23.32,0,0,1-22.7,20.5c-8.16.32-14.6-2.84-19.84-8.8a30.05,30.05,0,0,1-2.6-4.08c.5-.48,1.22,0,1.75-.39h.47c1.45,1.55,2.59,3.35,4.12,4.85,8.51,8.34,22.7,8.25,30.76-.55,10.44-11.41,5.81-28.17-8-33.52-1.07-.41-2.34-.45-3.14-1.48a3,3,0,0,1,.14-1.72C99.36,171.44,99,170.32,99.69,169.36Z" transform="translate(0)"/><path class="cls-17" d="M175.47,230.08a6.57,6.57,0,0,1,.94,3.11c-1.59.91-2.09,2.63-2.9,4.08-8.91,15.94-21.68,27.8-37.91,36.06A98.48,98.48,0,0,1,121.45,279a24.68,24.68,0,0,1-5.83,1.21,5.46,5.46,0,0,1-2.18-.95c-.61-1.54.64-1.77,1.56-2,2.55-.71,5.09-1.44,7.62-2.21,6.38-1.93,12.19-5.05,18-8.28a6.94,6.94,0,0,0,1.21-.95,4.3,4.3,0,0,1,.76-.59,40.48,40.48,0,0,0,5.07-2.72,12.32,12.32,0,0,0,1.49-.87c.37-.29.72-.61,1.1-.89a12.53,12.53,0,0,0,1.49-1.33,13.71,13.71,0,0,0,2.24-2.2,34.71,34.71,0,0,1,2.38-3,3.61,3.61,0,0,1,.51-.36c1.79-.87,2.85-2.54,4.14-3.93A73.11,73.11,0,0,0,173,232a8.32,8.32,0,0,1,1.31-2.05C174.7,229.48,175.14,229.41,175.47,230.08Z" transform="translate(0)"/><path class="cls-18" d="M44.7,211.64c.33-2.58-1-4.85-1.41-7.31-2.41-14.76.65-28.13,9.88-40,7.9-10.18,18.32-16.26,30.78-19.09,1.73-.39,3.72.14,5.12-1.44,1.46.07,2.67.86,4,1.36-.07,1.38-1.16,1.34-2.07,1.41a52.49,52.49,0,0,0-16.86,4.2,49.56,49.56,0,0,0-21.4,17.93,44.92,44.92,0,0,0-7.61,20.52A47,47,0,0,0,47.4,211c.29.8,1.12,2-.57,2.38A4.74,4.74,0,0,1,44.7,211.64Z" transform="translate(0)"/><path class="cls-19" d="M177.34,242c-1.91,1.15-2.61,3.25-3.79,4.94a95.47,95.47,0,0,1-45.46,35.1c-1.89.69-.85,1,0,1.56a13.15,13.15,0,0,1-4.88-.9c-1.49-1.32-.13-1.7.77-2,2.48-.95,5-1.87,7.4-2.91A91.38,91.38,0,0,0,174,241.28c.82-1.33,1.21-3.06,2.91-3.73C177.84,239,177.44,240.52,177.34,242Z" transform="translate(0)"/><path class="cls-20" d="M51.43,189.72A26.86,26.86,0,0,0,56.74,199c.57,1.08.45,2.29.68,3.44a37.82,37.82,0,0,0,7.37,15.61c.7.92,2,1.71,1.22,3.22a31,31,0,0,1-9.38-2.69,7.8,7.8,0,0,0-1.28-3.24,41.13,41.13,0,0,1-5-22.89A3.38,3.38,0,0,1,51.43,189.72Z" transform="translate(0)"/><path class="cls-21" d="M83.32,266.4l4.33-2.26a4.49,4.49,0,0,1,2.59-.27,75,75,0,0,0,23.66-2.62,6.51,6.51,0,0,0,2-.86,6,6,0,0,0,1.25-3,28.83,28.83,0,0,1,25-20.89,29.18,29.18,0,0,1,16.8,3.27c1,.55,2.21,1.09,1.64,2.66-.82.72-1.52.1-2.21-.25A28.19,28.19,0,0,0,146,238.81a26.37,26.37,0,0,0-16.2,4.83,25,25,0,0,0-10.61,16.87,5.07,5.07,0,0,1-1,2.87A11.85,11.85,0,0,1,114,265a84.1,84.1,0,0,1-21.19,2.58c-2.65-.08-5.27-.57-7.93-.51A1.92,1.92,0,0,1,83.32,266.4Z" transform="translate(0)"/><path class="cls-22" d="M51.43,189.72a38.94,38.94,0,0,0,5.18,26.55c.34.58,1.94,1.57,0,2.35a13,13,0,0,1-4.81-2.18c.19-2.27-1.26-4-1.94-6-3.16-9.34-3.88-18.68-.76-28.17,1-3,1.79-6,4.08-8.38A27.13,27.13,0,0,0,51.43,189.72Z" transform="translate(0)"/><path class="cls-23" d="M77.05,204.81c.68-.59,1.51-.34,2.27-.42l.31.07c1.6,1,2.31,3,4.1,3.8a16.77,16.77,0,0,0,17.67,2.3c6.32-2.61,10.06-7.63,10.45-14.4s-2.57-12.39-8.87-15.81c-1.29-.69-2.77-1-3.84-2.11a3.75,3.75,0,0,1,0-1.73c1-.94,2.13-.36,3.11,0,13,5.16,16.92,21.61,7.52,31.78a20.71,20.71,0,0,1-29.38,1.26C79,208.26,77.51,206.86,77.05,204.81Z" transform="translate(0)"/><path class="cls-24" d="M169.73,207.05c-.79-1.07-.48-2.31-.35-3.42A72.15,72.15,0,0,0,152.46,148a2.43,2.43,0,0,1-.86-1.93c2,.25,3.59,1.43,5.15,2.6-.11,1.16,1,1.6,1.49,2.33a75.68,75.68,0,0,1,12.54,27.82,82.31,82.31,0,0,1,1.85,20c0,1.62-.53,3.17-.65,4.78S170,205.55,169.73,207.05Z" transform="translate(0)"/><path class="cls-25" d="M170.66,220.79a8.65,8.65,0,0,1,1.69,2.66,96.16,96.16,0,0,1-7.95,15.43,12.15,12.15,0,0,1-1.59,2.11c-.55.57-1.12,1.26-2.05.57a9.67,9.67,0,0,1-.41-1.29c-.22-.38.45-.93-.38-1.24-4.75-1.78-9.52-3.54-14.69-3.44a27.33,27.33,0,0,0-13.36,3.22c-4.12,2.3-8,4.86-10.73,8.88a27.31,27.31,0,0,0-4.65,9.87c-.15.72-.45,1.42-1.37,1.52-1-.3-1.17-1.05-1.17-1.92a32.16,32.16,0,0,1,13.85-18.91,33.71,33.71,0,0,1,16.64-5.15,27.79,27.79,0,0,1,11,1.8c1.43.52,2.79,1.33,4.4,1.23,1.59.18,2.17-1,2.75-2.1A133.57,133.57,0,0,0,168.5,222C168.83,221.17,169,219.42,170.66,220.79Z" transform="translate(0)"/><path class="cls-18" d="M46.83,213.34c.67-.4.55-.92.3-1.52-3-7-3.4-14.35-2.72-21.69A46,46,0,0,1,54.68,165,51.19,51.19,0,0,1,70.3,151.87a53.28,53.28,0,0,1,17.12-5.57c1.86-.29,4,.44,5.63-1.16a4.43,4.43,0,0,1,2.21,1.35c-.48.89-1.33.78-2.14.8a48,48,0,0,0-30.36,11.4,46.43,46.43,0,0,0-16,25.29A44.8,44.8,0,0,0,48.6,211.8c.34.85,1.18,1.87.08,2.83C47.79,214.59,47.38,213.86,46.83,213.34Z" transform="translate(0)"/><path class="cls-6" d="M66,221.31c-1.07-2.92-3.41-5-5-7.65a39.49,39.49,0,0,1-4.56-12.92,5.16,5.16,0,0,1,.25-1.7l4.86,3.56a51.25,51.25,0,0,0,4.46,10c2.12,3.36,5.19,5.73,7.87,8.5.87.9,1.88,1.61,2.27,2.87Z" transform="translate(0)"/><path class="cls-26" d="M99.29,176.5v1.78c1.24,1.54,3.17,2,4.73,3.11a20.33,20.33,0,0,1,5.9,6.35c2.62,6.24,2.25,12.15-1.88,17.67a3.41,3.41,0,0,1-.46.47,5.52,5.52,0,0,0-2,2,3,3,0,0,1-.76.65c-5.49,3.76-11.34,4.12-17.46,1.82a2.73,2.73,0,0,1-.61-.26,20.62,20.62,0,0,1-5.24-4.19,7.4,7.4,0,0,0-2.17-1.42l0,0a7.48,7.48,0,0,1,3.08-.88c1-.52,1.51.31,2,.86,4.89,5.37,14.27,5.18,19.52.62a13.2,13.2,0,0,0,2.36-16.89,14.87,14.87,0,0,0-5.29-4.92,4.38,4.38,0,0,1-2.16-1.8c.19-3-.44-6,.4-8.9,0,.6,0,1.21,0,1.81a1.93,1.93,0,0,1,.45.93A1.63,1.63,0,0,1,99.29,176.5Z" transform="translate(0)"/><path class="cls-27" d="M56.14,147.64c.67,1-.38,1.32-.81,1.63A51.31,51.31,0,0,0,43.75,161.8a55.73,55.73,0,0,0-9.68,24.53c-.2,1.48-.07,3.12-1.26,4.34A32.29,32.29,0,0,1,34,174.53,44.94,44.94,0,0,1,53.6,149C54.4,148.45,55.29,148.08,56.14,147.64Z" transform="translate(0)"/><path class="cls-28" d="M64.43,263.68a43.06,43.06,0,0,0,9.6,3.54c1.25,1,2.81.75,4.22,1.07a67.75,67.75,0,0,0,15.33,1.86,78.3,78.3,0,0,0,26.9-4.62,5.23,5.23,0,0,1,1.7-.46c.52.05,1,.17,1.17.76-.31,1.27-1.37,1.68-2.42,2a94.6,94.6,0,0,1-20,4.16,75,75,0,0,1-19.13-.73,79.82,79.82,0,0,1-29.45-10.9,81,81,0,0,1-16.41-13.68c-.56-.6-.92-1.33-1.45-1.94a6.7,6.7,0,0,1-.11-2.05c1.22-.88,1.73.3,2.24.91,7.23,8.51,16.19,14.67,26.21,19.42A12,12,0,0,0,64.43,263.68Z" transform="translate(0)"/><path class="cls-29" d="M172,203.52a1.55,1.55,0,0,1-.41-1.63c1.05-6.39.48-12.77-.57-19A72.38,72.38,0,0,0,166.08,166a76.77,76.77,0,0,0-9.44-16.11c-.36-.47-1-.94.11-1.27,1.6,1.26,3.68,1.85,4.95,3.56,1.57,3.24,3.6,6.23,5.14,9.5,4.79,10.19,7.78,20.78,7.57,32.14a18.65,18.65,0,0,0,.23,5.27A10.34,10.34,0,0,1,172,203.52Z" transform="translate(0)"/><path class="cls-30" d="M60.73,163.73c.09-1.61,1.59-2,2.52-2.84,6.85-6.35,15.13-9.66,24.16-11.29a56.59,56.59,0,0,1,7-.53c.9,0,1.8,0,2.24-1,1.4,1.23,1.43,2.85,1.27,4.52a2.6,2.6,0,0,1-2,.65c-6.2-.46-12.08,1-17.9,2.88A36.48,36.48,0,0,0,60.73,163.73Z" transform="translate(0)"/><path class="cls-31" d="M98.85,181.38c4.33,2,7.92,4.72,9.44,9.53a13.59,13.59,0,0,1-3.34,14,11.83,11.83,0,0,1-8.63,3.89,41.9,41.9,0,0,1-5.72-.2c-2.87-.43-5-2.23-7-4.25-.36-.37-.58-.86-1.18-.87a4.84,4.84,0,0,1,2.22-.88c1.3-.61,1.86.57,2.61,1.14,4.45,3.33,10.8,3.3,14.77-.13,5.91-5.08,5.3-13.5-1.32-18.16-1.14-.8-2.52-1.43-1.87-3.25Z" transform="translate(0)"/><path class="cls-32" d="M172.84,258.3a43.74,43.74,0,0,1-21.43,21.07c-2.19,1-4.55,1.71-6.84,2.55-.65.25-1.36.47-1.63-.42s.4-1.34,1.05-1.73a127.06,127.06,0,0,0,10.92-7.13,83.48,83.48,0,0,0,13.79-12.36,11.25,11.25,0,0,1,2.23-2.13C171.55,257.73,172.29,257.14,172.84,258.3Z" transform="translate(0)"/><path class="cls-33" d="M98.82,182.23c-.1,1.33.77,1.9,1.79,2.49a11.76,11.76,0,0,1,.25,20.47,12.15,12.15,0,0,1-14.81-1.66c-.44-.41-.76-.89-1.42-.9.69-.85,1.82-.79,2.66-1.34,1.11-.23,1.77.6,2.52,1.13,3.48,2.44,9.65,1.33,12.12-2.58,2.67-4.21,2-8.58-2.08-11.72-1.09-.84-2.2-1.59-1.47-3.22C98.5,184,98.12,183,98.82,182.23Z" transform="translate(0)"/><path class="cls-34" d="M115.62,280.25c1.45-1.19,3.32-1,5-1.49a94.17,94.17,0,0,0,33.47-18.5,86.16,86.16,0,0,0,19-23.49c.65-1.15,1.37-2.27,1.94-3.46.46-1,.88-.72,1.4-.12l.36,1.31c-2.49,3.3-4.1,7.13-6.5,10.49a93,93,0,0,1-25.83,24.75A90.78,90.78,0,0,1,121,280.39a12.18,12.18,0,0,0-2.2,1A6.74,6.74,0,0,1,115.62,280.25Z" transform="translate(0)"/><path class="cls-35" d="M98.38,184.9c-.23,1.23.53,1.86,1.42,2.48,3.17,2.19,4.94,5.21,4.22,9a9.37,9.37,0,0,1-7.54,7.77c-3.51.78-6.6-.42-9.19-2.9L90,199.53c.79-.6,1.51-.17,2.27.11,2.78,1.05,5.19.41,6.62-1.7,1.57-2.32,1.27-4.53-1-6.9a2.41,2.41,0,0,1-.83-1.25Z" transform="translate(0)"/><path class="cls-29" d="M34.61,244.7c1.75,1.69,3.5,3.37,5.24,5.08C50.85,260.55,64,267.09,79.08,270a79.53,79.53,0,0,0,17.72,1.65,83.18,83.18,0,0,0,24.33-4.52,12,12,0,0,0,2.1-1.21.91.91,0,0,1,.56-.28,2.47,2.47,0,0,1,1.54.58.58.58,0,0,1-.07.9,75.65,75.65,0,0,1-18.91,5.17,78.47,78.47,0,0,1-11.67.92,82.63,82.63,0,0,1-30.21-5.74,85.21,85.21,0,0,1-26.31-16.82,23,23,0,0,1-3.54-4.21l-.11-1.23A.31.31,0,0,1,34.61,244.7Z" transform="translate(0)"/><path class="cls-36" d="M174.64,199.09c-1,.4-.88-.33-.88-.91,0-2.14,0-4.27,0-6.4,0-9.78-2.69-18.95-6.54-27.81a65,65,0,0,0-5.3-9.9c-.29-.45-1.45-1.14-.22-1.89a18.45,18.45,0,0,1,4.9,4.87,81.56,81.56,0,0,1,5.22,11.36c2.3,6.78,4.21,13.63,4.3,20.88a16.85,16.85,0,0,0,.65,4.06A17.16,17.16,0,0,1,174.64,199.09Z" transform="translate(0)"/><path class="cls-37" d="M172.84,258.3c-1.25-.82-1.78.34-2.32,1A91.47,91.47,0,0,1,157,271.8a109.82,109.82,0,0,1-12.64,8.38c-.47.27-1.24.38-1.09,1.17s.8.48,1.27.57a23.08,23.08,0,0,1-8.4,1.79l-1.73-.18c.84-1,1.91-1.1,2.78-1.52a102.29,102.29,0,0,0,31.55-23.3c2.09-2.25,3.87-4.8,5.79-7.2.23-.27.25-1,.87-.53.16.12.08.55.12.84A18.17,18.17,0,0,1,172.84,258.3Z" transform="translate(0)"/><path class="cls-36" d="M34.62,246.47c1.4.17,1.65,1.58,2.46,2.36a84.59,84.59,0,0,0,29.54,18.88,81.15,81.15,0,0,0,19.26,4.44,79.19,79.19,0,0,0,36-4.34,10.89,10.89,0,0,1,3.6-1,1.26,1.26,0,0,1,1.67-.13.61.61,0,0,1,.11.68,1.7,1.7,0,0,1-.59.41c-4.41,1.43-8.67,3.28-13.24,4.24a116.81,116.81,0,0,1-11.73,1.87,3.24,3.24,0,0,1-.75.16c-4.14.1-8.29.09-12.43,0a3.59,3.59,0,0,1-.72-.11,102.64,102.64,0,0,1-14.11-2.48A79.56,79.56,0,0,1,45.54,258a64.14,64.14,0,0,1-10.11-8.86A5.63,5.63,0,0,1,34.62,246.47Z" transform="translate(0)"/><path class="cls-24" d="M122.34,265.51a78.12,78.12,0,0,1-23,5.1c-7.94.68-15.66-.47-23.36-2.05a2.28,2.28,0,0,1-1.9-1.34h6a11,11,0,0,1,3.7,0c11.09,1.76,22,.63,32.7-2.37a12.93,12.93,0,0,1,3.65-.78,3.13,3.13,0,0,1,1.13.16C121.81,264.48,122.44,264.69,122.34,265.51Z" transform="translate(0)"/><path class="cls-38" d="M39.41,258.92c.33-1.38,1.09-.42,1.4-.13a53.15,53.15,0,0,0,10.35,7c7.13,3.86,14.46,7.29,22.5,9.07,4.36,1,8.73,2.21,13.14,2.31,3.16.08,6.39.57,9.57,0,1.07-.2,2.22-.55,2.92.76l-4,1.37c-19.38.64-36.68-5.39-52.42-16.39-.54-.37-1-.94-1.69-1A7.82,7.82,0,0,1,39.41,258.92Z" transform="translate(0)"/><path class="cls-39" d="M101,163.64a13.92,13.92,0,0,1,2.19-5.31c3.13.13,5.83,1.62,8.61,2.8,1.78.76,3.65,1.51,4.89,3.15a2.64,2.64,0,0,1,0,1,26.23,26.23,0,0,1-.64,3.27c-.33.84-.14,1.82-.71,2.59a.69.69,0,0,1-.63.17,38.08,38.08,0,0,0-12.33-6C101.68,165.07,100.56,165,101,163.64Z" transform="translate(0)"/><path class="cls-22" d="M92.57,239.07c.14-1,.88-1,1.66-1a44.63,44.63,0,0,0,20.46-4.57,6.13,6.13,0,0,1,1.5-.28c.4.56.1,1-.15,1.55-.85,1.29-1.26,2.85-2.43,4-1.79,1.4-4,1.73-6.1,2.34a37.83,37.83,0,0,1-10,1.61,5.35,5.35,0,0,0-3.62,1.23Z" transform="translate(0)"/><path class="cls-40" d="M176.77,193.35c-.85.35-.65-.28-.82-.76-.9-2.58-.38-5.28-.75-7.92a80.54,80.54,0,0,0-8.08-25.47c-.32-.63-1.19-1.24-.52-2.15a41.2,41.2,0,0,1,10.9,22.57A30.67,30.67,0,0,1,176.77,193.35Z" transform="translate(0)"/><path class="cls-41" d="M176.9,237.55a108.46,108.46,0,0,1-10.79,15.53,94.11,94.11,0,0,1-41.9,28.12c-.7.24-1.78.31-1,1.54a5.14,5.14,0,0,1-2.68-.76c-.5-1.59.78-1.59,1.7-1.89a96.78,96.78,0,0,0,20.09-9,92.41,92.41,0,0,0,20.23-16.58,85.81,85.81,0,0,0,11.77-16.16c.56-1,.73-2.71,2.58-2.53Z" transform="translate(0)"/><path class="cls-42" d="M64.43,263.68c-2.58,0-4.59-1.47-6.71-2.58a78.24,78.24,0,0,1-19.58-14.78c-1.23-1.25-2-3-3.59-3.83-.27,0-.27-.31-.43-.45l0-1.22a.81.81,0,0,1-.14-.41c0-.7-.42-1.64.37-2s1.48.41,2,1a72.38,72.38,0,0,0,10,10.24c3.11,2.6,6.56,4.72,9.76,7.19,1,.77,1.77,1.77,2.81,2.47Z" transform="translate(0)"/><path class="cls-43" d="M99.29,175.18c0-.3,0-.59,0-.89,8.55,1.49,15.54,9,16.89,17.58a21.44,21.44,0,0,1-18.46,24.4c-8.64,1.13-15.73-2.05-21.21-8.78a5.49,5.49,0,0,1-1.18-2.59l1.33-.06A20.41,20.41,0,0,0,89,214.24c12,3.25,23.7-4.1,25.66-16.06,1.6-9.8-4-18.6-13.29-21.86A3.54,3.54,0,0,1,99.29,175.18Z" transform="translate(0)"/><path class="cls-44" d="M91.29,280.94c-1.46.5-2.83,1.29-4.42,1.36-1.6-.63-3.31-.25-5-.48a95.91,95.91,0,0,1-32.26-11c-.77-.41-1.31-1.22-2.27-1.29a18.17,18.17,0,0,1-4-4.46c-.42-.88,0-1.09.78-.92a5.89,5.89,0,0,1,1.93,1.06,88,88,0,0,0,37,13.7,61.74,61.74,0,0,0,6.38.6C90.26,279.57,91.66,279.24,91.29,280.94Z" transform="translate(0)"/><path class="cls-45" d="M176.9,235.84c-1.39.57-1.73,2-2.36,3.1a89.88,89.88,0,0,1-33.69,33.52,91.2,91.2,0,0,1-19,8.2c-.65.19-1.25.5-1.3,1.32a2.26,2.26,0,0,1-1.74-.57c0-1.08.88-1.24,1.66-1.46a85.24,85.24,0,0,0,21.6-9.32,92.23,92.23,0,0,0,25-22.29,101.12,101.12,0,0,0,8.27-13c.31-.56.48-1.34,1.41-.82Z" transform="translate(0)"/><path class="cls-46" d="M91.29,280.94c-.17-.94-.91-.78-1.55-.82a87.73,87.73,0,0,1-23.47-4.41,89,89,0,0,1-20.93-10.26c-1.17-.77-1.16-.77-1.94-.34a11.37,11.37,0,0,1-2.19-3.17c.46-1.34,1.11-.25,1.44,0A85.12,85.12,0,0,0,77.09,277.2a61.16,61.16,0,0,0,15.74,1.62c.84-.05,1.8-.35,2.49.49A13.34,13.34,0,0,1,91.29,280.94Z" transform="translate(0)"/><path class="cls-20" d="M116.57,164.52a39.84,39.84,0,0,0-10.9-5.18c-.83-.28-1.63-.67-2.44-1a13.33,13.33,0,0,1,3.08-4.94,78.12,78.12,0,0,1,9.77,4.09c1.33.75,2.8,1.39,3.41,3C119,162.14,118.4,163.78,116.57,164.52Z" transform="translate(0)"/><path class="cls-47" d="M99.29,175.18c8.4,2.17,13.75,7.48,15.64,15.89a19,19,0,0,1-3.57,16.05c-4.33,5.77-10.25,8.42-17.34,8.32a20.75,20.75,0,0,1-16.1-7.87c-.63-.76-1.41-1.56-1.25-2.73a1.29,1.29,0,0,1,.39,0,22.55,22.55,0,0,0,12.14,9c12.7,3.71,25.45-6.6,25.17-18.56-.21-8.51-4.29-14.4-11.88-18a6.32,6.32,0,0,0-3.2-.75Z" transform="translate(0)"/><path class="cls-48" d="M119.23,160.57c-3-3.13-7-4.2-10.81-5.73-.82-.33-1.7-.55-2.11-1.45.77-1.7,2.24-2.77,3.55-4a49,49,0,0,1,11.51,5.48c.92.59,1.91,1.25,1.37,2.65C121.8,158.81,121.19,160.47,119.23,160.57Z" transform="translate(0)"/><path class="cls-3" d="M101,163.64c.17,1.3,1.37,1,2.09,1.2,4,1,7.43,3.11,10.93,5.12a1.44,1.44,0,0,1,.75,1.27c1.08,1.5.34,3.35,1,5a2.75,2.75,0,0,1-.12,1.1,1.17,1.17,0,0,1-.47.56c-1-2.56-3.37-3.72-5.42-5.07a23.57,23.57,0,0,0-7.81-3.42c-1.19-.26-2-.79-1.81-2.22A7.5,7.5,0,0,1,101,163.64Z" transform="translate(0)"/><path class="cls-49" d="M141.9,142.38c-.41,1.06.61,1.34,1.09,1.8,4.44,4.33,8.75,8.75,11.94,14.12.71,1.2,1.43,2.4,2.15,3.59.3.51.35,1-.19,1.35a.52.52,0,0,1-.5.14,6.66,6.66,0,0,1-1.5-1.24,5.58,5.58,0,0,0-1.47-1.18,15.69,15.69,0,0,1-2-1.48c-.53-.45-1.17-.79-1.34-1.55a4.2,4.2,0,0,0-1.28-2.71,76.19,76.19,0,0,0-11.18-11.46c-.72-.61-1.91-1-1.44-2.37a1,1,0,0,1,.91.11A11.58,11.58,0,0,1,141.9,142.38Z" transform="translate(0)"/><path class="cls-11" d="M120.58,264.62c-3.45.32-6.64,1.71-10,2.43a93.15,93.15,0,0,1-23,1.5,54.88,54.88,0,0,1-7.54-1.32l3.24-.83c4-.33,7.93.58,11.91.45a78.59,78.59,0,0,0,23.11-4c.7-.31,1.13.23,1.64.5S120.81,264,120.58,264.62Z" transform="translate(0)"/><path class="cls-50" d="M86,275.25a72.56,72.56,0,0,1-23.42-5.74,76.48,76.48,0,0,1-22.8-14c-.5-.45-1.29-1.85-2.11-.16a7.24,7.24,0,0,1-1.37-3.48c.81-.9.84-.94,2,0,2.32,1.92,4.51,4,6.93,5.78a80.3,80.3,0,0,0,34.37,15,3.11,3.11,0,0,1,1,.43,22.54,22.54,0,0,0,3.64.72C85.11,273.88,86.05,274,86,275.25Z" transform="translate(0)"/><path class="cls-51" d="M118.78,143.73A14.52,14.52,0,0,1,124.1,142a67.23,67.23,0,0,1,12.63,9.15c1.53,1.5,1.58,1.94.05,2.86a10.63,10.63,0,0,0-2.63.37,5.62,5.62,0,0,1-3.07-.11c.17-1.82-1.18-2.47-2.41-3.37a58.72,58.72,0,0,0-8.46-5.2C119.47,145.34,118.18,145.15,118.78,143.73Z" transform="translate(0)"/><path class="cls-52" d="M78,156.13c5-3,10.52-3.65,16.2-3.54,1.25,0,2.5,0,3.74,0-.69,4.49-4.1,6.71-8.24,5.26A31.07,31.07,0,0,0,78,156.13Z" transform="translate(0)"/><path class="cls-49" d="M50.92,246l1.85,4.87c-1.41.25-2.37-.7-3.28-1.45a62.31,62.31,0,0,1-9.81-9.74c-1.69-2.18-4-3.9-5.12-6.51a8.57,8.57,0,0,1,.95-4c1.14-.18,1.52.74,2,1.43,2.38,3.46,5.1,6.65,7.74,9.91a25.82,25.82,0,0,0,3.94,3.52A5.49,5.49,0,0,1,50.92,246Z" transform="translate(0)"/><path class="cls-53" d="M47.37,269.57c.58-.82,1-.09,1.45.16,7.69,4.09,15.58,7.67,24.11,9.66,4.35,1,8.69,2.11,13.21,2.06.64,0,1,.08.73.85a12.37,12.37,0,0,1-4.46.86c-7.4-.46-14.4-2.64-21.36-5-3-1-5.47-3.2-8.52-4.14A20.82,20.82,0,0,1,47.37,269.57Z" transform="translate(0)"/><path class="cls-18" d="M93.93,243.89c-.08-1.66.94-1.89,2.29-1.86,5.65.12,11-1.43,16.28-3.18a4.23,4.23,0,0,0,1.06-.76c.65.93,0,1.81-.11,2.71a3.88,3.88,0,0,1-1.2,2.18,45.79,45.79,0,0,1-11.8,2.73,52.07,52.07,0,0,0-6.1.87C93.78,245.75,94,244.8,93.93,243.89Z" transform="translate(0)"/><path class="cls-54" d="M122.33,157.46c.54-1.43-.69-1.75-1.48-2.26a55.11,55.11,0,0,0-9.45-4.7c-.64-.24-1.26-.4-1.54-1.1a11.35,11.35,0,0,1,3.62-2.91,74.65,74.65,0,0,1,11,5.72c1.11.74,2.58,1.33,2.42,3.11C125.54,156.41,124.36,157.83,122.33,157.46Z" transform="translate(0)"/><path class="cls-55" d="M97,189.79a5.74,5.74,0,0,1-.58,10.73,5.56,5.56,0,0,1-4.67-.39,3.47,3.47,0,0,0-1.83-.6C93.33,197,95.19,193.41,97,189.79Z" transform="translate(0)"/><path class="cls-56" d="M94,254l.44-3.53a4.92,4.92,0,0,1,3.5-1.05,47.68,47.68,0,0,0,11.27-1.74,3.07,3.07,0,0,1,2.55,0,2.65,2.65,0,0,1,.56,1.88c0,1.09-.31,2.12-1.47,2.44C105.34,253.49,99.8,254.87,94,254Z" transform="translate(0)"/><path class="cls-57" d="M50.92,246c-5.79-3.61-9.46-9.19-13.46-14.47-.61-.81-1-1.85-2-2.33a7.72,7.72,0,0,1,1.25-3.12c.85-.28,1.23.39,1.53.91a76.22,76.22,0,0,0,11.33,14.22,4,4,0,0,0,.44.81Z" transform="translate(0)"/><path class="cls-58" d="M116.57,260.64c-1.57,1.73-3.86,1.64-5.85,2.1a74.66,74.66,0,0,1-19.6,1.92c-1.2,0-2.3-.49-3.47-.52l1.5-1.27a3.78,3.78,0,0,1,2.79-1.11c7.81.52,15.4-.85,22.93-2.65A1.43,1.43,0,0,1,116.57,260.64Z" transform="translate(0)"/><path class="cls-59" d="M80.22,273.48c-2.56-.88-5.22-1.34-7.83-2-10.29-2.66-19.45-7.53-28-13.71-1.9-1.37-3.47-3.18-5.29-4.67-.79-.64-1.39-2-2.85-1.22a5.44,5.44,0,0,1-.85-2.71c.55-.51.78.1,1,.35a81.66,81.66,0,0,0,42.71,22.64,34.66,34.66,0,0,0,7.39.9,1.33,1.33,0,0,1,1.19.44c-1,1.55-2.44.66-3.65.6A22.5,22.5,0,0,1,80.22,273.48Z" transform="translate(0)"/><path class="cls-60" d="M175.47,230.08c-1.6-.21-1.6,1.35-2,2.11A71.68,71.68,0,0,1,160,251.76c-1,1-1.67,2.24-3.12,2.65-.52-.93.17-1.59.51-2.33a20.69,20.69,0,0,1,1.14-2.19,3.84,3.84,0,0,1,.46-.44,65.86,65.86,0,0,0,10.66-14.79c1.07-1.93,2.1-3.88,3-5.88.31-.67.47-1.65,1.63-1.36A5.3,5.3,0,0,1,175.47,230.08Z" transform="translate(0)"/><path class="cls-61" d="M94,254a3.71,3.71,0,0,1,2.33-.43c4.65.28,9.08-1,13.58-1.85,1.18-.22,2-.78,1.81-2.2.65,0,.79.52.94,1a7.19,7.19,0,0,1,.08,1.91,2.54,2.54,0,0,1-2.22,2.63c-3.66.85-7.3,2-11.11,1.79-2.14-.12-4.21.72-6.35.24A10.27,10.27,0,0,1,94,254Z" transform="translate(0)"/><path class="cls-51" d="M40.28,221.15a3.54,3.54,0,0,1,2.7-.34c.83.23,1.67.37,2.14,1.26A47.56,47.56,0,0,0,51,230.49a1.32,1.32,0,0,1,.41,1.38l-1.27,4.54c-3.48-4-6.91-8.1-9.39-12.85C40.34,222.81,39.66,222.1,40.28,221.15Z" transform="translate(0)"/><path class="cls-62" d="M34.56,233.19c2.28,2.6,4.53,5.25,6.84,7.82,3.35,3.75,6.87,7.41,11.37,9.88A10.9,10.9,0,0,1,54.45,254c-.84.72-1.52.16-2.15-.32-5.55-4.17-11.46-8-15.21-14.07a8.45,8.45,0,0,0-3-2.88A7.25,7.25,0,0,1,34.56,233.19Z" transform="translate(0)"/><path class="cls-13" d="M160.91,241.6c1.87-.49,2.47-2.2,3.31-3.6,2-3.31,3.84-6.71,5.67-10.11.79-1.49.67-3.49,2.46-4.44a7.3,7.3,0,0,1,1.41,2.65,112.36,112.36,0,0,1-9.61,16.78c-.61.83-1.17,1.7-1.84,2.47-.53.6-1.07,1.31-2,.66a2.27,2.27,0,0,1-.31-1.61,5,5,0,0,1,.67-1.88C160.7,242.21,160.65,241.86,160.91,241.6Z" transform="translate(0)"/><path class="cls-29" d="M170.66,220.79c-1-.55-1.31.24-1.55.92-1.44,4.29-3.69,8.2-5.71,12.22a25.49,25.49,0,0,1-1.5,2.42c-.65,1-1.27.65-1.88-.07l-.22-.18a5.31,5.31,0,0,1-.43-2,.8.8,0,0,1,.23-.52c1.81-.35,2.22-2,2.92-3.29a68,68,0,0,0,5.36-12.46,3.79,3.79,0,0,1,1-1.93C168.88,217.77,170.19,219.12,170.66,220.79Z" transform="translate(0)"/><path class="cls-46" d="M142.29,266c-1,1.52-2.67,2.05-4.11,2.85a86.93,86.93,0,0,1-22.9,9c-.91.21-1.78.31-1.84,1.49a9,9,0,0,1-3.08-1c-.28-.28-1-.13-.91-.76a1,1,0,0,1,.92-.83,84.55,84.55,0,0,0,16.26-4.69c3.12-1.17,6.49-2,9-4.47a3.29,3.29,0,0,1,.81-.57,18.77,18.77,0,0,1,1.81-.53c.59-.16,1.19-.24,1.76-.44a9.63,9.63,0,0,1,1.47-.38A.89.89,0,0,1,142.29,266Z" transform="translate(0)"/><path class="cls-63" d="M93.07,257.1a11,11,0,0,1,4.94-.89c4.33.32,8.42-1,12.59-1.79a1.78,1.78,0,0,0,1.55-2.23c1.16.17,1,1.25,1.32,1.95a3.17,3.17,0,0,1,0,1.53,3.11,3.11,0,0,1-2.57,1.84,74,74,0,0,1-15.74,2c-1,0-2.09.17-2.91-.68Z" transform="translate(0)"/><path class="cls-64" d="M49.62,241.6a54.49,54.49,0,0,1-10.79-12.71c-.63-1-1-2.12-2.07-2.79a4.5,4.5,0,0,1,1.17-2.28c1.34-.57,1.66.56,2.12,1.32a71.12,71.12,0,0,0,6.23,8.78,5.49,5.49,0,0,0,1.34,1.45C50.3,236.83,50.12,239.15,49.62,241.6Z" transform="translate(0)"/><path class="cls-65" d="M52.53,274c1.43-.32,2.6.39,3.74,1.05,6.64,3.86,14,5.44,21.42,7,1.58.34,3.29.06,4.72,1.08l-2,.11a8.88,8.88,0,0,1-3.84,0A42.93,42.93,0,0,1,52.53,274Z" transform="translate(0)"/><path class="cls-66" d="M49.62,241.6c0-.36,0-.73,0-1.1a4.39,4.39,0,0,0-1.77-4.18c-3.51-3-6-6.94-8.32-10.89-.41-.68-.59-1.55-1.61-1.61.58-1.07.92-2.35,2.35-2.67,1.55,4,4.2,7.3,6.71,10.7,1.09,1.49,3,2.41,3.14,4.56,0,1.88-.05,3.76-.07,5.63Z" transform="translate(0)"/><path class="cls-67" d="M34.12,236.73c1-.49,1.37.2,2,.78,1.89,1.75,3.14,4,4.74,6,3.46,4.27,8.38,6.63,12.34,10.2.28.26.83.21,1.25.3,1,2.14,3.12,3.41,4.42,5.33-4.3-3.14-8.91-5.82-13-9.27a63.75,63.75,0,0,1-10.35-10.74c-.24-.34-.61-.85-1.05-.54-.72.49-.22,1.36-.41,2C33.47,239.45,33.93,238.09,34.12,236.73Z" transform="translate(0)"/><path class="cls-68" d="M115.24,259.31c-3.67,1.63-7.66,1.86-11.51,2.69-4.07.88-8.15.16-12.22.43a19.2,19.2,0,0,0-2.36.44l2-2.29a5.66,5.66,0,0,1,3.63-.61,55.65,55.65,0,0,0,15.73-1.77,13.48,13.48,0,0,0,3.09-1.14.78.78,0,0,1,.74.05,2.54,2.54,0,0,0,.89,1.77c.14.09.18.19.14.28S115.29,259.31,115.24,259.31Z" transform="translate(0)"/><path class="cls-69" d="M111.64,247.8a78.18,78.18,0,0,1-17.19,2.66c0-.89,0-1.77,0-2.66,1.32-1.05,3-.81,4.45-.94A85,85,0,0,0,109.31,245c.85-.18,1.72-.51,2.55.1A2,2,0,0,1,111.64,247.8Z" transform="translate(0)"/><path class="cls-70" d="M113.92,257.08c-.06,1-.8,1.17-1.64,1.42a64.38,64.38,0,0,1-21.13,2.08l1.08-1.71a78.11,78.11,0,0,0,18-1.87c1-.21,2.46-.19,2.79-1.72a.77.77,0,0,1,.81.35C114.14,256.1,114.36,256.58,113.92,257.08Z" transform="translate(0)"/><path class="cls-4" d="M126.76,155.19c-1.22-2.17-3.48-3-5.47-4.19s-4.16-2.1-6.24-3.16c-.62-.32-1.45-.43-1.57-1.35a7.09,7.09,0,0,1,2.59-1.53c4.27,1.37,7.91,3.94,11.6,6.36,1.07.7,2.51,1.59,1.57,3.39C128.51,155.37,127.76,155.89,126.76,155.19Z" transform="translate(0)"/><path class="cls-71" d="M136.07,267.69a4.67,4.67,0,0,1-2.43,2.14,91.71,91.71,0,0,1-18.47,6.3c-1.68.34-3.11,1.49-5,1.17-.79-.12.16.65.24,1a4.1,4.1,0,0,1-2.21-.42c-1.49-1-3.18-.13-4.79-.88,3.5-.51,7-.87,10.48-1.58s7-2.2,10.49-3.34a105.1,105.1,0,0,0,10-4.33A1.16,1.16,0,0,1,136.07,267.69Z" transform="translate(0)"/><path class="cls-72" d="M111.71,245.14a70.14,70.14,0,0,1-17.27,2.66l-.09-1.22c.82-1.65,2.5-1.34,3.81-1.38,4.82-.15,9.4-1.45,14-2.71a1.57,1.57,0,0,1,.36,1.59A1.66,1.66,0,0,1,111.71,245.14Z" transform="translate(0)"/><path class="cls-69" d="M51.4,231.87A46.9,46.9,0,0,1,44.49,222c-.34-.7-1.12-.67-1.51-1.2a13.63,13.63,0,0,1,9.08,4.86C54,227.89,52.49,229.89,51.4,231.87Z" transform="translate(0)"/><path class="cls-73" d="M136.89,153.52c1.6-.71.26-1.27-.18-1.66a55.61,55.61,0,0,0-12.05-8.72c-.5-.25-1-.47-.56-1.13a5,5,0,0,1,2.67-.47,56.69,56.69,0,0,1,14,10.73c.57.6,1.4,1.25.61,2.27-.79.36-1.58-.07-2.38,0C138.15,154.44,137.19,154.64,136.89,153.52Z" transform="translate(0)"/><path class="cls-38" d="M160.44,246c.78,0,1.09-.55,1.5-1.1a82.09,82.09,0,0,0,10.6-18.09c.22-.55.41-1.16,1.22-.73a1.41,1.41,0,0,1,.51,1.32c-1.78,2.24-2.64,5-4.07,7.42-3.18,5.44-6.43,10.81-11.09,15.16a1.1,1.1,0,0,1-.28-.88,19.75,19.75,0,0,1,.84-2.71C159.85,246.13,160.06,245.91,160.44,246Z" transform="translate(0)"/><path class="cls-74" d="M129,154.39c.33-1.93-1.3-2.5-2.44-3.16-3.09-1.81-5.92-4.12-9.41-5.22a1.76,1.76,0,0,1-1.07-1,6.49,6.49,0,0,1,2.71-1.23c.09,1,1,1.21,1.7,1.5,3.76,1.59,6.86,4.22,10.27,6.33a12,12,0,0,1,1.59,1.41c-.47.75-1.33.32-1.57,1C130.4,155.05,129.73,154.86,129,154.39Z" transform="translate(0)"/><path class="cls-75" d="M141.39,154.31c-1.16-2.39-3.24-4-5.2-5.58a69.66,69.66,0,0,0-8.2-5.95,6.83,6.83,0,0,1-1.22-1.24,25.92,25.92,0,0,1,10.27,0l-.94.06c-1,.93-2.3.55-3.48.59-.56.09-1.16-.2-1.84.27a70.14,70.14,0,0,1,10.12,8.22,8,8,0,0,1,1.71,2c.36.73.8,1.53-.36,2A.88.88,0,0,1,141.39,154.31Z" transform="translate(0)"/><path class="cls-47" d="M74.87,204.91c-.49.56-1.16.32-1.75.39-.88-.13-1.85.3-2.64-.39Z" transform="translate(0)"/><path class="cls-53" d="M76.55,283.26h3.84A6.45,6.45,0,0,1,76.55,283.26Z" transform="translate(0)"/><path class="cls-67" d="M34.12,242l.43.45.06,2.21c0,.18-.07.36-.1.53A5.79,5.79,0,0,1,34.12,242Z" transform="translate(0)"/><path class="cls-76" d="M122.33,190.68h-.44a2.6,2.6,0,0,1-1.26-1.37c2.08-1.45,2.28-4,3.52-6,5.23-8.3,12.67-12.89,22.3-14.42,4.58-.73,8.85.36,13.25,1,1.59.23,2.41.62,2.53,2.19-.72.65-1.45.39-2.25.12a27.35,27.35,0,0,0-8.58-1.64,28.46,28.46,0,0,0-15.31,3.91,27.88,27.88,0,0,0-12.2,14.43C123.6,189.65,123.54,190.69,122.33,190.68Z" transform="translate(0)"/><path class="cls-45" d="M151.68,159.21l2.08,1.41c-.1,1.14-1,.92-1.67.89a39,39,0,0,0-23.94,7.11A32.9,32.9,0,0,0,118.37,179c-.56.94-1,2.13-2.49,1.41-.15-.72-.89-1.29-.57-2.13a41.84,41.84,0,0,1,20-16.74,47.92,47.92,0,0,1,13.58-2.87A5.11,5.11,0,0,1,151.68,159.21Z" transform="translate(0)"/><path class="cls-77" d="M157.34,164.13l.91,1.31c-.31,1.48-1.42.9-2.26.81-9-1-17.48.31-25.06,5.69a32.71,32.71,0,0,0-10.19,11.73c-.5,1-.73,2.13-1.94,2.55-1.09-.54-1.16-1.75-1.73-2.63a1.91,1.91,0,0,1,.72-.47c1.67-1.9,2.56-4.3,4.11-6.28a3.15,3.15,0,0,1,.59-.72c1.76-1.45,3.22-3.2,4.9-4.73a3.69,3.69,0,0,1,.55-.4,37.63,37.63,0,0,1,18.34-7.55A25.49,25.49,0,0,1,157.34,164.13Z" transform="translate(0)"/><path class="cls-78" d="M115.88,180.41c.64-.24,1.29-.21,1.73-1,3.36-6.25,8.53-10.54,14.72-13.93,5.63-3.07,11.68-4,17.85-4.76,1.19-.14,2.41.92,3.59-.06a2.56,2.56,0,0,1,1.39,1.26c-.32,1.56-1.62,1-2.49,1A43.43,43.43,0,0,0,141.49,164a35.52,35.52,0,0,0-23.23,18c-.26.47-.36,1.19-1.18,1.1A5.14,5.14,0,0,1,115.88,180.41Z" transform="translate(0)"/><path class="cls-79" d="M118.8,186.22a33.81,33.81,0,0,1,19.8-18.95c5.72-2.13,11.63-2.2,17.59-1.53.73.08,1.45.36,2.06-.3.29.44.59.88.88,1.33-.25,1.21-1.13.79-1.86.68a38.07,38.07,0,0,0-12.69-.09A29.83,29.83,0,0,0,132.8,172a3.43,3.43,0,0,1-.54.4A31,31,0,0,0,121,185.31c-.38.77-.4,2-1.77,1.83Z" transform="translate(0)"/><path class="cls-80" d="M151.68,159.21c-9.25.12-17.81,2.38-25.34,8a38.54,38.54,0,0,0-9.12,9.43c-.5.73-.87,1.57-1.91,1.66,0-.15-.09-.3-.14-.44l.13-.45a39.12,39.12,0,0,1,13.94-13.59,8.12,8.12,0,0,0,1.8-1.61c3.91-2.69,8.45-3.57,13-4.42a40.08,40.08,0,0,1,4.78-.64,1.29,1.29,0,0,1,1.47.78Z" transform="translate(0)"/><path class="cls-81" d="M117.08,183.12c5.77-11.61,15.14-18.24,27.88-20.41,2.65-.45,5.27-.22,7.9-.38.78,0,1.65.27,2.3-.45a3,3,0,0,1,1.31,1.34c-.67.94-1.65.46-2.42.39a34.84,34.84,0,0,0-26.4,8h0a16.16,16.16,0,0,0-4.87,4.87l-.45.44c-1.92,1.92-3,4.42-4.43,6.65h-.83C117.08,183.43,117.08,183.27,117.08,183.12Z" transform="translate(0)"/><path class="cls-42" d="M119.23,187.14c1.12-1.95,2.13-4,3.39-5.82,2.53-3.7,5.32-7.17,9.47-9.24-.84,2.12-3.06,2.86-4.44,4.43h0a36,36,0,0,0-6.78,10.12c-.23.5-.37,1.18-1.2,1Z" transform="translate(0)"/><path class="cls-82" d="M119.67,187.58c1.74-2.33,2.69-5.14,4.5-7.45a17.84,17.84,0,0,1,3.48-3.62c-.14,1.47-1.41,2.17-2.25,3.12-2.32,2.62-3,6.19-5.27,8.81C119.76,188.27,119.72,187.92,119.67,187.58Z" transform="translate(0)"/><path class="cls-18" d="M129.87,196.44l-1.33-.44-.89-.46a20.51,20.51,0,0,1,5.93-12.71c7.21-7.58,18-8.64,26.72-5a7.44,7.44,0,0,1,3.43,2.31,14.2,14.2,0,0,1,0,2.44c-1.05.87-1.76-.07-2.52-.52-6.72-3.94-13.56-4.18-20.46-.57-4.76,2.5-7.67,6.55-9.31,11.6C131.07,194.27,130.88,195.55,129.87,196.44Z" transform="translate(0)"/><path class="cls-51" d="M124.56,193.32c0-.14,0-.28,0-.42a18.58,18.58,0,0,1,5.82-11.37,37.23,37.23,0,0,1,6-5.17,24.7,24.7,0,0,1,12.2-4,26.23,26.23,0,0,1,10.9,1.35,7.74,7.74,0,0,1,3.68,2.33c.5.33.42.85.45,1.34a.37.37,0,0,1,0,.58c-2.13.18-4-.72-5.89-1.49a18.71,18.71,0,0,0-12.51-.63c-4.49,1.25-8.67,3.2-11.92,6.75a26.55,26.55,0,0,0-5.74,9.52c-.26.75,0,2.2-1.61,1.66Z" transform="translate(0)"/><path class="cls-83" d="M125.87,193.79c.37-.07.74-.17.83-.6,1-5.37,4.15-9.5,8.16-12.94a23.71,23.71,0,0,1,7.6-4.2,33.47,33.47,0,0,1,6.75-1.55,14.21,14.21,0,0,1,7.31.87c2.31,1,4.74,1.52,7,2.47a2.52,2.52,0,0,1,0,2.21c-2.85-1.09-5.43-2.83-8.58-3.25-8.18-1.1-15.44.55-21.24,6.72a19.73,19.73,0,0,0-5.14,9.85,6.55,6.55,0,0,1-.95,2.17A4.75,4.75,0,0,1,125.87,193.79Z" transform="translate(0)"/><path class="cls-84" d="M129.87,196.44c1.8-8.41,6.18-14.69,14.77-17.22a19.82,19.82,0,0,1,17.76,3,6.53,6.53,0,0,0,1.17.53c.53.87,1,1.71-.42,2.22-2.54-1.47-4.86-3.34-7.8-4-9.54-2.23-19,2.48-22.37,11.58-.59,1.59-.75,3.27-1.34,4.84A2.43,2.43,0,0,1,129.87,196.44Z" transform="translate(0)"/><path class="cls-85" d="M163.15,184.93c.67-.64.32-1.47.42-2.22s0-1.77,0-2.66v-2.21c0-.15,0-.3,0-.44,0,0,.14.1.14.16.13,3.49,1.17,6.83,1.63,10.27a63.88,63.88,0,0,1-1,20.74,66,66,0,0,1-6.56,18.36,1.54,1.54,0,0,1-1.37.95c-1.28-.15-1.53-1-1.37-2.07a61.13,61.13,0,0,0,7.39-23.62c.5-4.46.82-8.92-.08-13.38a1,1,0,0,1,.27-.81Z" transform="translate(0)"/><path class="cls-86" d="M111.71,245.14l.4-.94a1.59,1.59,0,0,1,.59,1.16.71.71,0,0,1,0,.21c0,.23.11.32.2.17a46.49,46.49,0,0,1,3.71-4.94A37.07,37.07,0,0,1,131,230.68c8-3.25,16.11-3.08,24.35-1.47.88.17,1.61.75,2.5.88l.39,0c.16.57.33,1.15.5,1.73.21,1.68-1,1.07-1.62.86-4.55-1.62-9.25-1.64-14-1.56-11.7.19-20.37,5.84-27.07,15-.84,1.14-1.15,2.55-1.92,3.72-.45.68-.94,1.74-2,.55-.14-.32-.27-.64-.4-1l-.09-1.71C111.66,246.91,111.68,246,111.71,245.14Z" transform="translate(0)"/><path class="cls-32" d="M112.16,245.56c0-.45,0-.9,0-1.35s0-1.15,0-1.72l.81-1.87a40.45,40.45,0,0,1,18-13,29.85,29.85,0,0,1,9-2c1.54-.09,3-.65,4.54-.74,2.48-.14,4.78.62,7.18.83a4,4,0,0,0,2.38-.08.77.77,0,0,1,1,.58l1.4,1.74c0,.13,0,.26,0,.39-.36,1.56-1.56.84-2.27.65a34.2,34.2,0,0,0-9.4-.87c-13.15.11-23.45,5.61-31,16.29C113.4,244.91,113.1,245.68,112.16,245.56Z" transform="translate(0)"/><path class="cls-87" d="M112.16,245.56A37.14,37.14,0,0,1,125,232.9c5.6-3.24,11.54-5.38,18.11-5.47,4-.06,8.08-.13,12,1.12.54.17,1,.25,1.38-.28a3.45,3.45,0,0,1,1.29,1.82c-1.52.95-2.76-.42-4.1-.65A61.62,61.62,0,0,0,142,228.9c-8.84.19-16.06,4.13-22.48,9.7a28.73,28.73,0,0,0-6.15,7.71c-.23.41-.27,1-.95,1.13C111.92,246.85,112.22,246.18,112.16,245.56Z" transform="translate(0)"/><path class="cls-88" d="M124.1,192.47l-.9-.88c.13-3.12,1.86-5.62,3.34-8.16,2.28-3.92,5.82-6.63,9.54-9.1a2.44,2.44,0,0,1,.52-.39c.78-.16,1.35-.77,2.1-1a26.86,26.86,0,0,1,10.8-2.53c4.57-.12,9.12.52,13.18,3l.43.89c-.46.92-1.12.71-1.86.38a25.31,25.31,0,0,0-20.76-.32c-7.29,3-12.64,8.13-15.26,15.77C125,191,124.88,191.89,124.1,192.47Z" transform="translate(0)"/><path class="cls-27" d="M124.1,192.47c1.62-8,6.73-13.52,13.44-17.38a24.49,24.49,0,0,1,16.27-2.9c2.68.43,5.55.38,7.85,2.25.5.4,1,.08,1.45-.14,0,.59,0,1.17,0,1.76a26,26,0,0,0-11.95-3.15c-5.48,0-10.45,1.15-15,4.37a28.06,28.06,0,0,0-9.94,11.37c-.63,1.39-.66,3-1.68,4.25C124.4,192.75,124.25,192.61,124.1,192.47Z" transform="translate(0)"/><path class="cls-57" d="M162.68,173.41a41.41,41.41,0,0,0-10.44-2.5,26.05,26.05,0,0,0-10.57,1.46c-1.11.39-2.25.7-3.38,1-.49.48-1.2.55-1.77.89a.61.61,0,0,1-.89,0c3.2-2.55,7-3.34,10.92-4A27.75,27.75,0,0,1,161.14,172a3.57,3.57,0,0,0,1.09.05Z" transform="translate(0)"/><path class="cls-82" d="M127.65,176.51c1.07-1.89,3.17-2.74,4.44-4.43a33.11,33.11,0,0,1,20.22-5.51A21.79,21.79,0,0,1,160,168.1c-1.5,1.13-3,0-4.42-.15-6.59-.67-12.88-.34-19,2.84C133.43,172.46,130.69,174.68,127.65,176.51Z" transform="translate(0)"/><path class="cls-89" d="M127.65,171.64c3.35-3.72,7.72-5.62,12.38-7.11,5.4-1.72,10.93-1.33,16.44-1.31l.42,0,.45.89c-.92.66-1.86,0-2.72-.08-9.75-1.17-18.38,1.5-26.14,7.34A2.68,2.68,0,0,1,127.65,171.64Z" transform="translate(0)"/><path class="cls-42" d="M160,168.1a66.89,66.89,0,0,0-8.23-1.27,32,32,0,0,0-17.67,4.43,14.36,14.36,0,0,1-2,.82c2.28-2.36,5.29-3.33,8.29-4.31a33.59,33.59,0,0,1,17.57-.7c.47.1.87.12,1.18-.3Z" transform="translate(0)"/><path class="cls-70" d="M135.63,174.3h.89c-1.75,1.95-4,3.24-6,5a28,28,0,0,0-7,11.45,7.28,7.28,0,0,1-.37.8l-.87-.91c1-1.89,1.93-3.77,2.83-5.69a21.55,21.55,0,0,1,8.15-9.13C134.1,175.36,134.52,174.32,135.63,174.3Z" transform="translate(0)"/><path class="cls-6" d="M136.52,199.53h-.89c-2.06-1.07-2.33-2.17-1.14-5.62,4-11.42,17.35-15.34,27-7.6a2,2,0,0,1,.74,1.73c.38,1,.16,1.61-.88,1.9a5,5,0,0,1-1.81-1.22,14.15,14.15,0,0,0-17.07-.75,11.84,11.84,0,0,0-4.9,7.34C137.21,196.71,137.46,198.28,136.52,199.53Z" transform="translate(0)"/><path class="cls-90" d="M161.37,189.83a2.69,2.69,0,0,0,.87-1.79l.43,0c1.51,4.2.83,8.48.59,12.78a61,61,0,0,1-2.38,12.88,58.16,58.16,0,0,1-4.55,11.41c-.28.53-.56,1-1.27,1.06l-.82-.42c-.65-.15-1.19-.38-.85-1.22,3.21-4.63,4.82-9.94,6.09-15.3a53.41,53.41,0,0,0,1.4-18.39A1.35,1.35,0,0,1,161.37,189.83Z" transform="translate(0)"/><path class="cls-91" d="M112.13,250.46c1.22.62,1.39-.47,1.66-1.13,2.35-5.91,6.81-10,11.88-13.46a28.83,28.83,0,0,1,12.68-5.06,90.6,90.6,0,0,1,10.94-.22,24.59,24.59,0,0,1,8.08,1.63c.42.15,1.17.72,1.32-.37a2.78,2.78,0,0,1,.91,1.77c0,.15,0,.3,0,.45-1,1-1.08,1-2.9.29a31,31,0,0,0-9.24-2,33.31,33.31,0,0,0-16.52,3,31.08,31.08,0,0,0-14.26,12.73,20,20,0,0,0-2.43,4.68c-.15.57-.31,1.37-1.26,1.24-.27-.61-.54-1.23-.82-1.85C112.14,251.62,112.14,251,112.13,250.46Z" transform="translate(0)"/><path class="cls-92" d="M136.07,267.69l-1.76.09h-3.13a1.29,1.29,0,0,1-1.66-.29c-1.43-3.57-.65-7.06,1.09-10.15a15.83,15.83,0,0,1,10.44-8.19c4.77-1.06,9.37-.58,13.5,2.24,1,.69,2.32,1.4,1.92,3.07a9,9,0,0,1-2.24,3,12.3,12.3,0,0,0-7-4.18c-6.48-1.45-13.54,4.06-13.63,10.67,0,1.71.26,2.9,2.28,2.89a1,1,0,0,1,.73.46Z" transform="translate(0)"/><path class="cls-93" d="M129.85,267.34c.36.41.87.33,1.33.43-5.78,2.07-11.44,4.44-17.46,5.89-8.52,2-17.15,2.16-25.81,2a9.39,9.39,0,0,1-1.93-.42c-1.1-1.63-3-.49-4.4-1.28-.39-.22-1,0-1.36-.49,2.51-.25,5,1.11,7.53,0h0a3.62,3.62,0,0,0,2.34.44h9.07a3.62,3.62,0,0,0,2.34-.44h0a65.3,65.3,0,0,0,25.27-6.19l.48,0A1.8,1.8,0,0,1,129.85,267.34Z" transform="translate(0)"/><path class="cls-3" d="M161.37,189.83l0,.83a4.42,4.42,0,0,1-1.83,2.83,1.17,1.17,0,0,1-.64-.06c-1.89-1.46-3.58-3.17-6-3.9-5.33-1.59-11.36,2.48-11.75,8.05a4.08,4.08,0,0,1-.52,2.53,1.88,1.88,0,0,1-1.34.35,2,2,0,0,1-1-.48,3,3,0,0,0-1.77-.45c-.11-7.35,3.62-12.46,10.53-14.35C151.87,183.87,158.28,185.89,161.37,189.83Z" transform="translate(0)"/><path class="cls-22" d="M138.29,200h.89c.74.55,1.47,0,2.21,0a1.92,1.92,0,0,1,.67.15,1,1,0,0,1,.5.47c.23,4.52-1.21,8.69-3,12.68-1.24,2.76-2.14,5.81-4.56,7.93-1.95.7-3.78,1.88-6,1.43,1.75-3.46,4.35-6.41,5.89-10A42,42,0,0,0,138.29,200Z" transform="translate(0)"/><path class="cls-94" d="M115.68,234.5l.51-1.29c1-1.1,2-2.19,3-3.28,3.94-2.38,7.76-4.93,12.29-6.23a61.49,61.49,0,0,1,13.66-2.19,5.63,5.63,0,0,0,1.52-.21,3.31,3.31,0,0,1,1.33,0,11,11,0,0,1,2.48,1c.65.59,1.72.81,1.68,2-.54.72-1.29.55-2,.48A41.72,41.72,0,0,0,119,233.58a9.75,9.75,0,0,1-2.53,1.76C115.69,235.63,115.29,235.38,115.68,234.5Z" transform="translate(0)"/><path class="cls-95" d="M146.74,221.59c-2.55,1-5.28.72-7.92,1.15-5.75.94-11.27,2.3-16.09,5.8a5.25,5.25,0,0,1-3.59,1.39,25,25,0,0,1,7.59-6.05c.75-.44,1.51-.85,2.27-1.27l5.75-1.82a11.84,11.84,0,0,1,4-1.08,19.5,19.5,0,0,1,3.33.14,26.56,26.56,0,0,0,2.78.5C145.51,220.69,146.53,220.52,146.74,221.59Z" transform="translate(0)"/><path class="cls-96" d="M136.56,267.3c-3.82-.14-3.42.72-3.63-3.48-.23-4.42,3.79-9,7.72-10.53a12.27,12.27,0,0,1,12,1.71c.84.6,1.7,1.22,1.55,2.46a5,5,0,0,1-2.23,2.2c-1.1-.1-1.81-.9-2.67-1.44a7.43,7.43,0,0,0-7.93-.21,6.77,6.77,0,0,0-3.85,6.2,4.63,4.63,0,0,0,.82,2.67C137.85,267.39,137.19,267.28,136.56,267.3Z" transform="translate(0)"/><path class="cls-84" d="M129.85,267.34l-2.6-.07a2.71,2.71,0,0,1-.06-.38,3.09,3.09,0,0,1-1-2.8c1-10.91,8.26-17.37,18.84-18A17.64,17.64,0,0,1,157,250.22c.62.48,1.36,1,.84,2-.31.73-.63,1.47-.95,2.2l-.37,0c-2.67-3.69-6.26-5-10.81-5a14.75,14.75,0,0,0-8.69,2.18c-3.57,2.39-6.52,5.31-7.12,9.91C129.59,263.46,129.13,265.39,129.85,267.34Z" transform="translate(0)"/><path class="cls-97" d="M138.37,266.88c-.81,0-1.31-.24-1.43-1.24a8.07,8.07,0,0,1,6.05-9c3.72-1.05,6.51.5,9,3-.56.52-.82,1.37-1.69,1.54-2.17-2.1-4.63-3-7.6-1.9a4.88,4.88,0,0,0-2.58,7.13C139.64,266.94,139,266.85,138.37,266.88Z" transform="translate(0)"/><path class="cls-26" d="M140.13,266.43c-.56-.08-1.14,0-1.37-.8-.73-2.44,1.06-5.93,3.56-6.83,3.66-1.32,6.83-.37,8,2.4l-.95.74c-1.63-.7-3-1.94-5.06-1.57-2.84.52-4.2,3.12-2.82,5.62A1.63,1.63,0,0,1,140.13,266.43Z" transform="translate(0)"/><path class="cls-98" d="M141.48,266c-1.18.06-1.45-.6-1.43-1.65a4.72,4.72,0,0,1,3.17-4.33c2.2-1,4.4-.2,6.14,1.93a1.85,1.85,0,0,1-1.34.82,2.78,2.78,0,0,1-1-.39,2.75,2.75,0,0,0-3.41-.08c-1.26.83-1.24,2-.83,3.24l-.49.47Z" transform="translate(0)"/><path class="cls-99" d="M142.78,265.53c-1.64-.81-1.06-2-.35-3a3.36,3.36,0,0,1,4.42-1.05,9.39,9.39,0,0,1,1.17,1.26A13.13,13.13,0,0,1,142.78,265.53Z" transform="translate(0)"/><path class="cls-76" d="M160.9,242.49a2.84,2.84,0,0,1-.45,1.77c-1.13.69-2-.14-2.83-.6-8.67-4.6-17.38-4.67-25.65.58-6.18,3.92-10.56,9.41-11.29,17.12a3.15,3.15,0,0,1-1,2.37l-1.34-.88a23.53,23.53,0,0,1,3.87-12.33,25.06,25.06,0,0,1,8.75-8.43c5.95-3.28,12.2-4.79,19.08-3.36a43.49,43.49,0,0,1,10.42,3.75C160.61,242.27,160.76,242.26,160.9,242.49Z" transform="translate(0)"/><path class="cls-100" d="M160.9,242.49h-.44a1.84,1.84,0,0,0-1.15-1.91c-10.51-6.12-25.28-4.34-33.81,4.22a28,28,0,0,0-8,14.13,2.7,2.7,0,0,1-.89,1.72l-1.33-1.33c0-.14,0-.29,0-.43,1.44-1.05,1-2.83,1.5-4.22a27.8,27.8,0,0,1,11.16-14.09c1.21-.77,2.1-2.1,3.75-2.07a31.67,31.67,0,0,1,18.6-2.69,34.83,34.83,0,0,1,8.93,2.84,3.45,3.45,0,0,1,1.73,1.62c0,.45,0,.89,0,1.33S160.9,242.2,160.9,242.49Z" transform="translate(0)"/><path class="cls-101" d="M105,208l.45-.44,1.77-1.78h0c3.09-3.13,4.1-7,4-11.26a14,14,0,0,0-1.76-6.89c-2-2-3.53-4.43-6.07-5.9-.82-.48-1.63-.93-2.49-1.34s-1.81-.81-1.64-2.06c7,2,11.26,6.32,12.84,13.34,2.15,9.48-4.42,18.62-13.54,20.52-5.46,1.13-11,.68-15.26-3.75,1.48-.35,2.31,1,3.55,1.33C93.26,212.58,99.35,212.24,105,208Z" transform="translate(0)"/><path class="cls-101" d="M86.87,209.72c-1.44.24-2.27-1.16-3.55-1.33-2.11-.54-2.69-2.6-4-4,.72,0,1.47-.13,2,.49A41.86,41.86,0,0,0,86.87,209.72Z" transform="translate(0)"/><path class="cls-13" d="M113.92,257.08l-.42-1.34c.59-4.07,2.69-7.46,5.15-10.57A33.52,33.52,0,0,1,158,234.73a3.25,3.25,0,0,1,2,1.56h0c-.11.95-.62.79-1.24.49a32.88,32.88,0,0,0-13.21-3.05,30.69,30.69,0,0,0-9.85,1.56,31.3,31.3,0,0,0-17.2,13c-1.83,2.72-2.8,5.89-4.18,8.84Z" transform="translate(0)"/><path class="cls-29" d="M160.9,240.27c-7.41-4.83-15.43-5.41-23.83-3.38-1.84.45-3.5,1.46-5.43,1.61,5-3.28,10.53-3.72,16.24-3.37,4.07.26,7.76,1.9,11.6,3C161.14,238.6,160.86,239.28,160.9,240.27Z" transform="translate(0)"/><path class="cls-101" d="M105,208c-3.73,3.85-8.4,4.55-13.38,3.65-1.64-.29-3.58-.31-4.79-1.88,2.44.3,4.7,1.4,7.26,1.39a15.77,15.77,0,0,0,9.3-2.53A7.1,7.1,0,0,1,105,208Z" transform="translate(0)"/><path class="cls-101" d="M109.48,187.58c2.15,2.17,2.12,5,2.14,7.74a15.67,15.67,0,0,1-3,9.47c-.37.51-.71.93-1.38.94a38.32,38.32,0,0,0,2.19-3.76,16.1,16.1,0,0,0,.25-13.11A5.91,5.91,0,0,1,109.48,187.58Z" transform="translate(0)"/><path class="cls-101" d="M107.26,205.73a1.87,1.87,0,0,1-1.77,1.78A1.87,1.87,0,0,1,107.26,205.73Z" transform="translate(0)"/><path class="cls-51" d="M160,246.47a4.39,4.39,0,0,1-.86,2.67c-6-5-13-6.15-20.31-4.08-4.24,1.21-8.23,3.36-10.73,7.58-1.89,3.21-3.74,6.31-4,10.11-.09,1.06.53,2.21-.39,3.17l-.44,0a1,1,0,0,0-.89-.44l-.9-.87a2.2,2.2,0,0,1-.46-2.07c2.54-12.52,10.19-20.57,23.72-21.37A20.76,20.76,0,0,1,160,246.47Z" transform="translate(0)"/><path class="cls-18" d="M157.79,252.21c-.87-2-2.83-2.69-4.54-3.53a18.25,18.25,0,0,0-25.52,10.67c-.76,2.42-1.36,4.95-.54,7.54l-1.71-.07-.48-.45a13.32,13.32,0,0,1,.81-9c3.39-8.41,11.19-13.15,20.25-12.82a20.25,20.25,0,0,1,10.63,3.22c.86.56,2.09.91,2,2.32A4.36,4.36,0,0,1,157.79,252.21Z" transform="translate(0)"/><path class="cls-83" d="M158.73,250.07c-4.47-4-9.67-5.07-15.61-4.86-7.86.28-15.7,7.15-17.44,14.36-.55,2.27-.15,4.57-.68,6.8l-1.33-.45c-.86-7.78,2.62-13.7,8.46-18.23a19.17,19.17,0,0,1,10.25-4,22.4,22.4,0,0,1,8,.38c3.21.92,6.87,1.61,8.76,5l0,.86Z" transform="translate(0)"/><path class="cls-59" d="M126.77,267.29c-.11,1-1,1.22-1.72,1.48a90.58,90.58,0,0,1-20.55,5.13,4.47,4.47,0,0,1-3-.42c1.21-1,2.71-.43,4-.61a85.15,85.15,0,0,0,19.72-5.28A8.3,8.3,0,0,1,126.77,267.29Z" transform="translate(0)"/><path class="cls-59" d="M101.5,273.48c-.37.8-1.06.89-1.84.89H89.59c-.78,0-1.47-.09-1.84-.89Z" transform="translate(0)"/><path class="cls-63" d="M160,246.47c-2.51-.86-4.6-2.57-7.15-3.38-9.18-2.9-17.31-.91-24.27,5.45A19.75,19.75,0,0,0,122.4,260c-.27,1.57-1.4,2.95-1,4.65l-.87,0c-.29-.3-.59-.59-.89-.89.54-4.88,1.55-9.61,4.78-13.52,6.43-7.78,14.42-11.52,24.78-10.17,4.19.56,7.44,2.93,11.21,4.22,0,.59,0,1.18,0,1.76Z" transform="translate(0)"/><path class="cls-87" d="M148.93,157.53c-3.56.83-7.23,1.07-10.73,2.15a24.82,24.82,0,0,0-7,3.1A48.8,48.8,0,0,0,119.47,172c-1,1.09-1.82,2.3-2.74,3.44-.38.47-.55,1.29-1.46,1-.67-1.71-.35-3.51-.46-5.27a1.94,1.94,0,0,1,.36-.15,1.12,1.12,0,0,1,.43.46c.17.32.08.72.33,1.05,6.06-7.8,14-12.66,23.44-15.3,2.28-.63,4.69-.51,6.9-1.43A2.27,2.27,0,0,1,148.93,157.53Z" transform="translate(0)"/><path class="cls-102" d="M129,154.39a2.61,2.61,0,0,0,1.78-.42l3.44-.08a2.41,2.41,0,0,1,1.9,0c-.12,1.12-1,1.31-1.73,1.58a53.94,53.94,0,0,0-16,9.65c-1.24,1.05-1.28,1-1.93,0l.15-.58q1.32-2,2.66-4l3.1-3.11c1.68-.37,2.81-1.79,4.43-2.27Z" transform="translate(0)"/><path class="cls-103" d="M115.27,171.61c0-.18-.07-.35-.1-.53a4.6,4.6,0,0,1,.46-2.63,47.18,47.18,0,0,1,19.3-12.84c1.42-.52,3.08-.46,4.26-1.62l2.2.32.85.09c.36.21.92,0,1.12.56.07,1.31-1,1.34-1.81,1.51a44.86,44.86,0,0,0-20.75,10.41,29.41,29.41,0,0,0-3.42,3.46C116.85,171,116.39,171.87,115.27,171.61Z" transform="translate(0)"/><path class="cls-104" d="M139.19,154c.38.73.08,1.07-.65,1.25a43.52,43.52,0,0,0-21.73,12.81c-.27.28-.52,1.07-1.18.4.26-1.12.53-2.23.79-3.35.23.48.45.68,1,.21a52.24,52.24,0,0,1,18-10.85c.12,0,.19-.2.4-.43l-1.56-.14c.83-.56,1.8-.16,2.68-.37C137.58,154.07,138.45,153.72,139.19,154Z" transform="translate(0)"/><path class="cls-105" d="M115.68,234.5c.14,1.05.57.5,1,.17a44.11,44.11,0,0,1,15.53-8.87,42.68,42.68,0,0,1,18.2-1.62c.59.06,1.15.27,1.66-.19a.45.45,0,0,1,.46-.24,1.25,1.25,0,0,1,.87,1l.88.93c-.39,1.35-1.36.78-2.17.62-2.82-.52-5.77-1.45-8.49-.9-4.06.83-8.27,1-12.19,2.56-6.78,2.79-12.86,6.48-17.4,12.38-.24.31-.53.82-1,.25l.6-2.53C114.41,237,114.64,235.5,115.68,234.5Z" transform="translate(0)"/><path class="cls-80" d="M115.27,176.5a65.09,65.09,0,0,1,7.72-8.37,24.9,24.9,0,0,1,8.21-5.35c-1.17,1.81-3.25,2.43-4.88,3.61a37.27,37.27,0,0,0-9.57,9.83c-.37.56-.66,1.16-1.45,1.17Z" transform="translate(0)"/><path class="cls-106" d="M148.93,157.53c-.84-.56-1.56-1.35-2.67-1.35-.8.43-1.2,0-1.47-.68-.23-2.63-2.31-4.05-4-5.63a74.8,74.8,0,0,0-7.27-6.13c-.73-.53-1.7-1-1.47-2.21l4,0a59.78,59.78,0,0,0,4.94,4.63c3.32,2.51,5.72,5.84,8.34,9,.57.67,2,1.42.89,2.76Z" transform="translate(0)"/><path class="cls-60" d="M160,236.29c-12.63-5.82-24.5-4.63-35.58,3.86a29.77,29.77,0,0,0-10.08,14.09,2.94,2.94,0,0,1-.85,1.51l-.45-.47c0-.41,0-.82-.08-1.24a41.73,41.73,0,0,1,6.84-11.15,33.56,33.56,0,0,1,13.7-9.22,31,31,0,0,1,11.41-2,29.38,29.38,0,0,1,11.64,2c.9.39,1.86,1.37,3,.44C160.29,234.7,159.92,235.54,160,236.29Z" transform="translate(0)"/><path class="cls-88" d="M132.09,141.53c3,2.62,6.08,5.23,9.1,7.86a23.22,23.22,0,0,1,4.09,4.81c.28.42.57,1-.35,1.06-.74.58-1.24.05-1.77-.37l-.92-.49c.74-1.22-.27-1.85-.93-2.53a62.34,62.34,0,0,0-9.76-8.21c-.69-.47-2-.76-1.81-1.65S131.28,141.7,132.09,141.53Z" transform="translate(0)"/><path class="cls-89" d="M122.78,176.51a6.85,6.85,0,0,1,4.87-4.87A31.15,31.15,0,0,1,122.78,176.51Z" transform="translate(0)"/><path class="cls-89" d="M117.9,183.6a12.47,12.47,0,0,1,4.43-6.65c-1.29,2.23-2.58,4.47-3.9,6.68C118.39,183.7,118.08,183.61,117.9,183.6Z" transform="translate(0)"/><path class="cls-70" d="M136.52,174.3a2.41,2.41,0,0,1,1.77-.89A1.57,1.57,0,0,1,136.52,174.3Z" transform="translate(0)"/><path class="cls-107" d="M153.36,224.78l-.93-.78c-.28-.65.12-1.13.39-1.64A55.77,55.77,0,0,0,159,199.55c.09-1.25-.16-2.49-.12-3.75a3.59,3.59,0,0,1,.64-2.5c.21-1.13,1.17-1.77,1.78-2.64.76,3.18.27,6.36.09,9.57a56,56,0,0,1-3.38,16c-.89,2.47-2,4.88-3,7.3A1.89,1.89,0,0,1,153.36,224.78Z" transform="translate(0)"/><path class="cls-88" d="M159.56,193.3a48.93,48.93,0,0,1-1.36,16.54c-1.35,4.92-2.55,10-5.77,14.16l-.2,0-.2,0-1.89-1.37a54.45,54.45,0,0,0,6.67-26.69,3.51,3.51,0,0,1,1-1.77,2.47,2.47,0,0,1,1.35-.84Z" transform="translate(0)"/><path class="cls-108" d="M159.12,193.32a1.56,1.56,0,0,1-.87.91A2.44,2.44,0,0,1,156.5,193c-1.78-2.76-6.73-3.09-9.29-2a8.34,8.34,0,0,0-5.15,7.79c0,.57.28,1.18-.22,1.68l-.44,0c-.22-.3-.68-.13-.89-.44a9.87,9.87,0,0,1,8.4-11.25C153.26,188,156.51,190,159.12,193.32Z" transform="translate(0)"/><path class="cls-14" d="M140.51,200a.94.94,0,0,1,.89.44c-.75-.1-1.59.28-2.22-.44Z" transform="translate(0)"/><path class="cls-18" d="M138.75,220.29l-4,.5A41.63,41.63,0,0,0,141.33,206c.44-1.84.64-3.74.95-5.61.68-.8,1.72-.48,2.54-.83a3.11,3.11,0,0,1,.69-.11,1.64,1.64,0,0,1,1.29.47c-1.06,5.48-2.14,11-4.61,16C141.37,217.65,140.88,219.64,138.75,220.29Z" transform="translate(0)"/><path class="cls-109" d="M145,200c-.79.75-1.78.3-2.68.44l-.44,0a8.52,8.52,0,0,1,4-9.52c4.07-2.12,8.37-1.41,11.11,1.84l1.27,1.51-.92,1.27a.39.39,0,0,1-.55.05c-2.34-3.88-5.94-5-10-3a7.4,7.4,0,0,0-3.44,5.8c0,.61.25,1,.85,1.08A1.43,1.43,0,0,1,145,200Z" transform="translate(0)"/><path class="cls-51" d="M146.74,221.59l-1.84-.78c.79-2.45,2-4.75,2.91-7.14,1.89-4.79,2.32-9.89,3.41-14.84.61-1.13,1.76-1.51,2.83-2a1.31,1.31,0,0,1,1.36.11,2.83,2.83,0,0,1,.67,2.26,60.81,60.81,0,0,1-4.56,19,14,14,0,0,1-1.53,2.68c-.48.66-1,1.3-2,.85Z" transform="translate(0)"/><path class="cls-73" d="M148,221.7c1.91-.54,2.35-2.38,3-3.81a48.2,48.2,0,0,0,4-14.45c.19-2.13,1.32-4.37.2-6.57-.18-.29,0-.49.16-.7a5,5,0,0,1,.62-.49c.31-.18.61-.4,1-.16l.42,0a51.85,51.85,0,0,1-5.52,25.27c-.37.76-.55,1.75-1.67,1.85Z" transform="translate(0)"/><path class="cls-110" d="M151.6,198.71a57.52,57.52,0,0,1-5.48,20.61,2.47,2.47,0,0,1-1.22,1.49,6.28,6.28,0,0,1-2.71-.4,5.85,5.85,0,0,1,1-2.86A51,51,0,0,0,147.8,202c.14-1,.22-2.06,1.18-2.73C149.79,198.79,150.58,198.19,151.6,198.71Z" transform="translate(0)"/><path class="cls-72" d="M149.38,199.54c-1.43,1.37-1,3.27-1.3,4.92-1.12,5.64-2.69,11.09-5.89,15.95l-3.44-.12c2.84-3,3.92-7,5.23-10.75a30.4,30.4,0,0,0,1.52-6.84,3.22,3.22,0,0,1,1.22-2.69,2.18,2.18,0,0,1,1.42-.83A1.28,1.28,0,0,1,149.38,199.54Z" transform="translate(0)"/><path class="cls-111" d="M143.16,154.89l1.77.37a1.57,1.57,0,0,0,1.33.92c-1.07,1.6-2.86.89-4.27,1.18-10,2-18.37,6.75-24.82,14.73-.5.62-1.08,1.18-1.9,2v-2.53a60.77,60.77,0,0,1,8.47-7.87,45.58,45.58,0,0,1,17-7.7C141.59,155.87,142.82,156.16,143.16,154.89Z" transform="translate(0)"/><path class="cls-112" d="M148.07,199.55c-.34.47-.87.39-1.35.46l-1.33,0a2.54,2.54,0,0,1-.78-1.55c-.25-2.43,2.34-5.29,5.36-5.91,2.2-.45,5,1.46,5.59,3.87l-.42.49-.9.42c-.82-.23-1.19-1.06-1.87-1.46a3.25,3.25,0,0,0-4,.25A2.29,2.29,0,0,0,148.07,199.55Z" transform="translate(0)"/><path class="cls-113" d="M155.56,196.38c-.28-.34-.53-.7-.83-1-2.57-2.65-3.86-2.93-6.73-1.52-2.12,1-3,3.21-2.61,6.12l-.43,0-.9,0c-1.53-3.29.58-7,4.62-8.14a7.18,7.18,0,0,1,6.44,1.39c.89.65,1.65,1.54.93,2.82Z" transform="translate(0)"/><path class="cls-114" d="M156.05,196c-.58-2.71-3.78-4.49-6.62-3.85-3.51.78-5.89,3.47-5.37,7.78-.73,0-1.21-.14-1.35-1-.4-2.68,2-6.23,5.06-7.44,2.77-1.08,7.33.06,8.62,2.15a3,3,0,0,1,.52,1.88C156.62,195.69,156.33,195.86,156.05,196Z" transform="translate(0)"/><path class="cls-115" d="M148.07,199.55c-1.89,0-1.45-1.37-1.2-2.36a3.24,3.24,0,0,1,3-2.51,3.8,3.8,0,0,1,4.35,2.61l-2.64,1.42-2.22.83Z" transform="translate(0)"/></svg>