<?xml version="1.0" encoding="utf-8"?>
<!-- Generator: Adobe Illustrator 26.5.0, SVG Export Plug-In . SVG Version: 6.00 Build 0)  -->
<svg version="1.1" id="Layer_1" xmlns="http://www.w3.org/2000/svg" xmlns:xlink="http://www.w3.org/1999/xlink" x="0px" y="0px"
	 viewBox="0 0 802.15 218.57" style="enable-background:new 0 0 802.15 218.57;" xml:space="preserve">
<style type="text/css">
	.st0{fill:#BEB3B6;}
	.st1{fill:#8EC743;}
	.st2{fill:#20656C;}
	.st3{fill:#E0DC37;}
	.st4{fill:#E0DC35;}
	.st5{fill:#92C84B;}
	.st6{fill:#5C5C5B;}
	.st7{fill:none;stroke:#010101;stroke-width:1.9843;stroke-miterlimit:10;}
	.st8{fill:#010101;stroke:#010101;stroke-width:1.9843;stroke-miterlimit:10;}
	.st9{fill:#010101;}
	.st10{font-family:'MyriadPro-Regular';}
	.st11{font-size:40px;}
	.st12{font-size:59px;}
</style>
<g>
	<circle class="st0" cx="147.74" cy="121.55" r="11.58"/>
	<circle class="st1" cx="101.36" cy="122.55" r="18.06"/>
	<circle class="st2" cx="130.69" cy="155.77" r="18.06"/>
	<path class="st0" d="M226.03,139.1c0-11.38,0-22.75,0-34.12c0-4.69,0.6-5.22,5.2-5.24c4.6-0.02,9.16,0,13.74,0
		c4.57,0,5.21,0.52,5.38,5.08c0,1.1-0.55,2.53,0.72,3.23s2.12-0.61,2.94-1.35c5.65-5.08,11.73-8.77,19.83-8.67
		c8.79,0.11,15.11,4.16,20.23,10.73c2.46,3.16,3.14,3.33,5.36,0.15c9-13,31.54-15.25,41.77-2.02c3.46,4.47,4.96,9.64,5.71,15.11
		c1.17,8.45,0.72,16.94,0.75,25.42c0,9.15-0.08,18.31,0.06,27.46c0,3.05-0.99,4.22-4.09,4.12c-5.35-0.18-10.73-0.2-16.08,0
		c-3.37,0.13-4.23-1.26-4.21-4.4c0.11-15.57,0-31.12,0.07-46.68c0.07-2.89-0.94-5.71-2.83-7.91c-6.08-7.25-15.6-2.66-18.98,5.13
		c-1.76,4.48-2.61,9.26-2.5,14.08c-0.16,11.64-0.16,23.28,0,34.92c0,3.52-0.84,5.02-4.61,4.81c-5.09-0.27-10.22-0.22-15.31,0
		c-3.39,0.14-4.59-0.99-4.55-4.47c0.14-15.17,0.15-30.33,0-45.5c-0.06-4.38-0.46-8.98-5.24-11.38c-4.33-2.16-8.01-1.5-11.73,1.77
		c-5.47,4.77-7.13,11.06-7.2,17.89c-0.13,12.16,0,24.33-0.06,36.48c0,5.14,0,5.14-5.31,5.15c-4.59,0-9.16,0-13.75,0
		c-4.35,0-5.21-0.82-5.22-5.31C226,162.11,226.03,150.61,226.03,139.1z"/>
	<path class="st3" d="M496.21,139.42c0-11.73,0.11-23.54-0.07-35.31c0-3.67,1.48-4.93,4.87-4.88c4.69,0.08,9.38,0,14.13,0
		s5.09,0.39,5.2,5.15c0,1.23-0.69,2.89,0.68,3.6s2.35-0.88,3.18-1.72c8.08-7.81,17.66-10.39,28.49-7.84
		c7.98,1.89,12.97,7.41,16.15,14.72c2.78,6.38,2.89,13.25,3.04,19.94c0.29,13.34,0.11,26.67,0.08,40.01c0,5.54-0.53,6.09-5.98,6.16
		c-4.69,0.07-9.38,0-14.13,0c-3.41,0.08-4.8-1.04-4.76-4.79c0.14-15.15,0.33-30.32-0.41-45.48c-0.29-6.26-2.67-9.91-7.89-11.73
		c-4.06-1.44-9.83,0.61-13.2,4.76c-4,4.93-5.08,10.86-5.18,16.91c-0.22,11.73-0.07,23.53-0.09,35.29c0,4.86-0.19,5.01-5.18,5.03
		c-5,0.02-9.95,0-14.92,0c-2.89,0-4.11-1.07-4.06-4.23C496.32,163.22,496.21,151.32,496.21,139.42z"/>
	<path class="st4" d="M666.85,135.69c-0.65,5.04,2.1,7.99-4.69,8c-13.98,0.07-27.71,0-41.66,0c-20.88-2.13,4.93,19.04,15.99,7.04
		c1.57-1.44,3.25-2.69,5.15-1.97c4.8,3.05,16.19,8.3,16.97,12.63c-2.19,7.81-17,14.77-24.89,16.68
		c-32.84,6.74-59.39-31.54-41.14-59.82C614.24,84.74,660.44,98.33,666.85,135.69z M626.16,131.87c23.8,2.35,8.09-8.67-0.88-8.21
		c-3.73-0.16-13.76,4.22-10.31,8.05C618.43,132.24,622.29,131.69,626.16,131.87z"/>
	<path class="st2" d="M28.48,130.51c-6.25,8.52-0.91,21.23,9.38,23.66c8.96,2.76,14.44-6.55,18.77-5.54
		c16,11.13,22.29,12.5,9.89,21.89c-28.97,22.74-69.06-0.82-65.08-35.48c2.73-39.62,56.08-49.38,73.52-17.36
		c-2.85,5.79-11.47,8.75-17.48,13.31c-3.62,1.49-8.72-7.69-14.33-7.2C37.38,123.02,31.67,125.63,28.48,130.51z"/>
	<path class="st5" d="M457.21,138.14c0-11.89,0-23.79,0-35.68c0-1.87-0.07-3.62,1.78-4.86c1.54-1.01,1.6-1.94-0.08-3.26
		c-8.88-7.04-9.86-22.79,5.16-28.59c8.37-3.24,17.85,1.92,20.28,11.42c1.68,6.56,0.07,12.5-5.4,16.91c-1.87,1.5-2.35,2.35,0.35,3.21
		c1.55,0.52,1.82,2.04,1.82,3.52c0,24.98,0,49.95,0,74.92c0,2.35-0.89,3.25-3.25,3.21c-5.62-0.11-11.24-0.11-16.87,0
		c-2.87,0-3.88-1.17-3.86-3.98C457.27,162.72,457.21,150.43,457.21,138.14z"/>
	<path class="st6" d="M151.08,90.63c9.65,0.16,19.62-0.27,29.63,0.3c13.48,4.05,1.17,15,12.63,13.28
		c0.57-28.54-31.15-14.01-42.23-19.94C151.07,85,151.08,90.48,151.08,90.63z"/>
	<path class="st6" d="M148.89,180.77c-0.18,0.04-0.37-0.01-0.52-0.13c-10.35-0.23-38.43,7.86-49.67-7.87
		c-4.03-8.35-1.5-16.86-2.35-33.05c1.56,0.61,3.25,0.84,4.91,0.65c2.71,30.59-15.39,39.45,47.6,36.43
		C149.75,178.14,150.43,179.46,148.89,180.77z"/>
	<path class="st1" d="M419.96,102.28c-9.13-4.49-19.65-5.24-29.32-2.09c-3.23,1.03-3.86-0.18-3.82-3.11c0.12-7.96,0-15.94,0.09-23.9
		c0-3.31-1.17-4.79-4.6-4.69c-4.83,0.19-9.68,0-14.51,0c-5.02,0-5.71,0.68-5.71,5.62c0,16.59,0,33.19,0,49.79v25.58
		c0,8.49,0.11,16.98,0,25.48c-0.06,3.39,1.17,4.77,4.59,4.61c3.41-0.16,6.81,0.16,10.19-0.09c3.71-0.28,7.8,1.45,11.04-2.03
		c0.69-0.73,2.25-0.11,3.39,0.3c1.2,0.48,2.44,0.87,3.69,1.17c22,4.33,43.34-10,47.67-32c3.61-18.32-5.76-36.74-22.69-44.63
		L419.96,102.28z M402.7,154.45c-8.51,0.04-15.44-6.83-15.48-15.34c-0.04-8.51,6.83-15.44,15.34-15.48
		c8.51-0.04,15.44,6.83,15.48,15.34C418.08,147.48,411.22,154.41,402.7,154.45z"/>
	<circle class="st2" cx="133.3" cy="87.48" r="18.06"/>
	<circle class="st3" cx="168.54" cy="177.9" r="20.81"/>
	<circle class="st1" cx="191.3" cy="129.34" r="26.22"/>
</g>
<g>
	<g>
		<line class="st7" x1="35.32" y1="151.13" x2="35.32" y2="84.31"/>
		<line class="st7" x1="35.32" y1="204.16" x2="35.32" y2="156.22"/>
		<path class="st8" d="M36.47,151.13c0,0,1.34,0,2.98,0c1.63,0,6.05,0.58,6.05,0.58l-4.23,4.52h-4.8h0h-4.8l-4.23-4.52
			c0,0,4.42-0.58,6.05-0.58C35.12,151.13,36.47,151.13,36.47,151.13L36.47,151.13z"/>
		<path class="st7" d="M40.69,156.21c0,0,0.68,11.15,1.74,22.68c1.06,11.53,3.27,25.27,3.27,25.27h-9.22h0h-9.22
			c0,0,2.21-13.74,3.27-25.27c1.06-11.53,1.74-22.68,1.74-22.68"/>
		<line class="st7" x1="37.62" y1="151.13" x2="37.62" y2="84.31"/>
		<line class="st7" x1="37.62" y1="204.16" x2="37.62" y2="156.22"/>
		<line class="st7" x1="36.51" y1="77.34" x2="36.51" y2="68.09"/>
		<polyline class="st7" points="27.25,204.16 42.14,176.16 32.25,156.21 		"/>
		<polyline class="st7" points="45.69,204.16 30.8,176.16 40.69,156.21 		"/>
		<line class="st7" x1="29.84" y1="186.82" x2="43.08" y2="186.82"/>
		<line class="st7" x1="30.8" y1="176.16" x2="42.14" y2="176.16"/>
		<line class="st7" x1="31.65" y1="164.71" x2="41.2" y2="164.71"/>
		<line class="st7" x1="32.53" y1="145.22" x2="40.41" y2="145.22"/>
		<line class="st7" x1="32.53" y1="134.27" x2="40.41" y2="134.27"/>
		<line class="st7" x1="32.87" y1="124.47" x2="40.07" y2="124.47"/>
		<line class="st7" x1="33.06" y1="116.11" x2="39.83" y2="116.11"/>
		<line class="st7" x1="33.3" y1="107.56" x2="39.54" y2="107.56"/>
		<line class="st7" x1="33.49" y1="99.87" x2="39.4" y2="99.87"/>
		<line class="st7" x1="33.49" y1="93.05" x2="39.4" y2="93.05"/>
		<line class="st7" x1="33.91" y1="83.97" x2="32.34" y2="151.15"/>
		<path class="st8" d="M38.96,80.97l-0.15-3.63h-4.68l-0.15,3.63h-2.29c0,0,0.97,2.45,2.13,2.95c0.03,0.01,0.06,0.03,0.09,0.04v0.01
			h0.02c1.13,0.45,2.51,0.36,2.51,0.36h0.05c0,0,1.38,0.09,2.51-0.36h0.02v-0.01c0.03-0.01,0.06-0.02,0.09-0.04
			c1.15-0.5,2.13-2.95,2.13-2.95H38.96z"/>
		<line class="st7" x1="40.6" y1="151.15" x2="39.03" y2="83.97"/>
	</g>
	<g>
		<path class="st9" d="M719.53,171.66v-25h-1.96c0-0.01,0-0.02,0-0.03c0-3.71-3.01-6.72-6.72-6.72s-6.72,3.01-6.72,6.72
			c0,0.01,0,0.02,0,0.03h-1.96v25h-12.13v-23.42h-3.24c0-0.03,0-0.06,0-0.09c0-9.24-6.96-16.9-16.07-18.33v-7.31h-2.01v-6.25h-2.12
			v6.25h-2.01v7.31c-9.11,1.43-16.07,9.09-16.07,18.33c0,0.03,0,0.06,0,0.09h-3.24v23.42h-12.13v-25h-1.96c0-0.01,0-0.02,0-0.03
			c0-3.71-3.01-6.72-6.72-6.72s-6.72,3.01-6.72,6.72c0,0.01,0,0.02,0,0.03h-1.96v25h-3.36v25.49h-5.55l-1.43-2.47l-1.43,2.47h-26.78
			v-3.96l1.49-0.64v-4.43l-1.49-0.64v-8.49h-1.5l-2.14-9.31l-2.14,9.31h-1.5v8.49l-1.49,0.64v4.43l1.49,0.64v3.96h-30.53v-3.96
			l1.49-0.64v-4.43l-1.49-0.64v-8.49h-1.5l-2.14-9.31l-2.14,9.31h-1.5v8.49l-1.49,0.64v4.43l1.49,0.64v3.96h-26.78l-1.43-2.47
			l-1.43,2.47h-5.17v-20.09h-22.67l-2.01-78.83h0.85v-3.38h-0.94l-0.08-3.26c4.1-1.45,7.04-5.34,7.04-9.93
			c0-4.32-2.6-8.02-6.31-9.65V58.49h-1.57L469.68,0h-1.28l-2.02,58.49h-1.57v13.53c-3.72,1.63-6.31,5.33-6.31,9.65
			c0,4.59,2.94,8.48,7.04,9.93l-0.08,3.26h-0.94v3.38h0.85l-2,78.83h-17.46v-9.03h-1.6v-7.61h-0.8v-32.92h-6.12l-2.53-8.66
			l-2.53,8.66h-6.12v32.92h-0.8v7.61h-1.6v9.03h-32.15v-37.91l-6.34-1.77l-3,0.2v-3.01c0.45-0.1,0.78-0.49,0.78-0.97
			c0-0.47-0.33-0.87-0.78-0.97v-2.77h-0.42v2.77c-0.45,0.1-0.78,0.49-0.78,0.97c0,0.47,0.33,0.87,0.78,0.97v3.04l-5.07,0.33
			l-2.8,3.08v23.06l-2.84-3.5v-25.26l-2.17-1.75l-0.14-2.1l-1.61,0.42l-0.21-2.17l-0.63-0.07l-0.14-2.73l-0.77-1.19l-2.8-0.21
			l-1.05-0.56l-0.42-2.17c0,0-1.4-0.56-2.45-0.98c-1.05-0.42-1.47,1.19-1.47,1.19l-2.73,15.74v22.95l-1.96,4.41v1.96l-2.38,8.75
			v-11.75l-3.15-17.49l-3.01,17.49l-0.1,12.93l-0.73,1.06v30.12h-7.54v-19.94l1.69-4.79h-1.84l0.63-4.27h-16.86v-0.84h-2.56
			c0.04-0.27-0.01-0.54-0.07-0.76c-0.11-0.37,0.4-0.82,0.47-0.61c0.08,0.21-0.16,0.79,0.11,0.87c0.26,0.08,0.21-1.03,0.26-1.48
			c0.05-0.45,0.05-0.87-0.11-1.24c-0.16-0.37,0.37-1.34,0.37-1.69c0-0.34-0.34-0.58-0.76-0.24c-0.42,0.34-0.58,0.87-0.63,1.21
			c-0.03,0.18-0.06,0.43-0.18,0.71l-1.95-0.25c-0.08-0.3-0.12-0.59-0.01-0.91c0.24-0.68-0.08-1.21-0.42-1.19
			c-0.34,0.03-0.55,0.37-0.66,0.63c-0.11,0.26-0.29,0.5-0.42,0.34c-0.13-0.16-0.05-0.42,0.03-0.74c0.08-0.32,0.08-0.53-0.08-0.55
			c-0.09-0.01-0.24-0.04-0.37-0.05v-1.06c0.32-0.09,0.55-0.38,0.55-0.73c0-0.34-0.22-0.63-0.53-0.72c0.15-0.19,0.48-0.65,0.56-1.04
			c0.11-0.5,0.05-0.76,0.05-0.76s-0.32,0.21-0.45,0.4c-0.11,0.15-0.3,0.54-0.37,0.68c-0.07-0.14-0.26-0.53-0.37-0.68
			c-0.13-0.18-0.45-0.4-0.45-0.4s-0.05,0.26,0.05,0.76c0.08,0.39,0.41,0.85,0.56,1.04c-0.31,0.1-0.53,0.38-0.53,0.72
			c0,0.35,0.23,0.64,0.55,0.73v1.06c-0.12,0.02-0.28,0.04-0.37,0.05c-0.16,0.03-0.16,0.24-0.08,0.55c0.08,0.32,0.16,0.58,0.03,0.74
			c-0.13,0.16-0.32-0.08-0.42-0.34c-0.11-0.26-0.32-0.61-0.66-0.63c-0.34-0.03-0.66,0.5-0.42,1.19c0.11,0.32,0.08,0.61-0.01,0.91
			l-1.95,0.25c-0.12-0.28-0.15-0.53-0.18-0.71c-0.05-0.34-0.21-0.87-0.63-1.21c-0.42-0.34-0.76-0.11-0.76,0.24
			c0,0.34,0.53,1.32,0.37,1.69s-0.16,0.79-0.11,1.24c0.05,0.45,0,1.55,0.26,1.48c0.26-0.08,0.03-0.66,0.11-0.87
			c0.08-0.21,0.58,0.24,0.47,0.61c-0.06,0.22-0.11,0.5-0.07,0.76h-2.56v0.84h-16.86l0.63,4.27h-1.84l1.69,4.79v19.94h-6.68v-33.39
			h-0.39c0.09-0.47,0.47-1.02,0.64-1.31c0.34-0.55,0-1.43-0.21-1.94c-0.21-0.51-0.17-0.55-0.04-0.97c0.13-0.42-0.38-0.63-0.72-0.13
			c-0.34,0.51-0.34,1.73-0.34,2.19s-0.34,0.76-1.01,1.09c-0.38,0.19-0.48,0.67-0.49,1.05h-1.37v-13.89l-1.17-1.64h-7.5v-13.64h-0.59
			v13.64h-7.5l-1.17,1.64v13.89h-6.31l-1.01-2.88l-1.01,2.88h-5.18l-1.01-2.88l-1.01,2.88h-5.18l-1.01-2.88l-1.01,2.88h-5.18
			l-1.01-2.88l-1.01,2.88h-6.11v-6.44h-1.04v-8h-1.01v-1.18h-0.59v-1.6h-0.76v1.6h-0.59v1.18h-1.01v8h-0.98
			c0-7.85-5.4-14.44-12.69-16.26v-1.05h-7.96v1.05c-7.29,1.82-12.69,8.41-12.69,16.26h-0.98v-8h-1.01v-1.18h-0.59v-1.6h-0.76v1.6
			h-0.59v1.18h-1.01v8h-1.04v6.44h-6.11l-1.01-2.88l-1.01,2.88h-5.18l-1.01-2.88l-1.01,2.88h-5.18l-1.01-2.88l-1.01,2.88h-5.18
			l-1.01-2.88l-1.01,2.88h-6.31v-13.89l-1.17-1.64h-7.5v-13.64h-0.59v13.64h-7.5l-1.17,1.64v13.89h-1.37
			c-0.01-0.39-0.12-0.86-0.49-1.05c-0.67-0.34-1.01-0.63-1.01-1.09s0-1.68-0.34-2.19c-0.34-0.51-0.84-0.29-0.72,0.13
			c0.13,0.42,0.17,0.46-0.04,0.97c-0.21,0.51-0.55,1.39-0.21,1.94c0.17,0.28,0.54,0.84,0.64,1.31h-0.39v25.91h-3.33l-0.9-2.38h-0.93
			v-7.37h0.51v-2.33l-4.99-0.96v-2.16l-1.14-0.65V151.6l0.59-1.99v-2.27h-1.36v-2.13c0,0-0.13-0.64-1.35-0.82v-0.82l0.73-0.61
			c0,0,0.47,0.02,0.87-0.14c0.4-0.16,0.68-0.28,0.49-0.59c-0.19-0.32-1.26-2.4-1.26-2.4s0.35-0.18,0.42-0.16
			c0.07,0.02,0-0.26-0.11-0.52c-0.1-0.26-0.59-1.22-0.61-1.36c-0.02-0.14-0.33-0.75,0.52-1.4c0.86-0.65,1.15-1.28,1.35-1.63
			c0.19-0.35,1.1-1.35,1.64-1.8c0.54-0.46,0.18-0.68-0.42-0.39s-2.48,1.84-2.9,2.36c-0.42,0.52-0.79,0.89-0.79,0.89
			s0.18-0.77,0.05-1c-0.23-0.43-0.47-0.46-0.58-0.45c-0.11-0.01-0.35,0.02-0.58,0.45c-0.12,0.23,0.05,1,0.05,1s-0.08-0.09-0.22-0.23
			l-0.21-6.02h-0.3l0.17,5.62c-0.07-0.08-0.15-0.17-0.22-0.27c-0.42-0.52-2.31-2.06-2.9-2.36s-0.96-0.07-0.42,0.39
			c0.54,0.45,1.45,1.45,1.64,1.8c0.19,0.35,0.49,0.98,1.35,1.63c0.86,0.65,0.54,1.26,0.52,1.4c-0.02,0.14-0.51,1.1-0.61,1.36
			c-0.11,0.26-0.18,0.54-0.11,0.52c0.07-0.02,0.42,0.16,0.42,0.16s-1.07,2.08-1.26,2.4c-0.19,0.31,0.09,0.44,0.49,0.59
			c0.4,0.16,0.87,0.14,0.87,0.14l0.73,0.61v0.82c-1.22,0.19-1.35,0.82-1.35,0.82v2.13h-1.36v2.27l0.59,1.99v34.23l-1.14,0.65v2.16
			l-4.99,0.96v2.33h0.51v7.37h-0.93l-0.9,2.38h-4.37v1.28h-9.23l0.47-5.13c0,0,1.85-1.53,2.54-2.17c0.69-0.65,2.45-2.59,3.75-4.21
			c1.29-1.62,0.97-2.36,0.51-3.1c-0.46-0.74-1.39-0.65-3.98-0.28c-2.59,0.37-6.66,1.53-6.66,1.53c-4.9,1.25-7.72,2.87-11.56,3.61
			c-3.84,0.74-9.94,1.11-14.2,0.93c-4.25-0.19-6.47-1.16-7.26-1.57c-0.79-0.42-2.4-1.2-4.07-1.48c-1.67-0.28-1.25,1.48-0.74,2.64
			c0.51,1.16,5.04,6.8,5.04,6.8v2.45H19.02v8.05h323.49v3.09c0,0,0.91,0.77,4.48,1.26c3.57,0.49,11.05-1.47,11.05-1.47l9.17-2.88
			h5.12h1.7v3.9l2.8,2.89l8.49,0.75l6.34-2.71v-4.83h105.73v-2.9c1.89,0.76,3.03,1.76,3.03,2.85h6.87c0-2.4,5.51-4.34,12.31-4.34
			s12.31,1.94,12.31,4.34h11.3v-6.34h23.03v6.34h11.3c0-2.4,5.51-4.34,12.31-4.34c6.8,0,12.31,1.94,12.31,4.34h6.87
			c0-1.16,1.3-2.22,3.42-3v3.05h110.44v-39.37L719.53,171.66L719.53,171.66z M102.02,199.32h-1.82v-7.37h1.82V199.32z
			 M114.41,199.32h-1.82v-7.37h1.82V199.32z M190,203.13h-0.79v-20.75h-4.42v20.75h-0.79V181.6h6L190,203.13L190,203.13z
			 M197.18,203.13h-0.79v-20.75h-4.42v20.75h-0.79V181.6h6L197.18,203.13L197.18,203.13z M204.37,203.13h-0.79v-20.75h-4.42v20.75
			h-0.79V181.6h6L204.37,203.13L204.37,203.13z M211.55,203.13h-0.79v-20.75h-4.42v20.75h-0.79V181.6h5.99L211.55,203.13
			L211.55,203.13z M218.74,203.13h-0.79v-20.75h-4.42v20.75h-0.79V181.6h6L218.74,203.13L218.74,203.13z M179.54,178.02l21.82-9.49
			l0.02,0.04l0.02-0.04l21.82,9.49H179.54z M434.86,136.84L434.86,136.84L434.86,136.84c1.17,0,2.12,0.95,2.12,2.12
			c0,1.17-0.95,2.12-2.12,2.12h0h0c-1.17,0-2.12-0.95-2.12-2.12C432.74,137.79,433.69,136.84,434.86,136.84z M332.84,189.24v19.94
			h-5.51v-19.94H332.84z M324.43,189.24v19.94h-5.51v-19.94H324.43z M316.01,176.51c-0.1,0.13-0.23,0.27-0.4,0.4
			c-0.53,0.41-0.4,1.76-0.3,2.42h-0.8c0.09-0.57,0.24-1.72,0.13-2.32c-0.05-0.27-0.13-0.51-0.21-0.74L316.01,176.51z M309.95,176.27
			c-0.08,0.23-0.16,0.47-0.21,0.74c-0.12,0.6,0.04,1.75,0.13,2.32h-0.8c0.1-0.66,0.23-2.01-0.3-2.42c-0.17-0.13-0.3-0.27-0.4-0.4
			L309.95,176.27z M316.03,189.24v19.94h-7.69v-19.94H316.03z M305.44,189.24v19.94h-5.5v-19.94H305.44z M291.53,189.24h5.51v19.94
			h-5.51V189.24z M497.9,203.41h-0.52v-3c0.31,0.18,0.52,0.52,0.52,0.9V203.41z M501.47,203.41h-2.1v-2.1
			c0-0.58,0.47-1.05,1.05-1.05s1.05,0.47,1.05,1.05V203.41z M505.04,203.41h-2.1v-2.1c0-0.58,0.47-1.05,1.05-1.05
			c0.58,0,1.05,0.47,1.05,1.05V203.41z M508.61,203.41h-2.1v-2.1c0-0.58,0.47-1.05,1.05-1.05c0.58,0,1.05,0.47,1.05,1.05V203.41z
			 M512.17,203.41h-2.1v-2.1c0-0.58,0.47-1.05,1.05-1.05c0.58,0,1.05,0.47,1.05,1.05L512.17,203.41L512.17,203.41z M515.74,203.41
			h-2.1v-2.1c0-0.58,0.47-1.05,1.05-1.05c0.58,0,1.05,0.47,1.05,1.05V203.41z M519.31,203.41h-2.1v-2.1c0-0.58,0.47-1.05,1.05-1.05
			c0.58,0,1.05,0.47,1.05,1.05V203.41z M522.87,203.41h-2.1v-2.1c0-0.58,0.47-1.05,1.05-1.05s1.05,0.47,1.05,1.05V203.41
			L522.87,203.41z M526.44,203.41h-2.1v-2.1c0-0.58,0.47-1.05,1.05-1.05c0.58,0,1.05,0.47,1.05,1.05V203.41z M530.01,203.41h-2.1
			v-2.1c0-0.58,0.47-1.05,1.05-1.05c0.58,0,1.05,0.47,1.05,1.05V203.41z M541.28,202.24v-3.51h9.16c-3.41,1.12-6.16,3.22-7.23,4.11
			v-0.6L541.28,202.24L541.28,202.24z M544.36,203.11c1.84-1.42,5.99-4.19,10.37-4.19c4.38,0,8.53,2.77,10.37,4.19H544.36z
			 M568.18,202.24h-1.93v0.6c-1.06-0.89-3.82-2.99-7.23-4.11h9.16V202.24z M581.55,203.41h-2.1v-2.1c0-0.58,0.47-1.05,1.05-1.05
			c0.58,0,1.05,0.47,1.05,1.05V203.41z M585.12,203.41h-2.1v-2.1c0-0.58,0.47-1.05,1.05-1.05s1.05,0.47,1.05,1.05V203.41z
			 M588.69,203.41h-2.1v-2.1c0-0.58,0.47-1.05,1.05-1.05c0.58,0,1.05,0.47,1.05,1.05V203.41z M592.26,203.41h-2.1v-2.1
			c0-0.58,0.47-1.05,1.05-1.05c0.58,0,1.05,0.47,1.05,1.05V203.41z M595.82,203.41h-2.1v-2.1c0-0.58,0.47-1.05,1.05-1.05
			s1.05,0.47,1.05,1.05V203.41z M599.39,203.41h-2.1v-2.1c0-0.58,0.47-1.05,1.05-1.05c0.58,0,1.05,0.47,1.05,1.05V203.41z
			 M602.96,203.41h-2.1v-2.1c0-0.58,0.47-1.05,1.05-1.05c0.58,0,1.05,0.47,1.05,1.05V203.41z M606.52,203.41h-2.1v-2.1
			c0-0.58,0.47-1.05,1.05-1.05c0.58,0,1.05,0.47,1.05,1.05V203.41z M610.09,203.41h-2.1v-2.1c0-0.58,0.47-1.05,1.05-1.05
			c0.58,0,1.05,0.47,1.05,1.05V203.41z M611.56,203.41v-2.1c0-0.53,0.39-0.96,0.9-1.03v3.14L611.56,203.41L611.56,203.41z"/>
		<polygon class="st9" points="183.32,177.23 219.42,177.23 201.37,169.38 		"/>
	</g>
</g>
<text transform="matrix(0 -0.9639 1 0 754.2758 214.0693)" class="st10 st11">BERLIN</text>
<text transform="matrix(0 -0.9366 1 0 801.5062 213.8454)" class="st10 st12">2022</text>
</svg>
