<?xml version="1.0" encoding="UTF-8" standalone="no"?>
<!-- Created with Inkscape (http://www.inkscape.org/) -->

<svg
   xmlns:dc="http://purl.org/dc/elements/1.1/"
   xmlns:cc="http://creativecommons.org/ns#"
   xmlns:rdf="http://www.w3.org/1999/02/22-rdf-syntax-ns#"
   xmlns:svg="http://www.w3.org/2000/svg"
   xmlns="http://www.w3.org/2000/svg"
   xmlns:sodipodi="http://sodipodi.sourceforge.net/DTD/sodipodi-0.dtd"
   xmlns:inkscape="http://www.inkscape.org/namespaces/inkscape"
   width="1052.3622"
   height="744.09448"
   id="svg2"
   version="1.1"
   inkscape:version="0.48.0 r9654"
   sodipodi:docname="banner-COMBINE_logo.svg"
   inkscape:export-filename="/home/lenov/COMBINE/LOGOS/Banner-COMBINE_logo.png"
   inkscape:export-xdpi="150"
   inkscape:export-ydpi="150">
  <defs
     id="defs4" />
  <sodipodi:namedview
     id="base"
     pagecolor="#ffffff"
     bordercolor="#666666"
     borderopacity="1.0"
     inkscape:pageopacity="0.0"
     inkscape:pageshadow="2"
     inkscape:zoom="0.35"
     inkscape:cx="1247.1763"
     inkscape:cy="402.86164"
     inkscape:document-units="px"
     inkscape:current-layer="layer2"
     showgrid="false"
     inkscape:window-width="1280"
     inkscape:window-height="779"
     inkscape:window-x="-4"
     inkscape:window-y="-4"
     inkscape:window-maximized="1"
     showguides="true"
     inkscape:guide-bbox="true">
    <sodipodi:guide
       orientation="1,0"
       position="40,567.14286"
       id="guide3816" />
    <sodipodi:guide
       orientation="0,1"
       position="551.54329,359.10923"
       id="guide3791" />
  </sodipodi:namedview>
  <metadata
     id="metadata7">
    <rdf:RDF>
      <cc:Work
         rdf:about="">
        <dc:format>image/svg+xml</dc:format>
        <dc:type
           rdf:resource="http://purl.org/dc/dcmitype/StillImage" />
        <dc:title></dc:title>
      </cc:Work>
    </rdf:RDF>
  </metadata>
  <g
     inkscape:groupmode="layer"
     id="layer2"
     inkscape:label="Layer"
     style="display:inline">
    <path
       sodipodi:type="arc"
       style="fill:none;stroke:#1d636a;stroke-width:43.64343643;stroke-miterlimit:4;stroke-opacity:1;stroke-dasharray:none;stroke-dashoffset:0"
       id="path3053"
       sodipodi:cx="35.714287"
       sodipodi:cy="269.09448"
       sodipodi:rx="51.42857"
       sodipodi:ry="51.42857"
       d="m 78.305072,297.92021 a 51.42857,51.42857 0 1 1 1.967652,-54.50536"
       sodipodi:start="0.59498985"
       sodipodi:end="5.7603644"
       transform="matrix(0.78497482,0,0,0.78497482,68.912954,116.43352)"
       sodipodi:open="true" />
    <g
       id="g3874"
       transform="translate(-2,0)">
      <path
         sodipodi:nodetypes="cssccssc"
         inkscape:connector-curvature="0"
         id="rect5005"
         d="m 314.28125,329.09375 0,-56.65625 c 0,-10.15634 -8.18741,-18.34375 -18.34375,-18.34375 l -63.09375,0 M 182,306.9375 l 0,60.25 c 0,10.15634 8.18741,18.34375 18.34375,18.34375 l 78.21875,0"
         style="fill:none;stroke:#323232;stroke-width:5.00261307;stroke-miterlimit:4;stroke-opacity:1;stroke-dasharray:none" />
      <path
         transform="matrix(1.027027,0,0,1.027027,-6.9305018,-6.8674184)"
         d="m 256.42857,254.09448 c 0,14.5961 -11.83247,26.42857 -26.42857,26.42857 -14.5961,0 -26.42857,-11.83247 -26.42857,-26.42857 0,-14.59609 11.83247,-26.42857 26.42857,-26.42857 14.5961,0 26.42857,11.83248 26.42857,26.42857 z"
         sodipodi:ry="26.428572"
         sodipodi:rx="26.428572"
         sodipodi:cy="254.09448"
         sodipodi:cx="230"
         id="path4449"
         style="fill:#1d636a;fill-opacity:1;stroke:none"
         sodipodi:type="arc" />
      <path
         sodipodi:type="arc"
         style="fill:#1d636a;fill-opacity:1;stroke:none"
         id="path4451"
         sodipodi:cx="230"
         sodipodi:cy="254.09448"
         sodipodi:rx="26.428572"
         sodipodi:ry="26.428572"
         d="m 256.42857,254.09448 c 0,14.5961 -11.83247,26.42857 -26.42857,26.42857 -14.5961,0 -26.42857,-11.83247 -26.42857,-26.42857 0,-14.59609 11.83247,-26.42857 26.42857,-26.42857 14.5961,0 26.42857,11.83248 26.42857,26.42857 z"
         transform="translate(-2.142857,97.857143)" />
      <path
         sodipodi:type="arc"
         style="fill:#89cd3b;fill-opacity:1;stroke:none"
         id="path4451-6"
         sodipodi:cx="230"
         sodipodi:cy="254.09448"
         sodipodi:rx="26.428572"
         sodipodi:ry="26.428572"
         d="m 256.42857,254.09448 c 0,14.5961 -11.83247,26.42857 -26.42857,26.42857 -14.5961,0 -26.42857,-11.83247 -26.42857,-26.42857 0,-14.59609 11.83247,-26.42857 26.42857,-26.42857 14.5961,0 26.42857,11.83248 26.42857,26.42857 z"
         transform="matrix(1.4189189,0,0,1.4189189,-13.85135,-45.373557)" />
      <path
         transform="matrix(0.95945944,0,0,0.95945944,-35.318532,59.943984)"
         d="m 256.42857,254.09448 c 0,14.5961 -11.83247,26.42857 -26.42857,26.42857 -14.5961,0 -26.42857,-11.83247 -26.42857,-26.42857 0,-14.59609 11.83247,-26.42857 26.42857,-26.42857 14.5961,0 26.42857,11.83248 26.42857,26.42857 z"
         sodipodi:ry="26.428572"
         sodipodi:rx="26.428572"
         sodipodi:cy="254.09448"
         sodipodi:cx="230"
         id="path5001"
         style="fill:#89cd3b;fill-opacity:1;stroke:none"
         sodipodi:type="arc" />
      <path
         sodipodi:type="arc"
         style="fill:#bab0b3;fill-opacity:1;stroke:none"
         id="path5003"
         sodipodi:cx="230"
         sodipodi:cy="254.09448"
         sodipodi:rx="26.428572"
         sodipodi:ry="26.428572"
         d="m 256.42857,254.09448 c 0,14.5961 -11.83247,26.42857 -26.42857,26.42857 -14.5961,0 -26.42857,-11.83247 -26.42857,-26.42857 0,-14.59609 11.83247,-26.42857 26.42857,-26.42857 14.5961,0 26.42857,11.83248 26.42857,26.42857 z"
         transform="matrix(0.66216215,0,0,0.66216215,99.488417,134.05702)" />
      <path
         transform="matrix(1.1486486,0,0,1.1486486,21.167954,91.872055)"
         d="m 256.42857,254.09448 c 0,14.5961 -11.83247,26.42857 -26.42857,26.42857 -14.5961,0 -26.42857,-11.83247 -26.42857,-26.42857 0,-14.59609 11.83247,-26.42857 26.42857,-26.42857 14.5961,0 26.42857,11.83248 26.42857,26.42857 z"
         sodipodi:ry="26.428572"
         sodipodi:rx="26.428572"
         sodipodi:cy="254.09448"
         sodipodi:cx="230"
         id="path5013"
         style="fill:#dedb29;fill-opacity:1;stroke:none"
         sodipodi:type="arc" />
    </g>
    <text
       xml:space="preserve"
       style="font-size:40px;font-style:normal;font-weight:normal;line-height:125%;letter-spacing:0px;word-spacing:0px;fill:#000000;fill-opacity:1;stroke:none;font-family:Bitstream Vera Sans"
       x="273.57144"
       y="190.52306"
       id="text5019"
       sodipodi:linespacing="125%"><tspan
         sodipodi:role="line"
         id="tspan5021"
         x="273.57144"
         y="190.52306" /></text>
    <text
       xml:space="preserve"
       style="font-size:40px;font-style:normal;font-weight:normal;line-height:125%;letter-spacing:0px;word-spacing:0px;fill:#000000;fill-opacity:1;stroke:none;font-family:Bitstream Vera Sans"
       x="288.57144"
       y="497.66592"
       id="text5023"
       sodipodi:linespacing="125%"><tspan
         sodipodi:role="line"
         id="tspan5025"
         x="288.57144"
         y="497.66592" /></text>
    <text
       xml:space="preserve"
       style="font-size:40px;font-style:normal;font-weight:normal;line-height:125%;letter-spacing:0px;word-spacing:0px;fill:#000000;fill-opacity:1;stroke:none;font-family:Bitstream Vera Sans"
       x="178.57143"
       y="479.09448"
       id="text5027"
       sodipodi:linespacing="125%"><tspan
         sodipodi:role="line"
         id="tspan5029"
         x="178.57143"
         y="479.09448" /></text>
    <text
       xml:space="preserve"
       style="font-size:40px;font-style:normal;font-weight:normal;line-height:125%;letter-spacing:0px;word-spacing:0px;fill:#000000;fill-opacity:1;stroke:none;font-family:Bitstream Vera Sans"
       x="167.85715"
       y="184.80878"
       id="text2998"
       sodipodi:linespacing="125%"><tspan
         sodipodi:role="line"
         id="tspan3000"
         x="167.85715"
         y="184.80878"
         style="font-style:normal;font-variant:normal;font-weight:normal;font-stretch:normal;font-family:Symbol;-inkscape-font-specification:Symbol" /></text>
    <text
       xml:space="preserve"
       style="font-size:40.75836945px;font-style:normal;font-weight:normal;line-height:125%;letter-spacing:0px;word-spacing:0px;fill:#bab0b3;fill-opacity:1;stroke:none;font-family:Bitstream Vera Sans"
       x="355.62872"
       y="375.69794"
       id="text3002"
       sodipodi:linespacing="125%"
       transform="scale(0.97541837,1.0252011)"><tspan
         sodipodi:role="line"
         id="tspan3004"
         x="355.62872"
         y="375.69794"
         style="font-size:203.7918396px;font-weight:bold;fill:#bab0b3;fill-opacity:1;-inkscape-font-specification:Bitstream Vera Sans Bold">m</tspan></text>
    <rect
       style="fill:#89cd3b;fill-opacity:1;stroke:none"
       id="rect3778"
       width="34.285713"
       height="157.85716"
       x="559.99994"
       y="227.30876"
       ry="0" />
    <path
       sodipodi:type="arc"
       style="fill:none;stroke:#89cd3b;stroke-width:23.43333435;stroke-miterlimit:4;stroke-opacity:1;stroke-dasharray:none"
       id="path3780"
       sodipodi:cx="230"
       sodipodi:cy="254.09448"
       sodipodi:rx="26.428572"
       sodipodi:ry="26.428572"
       d="m 256.42857,254.09448 a 26.428572,26.428572 0 1 1 -52.85714,0 26.428572,26.428572 0 1 1 52.85714,0 z"
       transform="matrix(1.508185,0,0,1.508185,270.61746,-55.555575)" />
    <rect
       ry="0"
       y="268.02304"
       x="696.37756"
       height="117.14288"
       width="34.285713"
       id="rect3782"
       style="fill:#89cd3b;fill-opacity:1;stroke:none" />
    <path
       transform="matrix(0.88513512,0,0,0.88513512,509.14083,19.722242)"
       d="m 256.42857,254.09448 a 26.428572,26.428572 0 1 1 -52.85714,0 26.428572,26.428572 0 1 1 52.85714,0 z"
       sodipodi:ry="26.428572"
       sodipodi:rx="26.428572"
       sodipodi:cy="254.09448"
       sodipodi:cx="230"
       id="path3784"
       style="fill:#89cd3b;fill-opacity:1;stroke:none"
       sodipodi:type="arc" />
    <text
       transform="scale(0.96841862,1.0326113)"
       sodipodi:linespacing="125%"
       id="text3786"
       y="373.00189"
       x="759.81244"
       style="font-size:40.46588516px;font-style:normal;font-weight:normal;line-height:125%;letter-spacing:0px;word-spacing:0px;fill:#dedb29;fill-opacity:1;stroke:none;font-family:Bitstream Vera Sans"
       xml:space="preserve"><tspan
         style="font-size:202.329422px;font-weight:bold;fill:#dedb29;fill-opacity:1;-inkscape-font-specification:Bitstream Vera Sans Bold"
         y="373.00189"
         x="759.81244"
         id="tspan3788"
         sodipodi:role="line">n</tspan></text>
    <path
       transform="matrix(1.508185,0,0,1.508185,592.61746,-55.555575)"
       d="m 256.42857,254.09448 a 26.428572,26.428572 0 1 1 -52.85714,0 26.428572,26.428572 0 1 1 52.85714,0 z"
       sodipodi:ry="26.428572"
       sodipodi:rx="26.428572"
       sodipodi:cy="254.09448"
       sodipodi:cx="230"
       id="path3796"
       style="fill:none;stroke:#dedb29;stroke-width:23.43333435;stroke-miterlimit:4;stroke-opacity:1;stroke-dasharray:none"
       sodipodi:type="arc" />
    <path
       style="fill:#ffffff;fill-opacity:1;stroke:none"
       d="m 996.76802,362.50936 -56.69481,-34.21892 75.00379,8.9651 z"
       id="path3802"
       inkscape:connector-curvature="0"
       sodipodi:nodetypes="cccc" />
    <text
       sodipodi:linespacing="125%"
       id="text3812"
       y="385.30371"
       x="1017.1428"
       style="font-size:40px;font-style:normal;font-weight:normal;line-height:125%;letter-spacing:0px;word-spacing:0px;fill:#000000;fill-opacity:1;stroke:none;font-family:Bitstream Vera Sans"
       xml:space="preserve"><tspan
         y="385.30371"
         x="1017.1428"
         id="tspan3814"
         sodipodi:role="line"
         style="font-size:72px;font-weight:normal;-inkscape-font-specification:Bitstream Vera Sans">the computational modeling in biology network</tspan></text>
    <rect
       style="fill:#dedb29;fill-opacity:1;stroke:none"
       id="rect3792"
       width="17.878168"
       height="92.142883"
       x="317.04895"
       y="-995.96887"
       ry="0"
       transform="matrix(0,1,-1,0,0,0)" />
  </g>
</svg>
