<?xml version="1.0" encoding="UTF-8" standalone="no"?>
<!-- Created with Inkscape (http://www.inkscape.org/) -->

<svg
   xmlns:dc="http://purl.org/dc/elements/1.1/"
   xmlns:cc="http://creativecommons.org/ns#"
   xmlns:rdf="http://www.w3.org/1999/02/22-rdf-syntax-ns#"
   xmlns:svg="http://www.w3.org/2000/svg"
   xmlns="http://www.w3.org/2000/svg"
   xmlns:sodipodi="http://sodipodi.sourceforge.net/DTD/sodipodi-0.dtd"
   xmlns:inkscape="http://www.inkscape.org/namespaces/inkscape"
   width="1052.3622"
   height="744.09448"
   id="svg2"
   version="1.1"
   inkscape:version="0.48.0 r9654"
   sodipodi:docname="Word-COMBINE_logo.svg"
   inkscape:export-filename="/home/lenov/COMBINE/LOGOS/Final/Symbol-COMBINE_logo.png"
   inkscape:export-xdpi="150"
   inkscape:export-ydpi="150">
  <defs
     id="defs4" />
  <sodipodi:namedview
     id="base"
     pagecolor="#ffffff"
     bordercolor="#666666"
     borderopacity="1.0"
     inkscape:pageopacity="0.0"
     inkscape:pageshadow="2"
     inkscape:zoom="0.98994949"
     inkscape:cx="534.91719"
     inkscape:cy="402.86164"
     inkscape:document-units="px"
     inkscape:current-layer="layer2"
     showgrid="false"
     inkscape:window-width="1280"
     inkscape:window-height="779"
     inkscape:window-x="-4"
     inkscape:window-y="-4"
     inkscape:window-maximized="1"
     showguides="true"
     inkscape:guide-bbox="true">
    <sodipodi:guide
       orientation="1,0"
       position="40,567.14286"
       id="guide3816" />
  </sodipodi:namedview>
  <metadata
     id="metadata7">
    <rdf:RDF>
      <cc:Work
         rdf:about="">
        <dc:format>image/svg+xml</dc:format>
        <dc:type
           rdf:resource="http://purl.org/dc/dcmitype/StillImage" />
        <dc:title></dc:title>
      </cc:Work>
    </rdf:RDF>
  </metadata>
  <g
     inkscape:groupmode="layer"
     id="layer2"
     inkscape:label="Layer"
     style="display:inline">
    <g
       id="g3874"
       transform="translate(-2,0)">
      <path
         sodipodi:nodetypes="cssccssc"
         inkscape:connector-curvature="0"
         id="rect5005"
         d="m 314.28125,329.09375 0,-56.65625 c 0,-10.15634 -8.18741,-18.34375 -18.34375,-18.34375 l -63.09375,0 M 182,306.9375 l 0,60.25 c 0,10.15634 8.18741,18.34375 18.34375,18.34375 l 78.21875,0"
         style="fill:none;stroke:#323232;stroke-width:5.00261307;stroke-miterlimit:4;stroke-opacity:1;stroke-dasharray:none" />
      <path
         transform="matrix(1.027027,0,0,1.027027,-6.9305018,-6.8674184)"
         d="m 256.42857,254.09448 c 0,14.5961 -11.83247,26.42857 -26.42857,26.42857 -14.5961,0 -26.42857,-11.83247 -26.42857,-26.42857 0,-14.59609 11.83247,-26.42857 26.42857,-26.42857 14.5961,0 26.42857,11.83248 26.42857,26.42857 z"
         sodipodi:ry="26.428572"
         sodipodi:rx="26.428572"
         sodipodi:cy="254.09448"
         sodipodi:cx="230"
         id="path4449"
         style="fill:#1d636a;fill-opacity:1;stroke:none"
         sodipodi:type="arc" />
      <path
         sodipodi:type="arc"
         style="fill:#1d636a;fill-opacity:1;stroke:none"
         id="path4451"
         sodipodi:cx="230"
         sodipodi:cy="254.09448"
         sodipodi:rx="26.428572"
         sodipodi:ry="26.428572"
         d="m 256.42857,254.09448 c 0,14.5961 -11.83247,26.42857 -26.42857,26.42857 -14.5961,0 -26.42857,-11.83247 -26.42857,-26.42857 0,-14.59609 11.83247,-26.42857 26.42857,-26.42857 14.5961,0 26.42857,11.83248 26.42857,26.42857 z"
         transform="translate(-2.142857,97.857143)" />
      <path
         sodipodi:type="arc"
         style="fill:#89cd3b;fill-opacity:1;stroke:none"
         id="path4451-6"
         sodipodi:cx="230"
         sodipodi:cy="254.09448"
         sodipodi:rx="26.428572"
         sodipodi:ry="26.428572"
         d="m 256.42857,254.09448 c 0,14.5961 -11.83247,26.42857 -26.42857,26.42857 -14.5961,0 -26.42857,-11.83247 -26.42857,-26.42857 0,-14.59609 11.83247,-26.42857 26.42857,-26.42857 14.5961,0 26.42857,11.83248 26.42857,26.42857 z"
         transform="matrix(1.4189189,0,0,1.4189189,-13.85135,-45.373557)" />
      <path
         transform="matrix(0.95945944,0,0,0.95945944,-35.318532,59.943984)"
         d="m 256.42857,254.09448 c 0,14.5961 -11.83247,26.42857 -26.42857,26.42857 -14.5961,0 -26.42857,-11.83247 -26.42857,-26.42857 0,-14.59609 11.83247,-26.42857 26.42857,-26.42857 14.5961,0 26.42857,11.83248 26.42857,26.42857 z"
         sodipodi:ry="26.428572"
         sodipodi:rx="26.428572"
         sodipodi:cy="254.09448"
         sodipodi:cx="230"
         id="path5001"
         style="fill:#89cd3b;fill-opacity:1;stroke:none"
         sodipodi:type="arc" />
      <path
         sodipodi:type="arc"
         style="fill:#bab0b3;fill-opacity:1;stroke:none"
         id="path5003"
         sodipodi:cx="230"
         sodipodi:cy="254.09448"
         sodipodi:rx="26.428572"
         sodipodi:ry="26.428572"
         d="m 256.42857,254.09448 c 0,14.5961 -11.83247,26.42857 -26.42857,26.42857 -14.5961,0 -26.42857,-11.83247 -26.42857,-26.42857 0,-14.59609 11.83247,-26.42857 26.42857,-26.42857 14.5961,0 26.42857,11.83248 26.42857,26.42857 z"
         transform="matrix(0.66216215,0,0,0.66216215,99.488417,134.05702)" />
      <path
         transform="matrix(1.1486486,0,0,1.1486486,21.167954,91.872055)"
         d="m 256.42857,254.09448 c 0,14.5961 -11.83247,26.42857 -26.42857,26.42857 -14.5961,0 -26.42857,-11.83247 -26.42857,-26.42857 0,-14.59609 11.83247,-26.42857 26.42857,-26.42857 14.5961,0 26.42857,11.83248 26.42857,26.42857 z"
         sodipodi:ry="26.428572"
         sodipodi:rx="26.428572"
         sodipodi:cy="254.09448"
         sodipodi:cx="230"
         id="path5013"
         style="fill:#dedb29;fill-opacity:1;stroke:none"
         sodipodi:type="arc" />
    </g>
    <text
       xml:space="preserve"
       style="font-size:40px;font-style:normal;font-weight:normal;line-height:125%;letter-spacing:0px;word-spacing:0px;fill:#000000;fill-opacity:1;stroke:none;font-family:Bitstream Vera Sans"
       x="273.57144"
       y="190.52306"
       id="text5019"
       sodipodi:linespacing="125%"><tspan
         sodipodi:role="line"
         id="tspan5021"
         x="273.57144"
         y="190.52306" /></text>
    <text
       xml:space="preserve"
       style="font-size:40px;font-style:normal;font-weight:normal;line-height:125%;letter-spacing:0px;word-spacing:0px;fill:#000000;fill-opacity:1;stroke:none;font-family:Bitstream Vera Sans"
       x="288.57144"
       y="497.66592"
       id="text5023"
       sodipodi:linespacing="125%"><tspan
         sodipodi:role="line"
         id="tspan5025"
         x="288.57144"
         y="497.66592" /></text>
    <text
       xml:space="preserve"
       style="font-size:40px;font-style:normal;font-weight:normal;line-height:125%;letter-spacing:0px;word-spacing:0px;fill:#000000;fill-opacity:1;stroke:none;font-family:Bitstream Vera Sans"
       x="178.57143"
       y="479.09448"
       id="text5027"
       sodipodi:linespacing="125%"><tspan
         sodipodi:role="line"
         id="tspan5029"
         x="178.57143"
         y="479.09448" /></text>
    <text
       xml:space="preserve"
       style="font-size:40px;font-style:normal;font-weight:normal;line-height:125%;letter-spacing:0px;word-spacing:0px;fill:#000000;fill-opacity:1;stroke:none;font-family:Bitstream Vera Sans"
       x="167.85715"
       y="184.80878"
       id="text2998"
       sodipodi:linespacing="125%"><tspan
         sodipodi:role="line"
         id="tspan3000"
         x="167.85715"
         y="184.80878"
         style="font-style:normal;font-variant:normal;font-weight:normal;font-stretch:normal;font-family:Symbol;-inkscape-font-specification:Symbol" /></text>
  </g>
</svg>
